<svg width="294" height="127" viewBox="0 0 294 127" fill="none" xmlns="http://www.w3.org/2000/svg">
<path d="M0 0H294V127H0V0Z" fill="black"/>
<path d="M2 2H288V120H2V2Z" fill="white"/>
<path d="M159 63H267L268 64L267 65H159V63Z" fill="black"/>
<path d="M257 53H260L271 64H268L257 53Z" fill="black"/>
<path d="M257 75H260L271 64H268L257 75Z" fill="black"/>
<path d="M29.568 41.92C29.568 42.56 29.52 43.088 29.424 43.504C29.328 43.92 29.168 44.272 28.944 44.56C28.752 44.816 28.496 45.04 28.176 45.232C27.856 45.392 27.488 45.568 27.072 45.76V45.856C27.936 46.016 28.56 46.336 28.944 46.816C29.36 47.264 29.568 48.048 29.568 49.168V60.64C29.568 62.208 29.184 63.472 28.416 64.432C27.648 65.392 26.384 65.872 24.624 65.872C22.864 65.872 21.6 65.392 20.832 64.432C20.064 63.472 19.68 62.208 19.68 60.64V52.288H22.656V61.312C22.656 61.888 22.832 62.384 23.184 62.8C23.536 63.248 24.016 63.472 24.624 63.472C25.232 63.472 25.712 63.248 26.064 62.8C26.416 62.384 26.592 61.888 26.592 61.312V49.36C26.592 48.784 26.416 48.288 26.064 47.872C25.712 47.424 25.232 47.2 24.624 47.2H22.848V44.512H24.624C25.232 44.512 25.712 44.304 26.064 43.888C26.416 43.44 26.592 42.928 26.592 42.352V35.2C26.592 34.624 26.416 34.128 26.064 33.712C25.712 33.264 25.232 33.04 24.624 33.04V30.64C26.384 30.64 27.648 31.12 28.416 32.08C29.184 33.04 29.568 34.304 29.568 35.872V41.92Z" fill="black"/>
<path d="M36.3994 52H33.4234V35.776C33.4234 34.688 33.5834 33.808 33.9034 33.136C34.2234 32.464 34.6234 31.952 35.1034 31.6C35.5834 31.216 36.1114 30.96 36.6874 30.832C37.2634 30.704 37.8234 30.64 38.3674 30.64C38.9114 30.64 39.4714 30.704 40.0474 30.832C40.6234 30.96 41.1514 31.216 41.6314 31.6C42.1114 31.952 42.5114 32.464 42.8314 33.136C43.1514 33.808 43.3114 34.688 43.3114 35.776V52H40.3354V35.44C40.3354 35.216 40.3194 34.976 40.2874 34.72C40.2874 34.432 40.2234 34.176 40.0954 33.952C39.9674 33.696 39.7594 33.488 39.4714 33.328C39.2154 33.136 38.8474 33.04 38.3674 33.04C37.8874 33.04 37.5034 33.136 37.2154 33.328C36.9594 33.488 36.7674 33.696 36.6394 33.952C36.5114 34.176 36.4314 34.432 36.3994 34.72C36.3994 34.976 36.3994 35.216 36.3994 35.44V52Z" fill="black"/>
<path d="M59.0651 30.64C59.6091 30.64 60.1371 30.704 60.6491 30.832C61.1931 30.96 61.6731 31.216 62.0891 31.6C62.5371 31.952 62.8891 32.464 63.1451 33.136C63.4011 33.808 63.5291 34.688 63.5291 35.776V52H60.5531V35.44C60.5531 35.216 60.5371 34.976 60.5051 34.72C60.5051 34.432 60.4411 34.176 60.3131 33.952C60.1851 33.696 59.9771 33.488 59.6891 33.328C59.4331 33.136 59.0651 33.04 58.5851 33.04C58.1051 33.04 57.7211 33.136 57.4331 33.328C57.1771 33.488 56.9851 33.696 56.8571 33.952C56.7291 34.176 56.6491 34.432 56.6171 34.72C56.6171 34.976 56.6171 35.216 56.6171 35.44V47.152C56.6171 48.24 56.4571 49.12 56.1371 49.792C55.8171 50.464 55.4171 50.992 54.9371 51.376C54.4571 51.728 53.9291 51.968 53.3531 52.096C52.7771 52.224 52.2171 52.288 51.6731 52.288C51.1291 52.288 50.5691 52.224 49.9931 52.096C49.4171 51.968 48.8891 51.728 48.4091 51.376C47.9291 50.992 47.5291 50.464 47.2091 49.792C46.8891 49.12 46.7291 48.24 46.7291 47.152V35.776C46.7291 34.688 46.8571 33.808 47.1131 33.136C47.3691 32.464 47.7051 31.952 48.1211 31.6C48.5691 31.216 49.0491 30.96 49.5611 30.832C50.1051 30.704 50.6491 30.64 51.1931 30.64C52.0891 30.64 52.7931 30.768 53.3051 31.024C53.8491 31.248 54.2491 31.504 54.5051 31.792C54.8251 32.144 55.0331 32.512 55.1291 32.896C55.2251 32.512 55.4331 32.144 55.7531 31.792C56.0091 31.504 56.3931 31.248 56.9051 31.024C57.4491 30.768 58.1691 30.64 59.0651 30.64ZM53.6411 35.44C53.6411 35.216 53.6251 34.976 53.5931 34.72C53.5931 34.432 53.5291 34.176 53.4011 33.952C53.2731 33.696 53.0651 33.488 52.7771 33.328C52.5211 33.136 52.1531 33.04 51.6731 33.04C51.1931 33.04 50.8091 33.136 50.5211 33.328C50.2651 33.488 50.0731 33.696 49.9451 33.952C49.8171 34.176 49.7371 34.432 49.7051 34.72C49.7051 34.976 49.7051 35.216 49.7051 35.44V47.488C49.7051 47.712 49.7051 47.968 49.7051 48.256C49.7371 48.512 49.8171 48.768 49.9451 49.024C50.0731 49.248 50.2651 49.456 50.5211 49.648C50.8091 49.808 51.1931 49.888 51.6731 49.888C52.1531 49.888 52.5211 49.808 52.7771 49.648C53.0651 49.456 53.2731 49.248 53.4011 49.024C53.5291 48.768 53.5931 48.512 53.5931 48.256C53.6251 47.968 53.6411 47.712 53.6411 47.488V35.44Z" fill="black"/>
<path d="M69.9529 17.344V31.888C70.4009 31.536 70.8809 31.248 71.3929 31.024C71.9049 30.768 72.4809 30.64 73.1209 30.64C74.2409 30.64 75.1369 30.976 75.8089 31.648C76.5129 32.288 76.8649 33.344 76.8649 34.816V47.056C76.8649 48.624 76.4809 49.888 75.7129 50.848C74.9449 51.808 73.6809 52.288 71.9209 52.288C70.1609 52.288 68.8969 51.808 68.1289 50.848C67.3609 49.888 66.9769 48.624 66.9769 47.056V17.344H69.9529ZM69.9529 47.824C69.9529 48.4 70.1449 48.896 70.5289 49.312C70.9129 49.696 71.3769 49.888 71.9209 49.888C72.4649 49.888 72.9289 49.696 73.3129 49.312C73.6969 48.896 73.8889 48.4 73.8889 47.824V35.104C73.8889 34.528 73.6969 34.048 73.3129 33.664C72.9289 33.248 72.4649 33.04 71.9209 33.04C71.3769 33.04 70.9129 33.248 70.5289 33.664C70.1449 34.048 69.9529 34.528 69.9529 35.104V47.824Z" fill="black"/>
<path d="M83.4585 44.512H85.2345C85.8425 44.512 86.3225 44.304 86.6745 43.888C87.0265 43.44 87.2025 42.928 87.2025 42.352V35.2C87.2025 34.624 87.0265 34.128 86.6745 33.712C86.3225 33.264 85.8425 33.04 85.2345 33.04C84.6265 33.04 84.1465 33.264 83.7945 33.712C83.4425 34.128 83.2665 34.624 83.2665 35.2V40H80.2905V35.872C80.2905 34.304 80.6745 33.04 81.4425 32.08C82.2105 31.12 83.4745 30.64 85.2345 30.64C86.9945 30.64 88.2585 31.12 89.0265 32.08C89.7945 33.04 90.1785 34.304 90.1785 35.872V41.92C90.1785 42.56 90.1305 43.088 90.0345 43.504C89.9385 43.92 89.7785 44.272 89.5545 44.56C89.3625 44.816 89.1065 45.04 88.7865 45.232C88.4665 45.392 88.0985 45.568 87.6825 45.76V45.856C88.5465 46.016 89.1705 46.336 89.5545 46.816C89.9705 47.264 90.1785 48.048 90.1785 49.168V60.64C90.1785 62.208 89.7945 63.472 89.0265 64.432C88.2585 65.392 86.9945 65.872 85.2345 65.872C83.4745 65.872 82.2105 65.392 81.4425 64.432C80.6745 63.472 80.2905 62.208 80.2905 60.64V52.288H83.2665V61.312C83.2665 61.888 83.4425 62.384 83.7945 62.8C84.1465 63.248 84.6265 63.472 85.2345 63.472C85.8425 63.472 86.3225 63.248 86.6745 62.8C87.0265 62.384 87.2025 61.888 87.2025 61.312V49.36C87.2025 48.784 87.0265 48.288 86.6745 47.872C86.3225 47.424 85.8425 47.2 85.2345 47.2H83.4585V44.512Z" fill="black"/>
<path d="M95.9775 52H93.0015V35.776C93.0015 34.688 93.1615 33.808 93.4815 33.136C93.8015 32.464 94.2015 31.952 94.6815 31.6C95.1615 31.216 95.6895 30.96 96.2655 30.832C96.8415 30.704 97.4015 30.64 97.9455 30.64C98.4895 30.64 99.0495 30.704 99.6255 30.832C100.202 30.96 100.729 31.216 101.21 31.6C101.69 31.952 102.09 32.464 102.41 33.136C102.729 33.808 102.89 34.688 102.89 35.776V52H99.9135V35.44C99.9135 35.216 99.8975 34.976 99.8655 34.72C99.8655 34.432 99.8015 34.176 99.6735 33.952C99.5455 33.696 99.3375 33.488 99.0495 33.328C98.7935 33.136 98.4255 33.04 97.9455 33.04C97.4655 33.04 97.0815 33.136 96.7935 33.328C96.5375 33.488 96.3455 33.696 96.2175 33.952C96.0895 34.176 96.0095 34.432 95.9775 34.72C95.9775 34.976 95.9775 35.216 95.9775 35.44V52Z" fill="black"/>
<path d="M116.147 30.928V47.152C116.147 48.24 115.987 49.12 115.667 49.792C115.347 50.464 114.947 50.992 114.467 51.376C113.987 51.728 113.459 51.968 112.883 52.096C112.307 52.224 111.747 52.288 111.203 52.288C110.659 52.288 110.099 52.224 109.523 52.096C108.947 51.968 108.419 51.728 107.939 51.376C107.459 50.992 107.059 50.464 106.739 49.792C106.419 49.12 106.259 48.24 106.259 47.152V17.344H109.235V47.488C109.235 47.712 109.235 47.968 109.235 48.256C109.267 48.512 109.347 48.768 109.475 49.024C109.603 49.248 109.795 49.456 110.051 49.648C110.339 49.808 110.723 49.888 111.203 49.888C111.683 49.888 112.051 49.808 112.307 49.648C112.595 49.456 112.803 49.248 112.931 49.024C113.059 48.768 113.123 48.512 113.123 48.256C113.155 47.968 113.171 47.712 113.171 47.488V30.928H116.147Z" fill="black"/>
<path d="M32.064 75.64C32.608 75.64 33.136 75.704 33.648 75.832C34.192 75.96 34.672 76.216 35.088 76.6C35.536 76.952 35.888 77.464 36.144 78.136C36.4 78.808 36.528 79.688 36.528 80.776V92.152C36.528 93.24 36.368 94.12 36.048 94.792C35.728 95.464 35.328 95.992 34.848 96.376C34.368 96.728 33.84 96.968 33.264 97.096C32.688 97.224 32.128 97.288 31.584 97.288C31.04 97.288 30.48 97.224 29.904 97.096C29.328 96.968 28.8 96.728 28.32 96.376C27.84 95.992 27.44 95.464 27.12 94.792C26.8 94.12 26.64 93.24 26.64 92.152V80.44C26.64 80.216 26.624 79.976 26.592 79.72C26.592 79.432 26.528 79.176 26.4 78.952C26.272 78.696 26.064 78.488 25.776 78.328C25.52 78.136 25.152 78.04 24.672 78.04C24.192 78.04 23.808 78.136 23.52 78.328C23.264 78.488 23.072 78.696 22.944 78.952C22.816 79.176 22.736 79.432 22.704 79.72C22.704 79.976 22.704 80.216 22.704 80.44V102.28C22.704 102.504 22.704 102.744 22.704 103C22.736 103.288 22.816 103.544 22.944 103.768C23.072 104.024 23.264 104.232 23.52 104.392C23.808 104.584 24.192 104.68 24.672 104.68H28.608C29.152 104.68 29.712 104.744 30.288 104.872C30.864 105 31.392 105.24 31.872 105.592C32.352 105.976 32.752 106.504 33.072 107.176C33.392 107.848 33.552 108.728 33.552 109.816V110.584H30.576V109.48C30.576 109.256 30.56 109 30.528 108.712C30.528 108.456 30.464 108.2 30.336 107.944C30.208 107.72 30 107.512 29.712 107.32C29.456 107.16 29.088 107.08 28.608 107.08H24.672C24.128 107.08 23.568 107.016 22.992 106.888C22.416 106.76 21.888 106.52 21.408 106.168C20.928 105.848 20.528 105.384 20.208 104.776C19.888 104.168 19.728 103.384 19.728 102.424V80.776C19.728 79.688 19.856 78.808 20.112 78.136C20.368 77.464 20.704 76.952 21.12 76.6C21.568 76.216 22.048 75.96 22.56 75.832C23.104 75.704 23.648 75.64 24.192 75.64C25.088 75.64 25.792 75.768 26.304 76.024C26.848 76.248 27.248 76.504 27.504 76.792C27.824 77.144 28.032 77.512 28.128 77.896C28.224 77.512 28.432 77.144 28.752 76.792C29.008 76.504 29.392 76.248 29.904 76.024C30.416 75.768 31.136 75.64 32.064 75.64ZM33.552 80.44C33.552 80.216 33.536 79.976 33.504 79.72C33.504 79.432 33.44 79.176 33.312 78.952C33.184 78.696 32.976 78.488 32.688 78.328C32.432 78.136 32.064 78.04 31.584 78.04C31.104 78.04 30.72 78.136 30.432 78.328C30.176 78.488 29.984 78.696 29.856 78.952C29.728 79.176 29.648 79.432 29.616 79.72C29.616 79.976 29.616 80.216 29.616 80.44V92.488C29.616 92.712 29.616 92.968 29.616 93.256C29.648 93.512 29.728 93.768 29.856 94.024C29.984 94.248 30.176 94.456 30.432 94.648C30.72 94.808 31.104 94.888 31.584 94.888C32.064 94.888 32.432 94.808 32.688 94.648C32.976 94.456 33.184 94.248 33.312 94.024C33.44 93.768 33.504 93.512 33.504 93.256C33.536 92.968 33.552 92.712 33.552 92.488V80.44Z" fill="black"/>
<path d="M45.354 77.32C48.362 77.32 49.866 78.824 49.866 81.832V92.152C49.866 93.24 49.706 94.12 49.386 94.792C49.066 95.464 48.666 95.992 48.186 96.376C47.706 96.728 47.178 96.968 46.602 97.096C46.026 97.224 45.466 97.288 44.922 97.288C44.378 97.288 43.818 97.224 43.242 97.096C42.666 96.968 42.138 96.728 41.658 96.376C41.178 95.992 40.778 95.464 40.458 94.792C40.138 94.12 39.978 93.24 39.978 92.152V85.672H42.954V92.488C42.954 92.712 42.954 92.968 42.954 93.256C42.986 93.512 43.066 93.768 43.194 94.024C43.322 94.248 43.514 94.456 43.77 94.648C44.058 94.808 44.442 94.888 44.922 94.888C45.402 94.888 45.77 94.808 46.026 94.648C46.314 94.456 46.522 94.248 46.65 94.024C46.778 93.768 46.842 93.512 46.842 93.256C46.874 92.968 46.89 92.712 46.89 92.488V81.304C46.89 80.824 46.762 80.44 46.506 80.152C46.25 79.864 45.866 79.72 45.354 79.72C45.002 79.72 44.586 79.672 44.106 79.576C43.626 79.448 43.178 79.24 42.762 78.952C42.346 78.664 41.994 78.28 41.706 77.8C41.418 77.32 41.274 76.696 41.274 75.928H43.818C43.818 76.28 43.898 76.6 44.058 76.888C44.25 77.176 44.682 77.32 45.354 77.32Z" fill="black"/>
<path d="M62.2174 72.088V65.176C62.2174 64.984 62.1374 64.824 61.9774 64.696C61.8494 64.536 61.6734 64.456 61.4494 64.456C61.2574 64.456 61.0814 64.536 60.9214 64.696C60.7934 64.824 60.7294 64.984 60.7294 65.176V69.4H57.7534V65.176C57.7534 64.984 57.6734 64.824 57.5134 64.696C57.3854 64.536 57.2094 64.456 56.9854 64.456C56.7934 64.456 56.6174 64.536 56.4574 64.696C56.3294 64.824 56.2654 64.984 56.2654 65.176V76.888C56.7134 76.536 57.1934 76.248 57.7054 76.024C58.2174 75.768 58.7934 75.64 59.4334 75.64C60.5534 75.64 61.4494 75.976 62.1214 76.648C62.8254 77.288 63.1774 78.344 63.1774 79.816V92.056C63.1774 93.624 62.7934 94.888 62.0254 95.848C61.2574 96.808 59.9934 97.288 58.2334 97.288C56.4734 97.288 55.2094 96.808 54.4414 95.848C53.6734 94.888 53.2894 93.624 53.2894 92.056V65.464C53.2894 64.504 53.6254 63.704 54.2974 63.064C54.9694 62.392 55.7694 62.056 56.6974 62.056C57.7214 62.056 58.5694 62.424 59.2414 63.16C59.9134 62.424 60.7614 62.056 61.7854 62.056C62.7134 62.056 63.5134 62.392 64.1854 63.064C64.8574 63.704 65.1934 64.504 65.1934 65.464V72.088H62.2174ZM58.2334 78.04C57.6894 78.04 57.2254 78.248 56.8414 78.664C56.4574 79.048 56.2654 79.528 56.2654 80.104V92.824C56.2654 93.4 56.4574 93.896 56.8414 94.312C57.2254 94.696 57.6894 94.888 58.2334 94.888C58.7774 94.888 59.2414 94.696 59.6254 94.312C60.0094 93.896 60.2014 93.4 60.2014 92.824V80.104C60.2014 79.528 60.0094 79.048 59.6254 78.664C59.2414 78.248 58.7774 78.04 58.2334 78.04Z" fill="black"/>
<path d="M76.491 75.928V105.736C76.491 106.824 76.331 107.704 76.011 108.376C75.691 109.048 75.291 109.56 74.811 109.912C74.331 110.296 73.803 110.552 73.227 110.68C72.651 110.808 72.091 110.872 71.547 110.872C71.003 110.872 70.443 110.808 69.867 110.68C69.291 110.552 68.763 110.296 68.283 109.912C67.803 109.56 67.403 109.048 67.083 108.376C66.763 107.704 66.603 106.824 66.603 105.736V101.128H69.579V106.072C69.579 106.296 69.579 106.536 69.579 106.792C69.611 107.08 69.691 107.336 69.819 107.56C69.947 107.816 70.139 108.024 70.395 108.184C70.683 108.376 71.067 108.472 71.547 108.472C72.027 108.472 72.395 108.376 72.651 108.184C72.939 108.024 73.147 107.816 73.275 107.56C73.403 107.336 73.467 107.08 73.467 106.792C73.499 106.536 73.515 106.296 73.515 106.072V96.04C73.067 96.392 72.587 96.696 72.075 96.952C71.563 97.176 70.987 97.288 70.347 97.288C69.227 97.288 68.315 96.968 67.611 96.328C66.939 95.656 66.603 94.584 66.603 93.112V75.928H69.579V92.824C69.579 93.4 69.771 93.896 70.155 94.312C70.539 94.696 71.003 94.888 71.547 94.888C72.091 94.888 72.555 94.696 72.939 94.312C73.323 93.896 73.515 93.4 73.515 92.824V75.928H76.491Z" fill="black"/>
<path d="M83.9209 75.64C84.4649 75.64 85.0249 75.704 85.6009 75.832C86.1769 75.96 86.7049 76.216 87.1849 76.6C87.6649 76.952 88.0649 77.464 88.3849 78.136C88.7049 78.808 88.8649 79.688 88.8649 80.776V105.736C88.8649 106.824 88.7049 107.704 88.3849 108.376C88.0649 109.048 87.6649 109.56 87.1849 109.912C86.7049 110.296 86.1769 110.552 85.6009 110.68C85.0249 110.808 84.4649 110.872 83.9209 110.872C83.3769 110.872 82.8169 110.808 82.2409 110.68C81.6649 110.552 81.1369 110.296 80.6569 109.912C80.1769 109.56 79.7769 109.048 79.4569 108.376C79.1369 107.704 78.9769 106.824 78.9769 105.736V97.288H81.9529V106.072C81.9529 106.296 81.9529 106.536 81.9529 106.792C81.9849 107.08 82.0649 107.336 82.1929 107.56C82.3209 107.816 82.5129 108.024 82.7689 108.184C83.0569 108.376 83.4409 108.472 83.9209 108.472C84.4009 108.472 84.7689 108.376 85.0249 108.184C85.3129 108.024 85.5209 107.816 85.6489 107.56C85.7769 107.336 85.8409 107.08 85.8409 106.792C85.8729 106.536 85.8889 106.296 85.8889 106.072V80.44C85.8889 80.216 85.8729 79.976 85.8409 79.72C85.8409 79.432 85.7769 79.176 85.6489 78.952C85.5209 78.696 85.3129 78.488 85.0249 78.328C84.7689 78.136 84.4009 78.04 83.9209 78.04C83.4409 78.04 83.0569 78.136 82.7689 78.328C82.5129 78.488 82.3209 78.696 82.1929 78.952C82.0649 79.176 81.9849 79.432 81.9529 79.72C81.9529 79.976 81.9529 80.216 81.9529 80.44V85H78.9769V80.776C78.9769 79.688 79.1369 78.808 79.4569 78.136C79.7769 77.464 80.1769 76.952 80.6569 76.6C81.1369 76.216 81.6649 75.96 82.2409 75.832C82.8169 75.704 83.3769 75.64 83.9209 75.64Z" fill="black"/>
<path d="M98.8163 75.784C99.7123 75.944 100.512 76.392 101.216 77.128C101.92 77.864 102.272 79.08 102.272 80.776V92.152C102.272 93.24 102.112 94.12 101.792 94.792C101.472 95.464 101.072 95.992 100.592 96.376C100.112 96.728 99.5842 96.968 99.0082 97.096C98.4323 97.224 97.8722 97.288 97.3282 97.288C96.7842 97.288 96.2242 97.224 95.6482 97.096C95.0723 96.968 94.5443 96.728 94.0642 96.376C93.5842 95.992 93.1842 95.464 92.8643 94.792C92.5443 94.12 92.3842 93.24 92.3842 92.152V80.776C92.3842 79.08 92.7362 77.864 93.4402 77.128C94.1442 76.392 94.9442 75.944 95.8402 75.784V67.912C95.3923 67.816 94.9762 67.672 94.5922 67.48C94.2082 67.288 93.8562 67 93.5362 66.616C93.2162 66.232 92.9603 65.752 92.7682 65.176C92.6082 64.6 92.5283 63.896 92.5283 63.064V62.344H95.5042V63.4C95.5042 63.624 95.5042 63.88 95.5042 64.168C95.5362 64.424 95.6162 64.68 95.7442 64.936C95.8722 65.16 96.0643 65.368 96.3203 65.56C96.6083 65.72 96.9922 65.8 97.4723 65.8H98.8163V75.784ZM99.2962 80.44C99.2962 80.216 99.2803 79.976 99.2483 79.72C99.2483 79.432 99.1842 79.176 99.0563 78.952C98.9283 78.696 98.7203 78.488 98.4323 78.328C98.1763 78.136 97.8083 78.04 97.3282 78.04C96.8482 78.04 96.4642 78.136 96.1762 78.328C95.9202 78.488 95.7282 78.696 95.6003 78.952C95.4723 79.176 95.3923 79.432 95.3603 79.72C95.3603 79.976 95.3603 80.216 95.3603 80.44V92.488C95.3603 92.712 95.3603 92.968 95.3603 93.256C95.3923 93.512 95.4723 93.768 95.6003 94.024C95.7282 94.248 95.9202 94.456 96.1762 94.648C96.4642 94.808 96.8482 94.888 97.3282 94.888C97.8083 94.888 98.1763 94.808 98.4323 94.648C98.7203 94.456 98.9283 94.248 99.0563 94.024C99.1842 93.768 99.2483 93.512 99.2483 93.256C99.2803 92.968 99.2962 92.712 99.2962 92.488V80.44Z" fill="black"/>
<path d="M111.12 77.32C114.128 77.32 115.632 78.824 115.632 81.832V92.152C115.632 93.24 115.472 94.12 115.152 94.792C114.832 95.464 114.432 95.992 113.952 96.376C113.472 96.728 112.944 96.968 112.368 97.096C111.792 97.224 111.232 97.288 110.688 97.288C110.144 97.288 109.584 97.224 109.008 97.096C108.432 96.968 107.904 96.728 107.424 96.376C106.944 95.992 106.544 95.464 106.224 94.792C105.904 94.12 105.744 93.24 105.744 92.152V85.672H108.72V92.488C108.72 92.712 108.72 92.968 108.72 93.256C108.752 93.512 108.832 93.768 108.96 94.024C109.088 94.248 109.28 94.456 109.536 94.648C109.824 94.808 110.208 94.888 110.688 94.888C111.168 94.888 111.536 94.808 111.792 94.648C112.08 94.456 112.288 94.248 112.416 94.024C112.544 93.768 112.608 93.512 112.608 93.256C112.64 92.968 112.656 92.712 112.656 92.488V81.304C112.656 80.824 112.528 80.44 112.272 80.152C112.016 79.864 111.632 79.72 111.12 79.72C110.768 79.72 110.352 79.672 109.872 79.576C109.392 79.448 108.944 79.24 108.528 78.952C108.112 78.664 107.76 78.28 107.472 77.8C107.184 77.32 107.04 76.696 107.04 75.928H109.584C109.584 76.28 109.664 76.6 109.824 76.888C110.016 77.176 110.448 77.32 111.12 77.32Z" fill="black"/>
<path d="M119.103 93.352H122.271V97H119.103V93.352Z" fill="black"/>
<path d="M125.712 93.352H128.88V97H125.712V93.352Z" fill="black"/>
<path d="M132.322 93.352H135.49V97H132.322V93.352Z" fill="black"/>
<path d="M13 9H139V114H13V9Z" fill="white"/>
<path d="M22.064 51.64C22.608 51.64 23.136 51.704 23.648 51.832C24.192 51.96 24.672 52.216 25.088 52.6C25.536 52.952 25.888 53.464 26.144 54.136C26.4 54.808 26.528 55.688 26.528 56.776V68.152C26.528 69.24 26.368 70.12 26.048 70.792C25.728 71.464 25.328 71.992 24.848 72.376C24.368 72.728 23.84 72.968 23.264 73.096C22.688 73.224 22.128 73.288 21.584 73.288C21.04 73.288 20.48 73.224 19.904 73.096C19.328 72.968 18.8 72.728 18.32 72.376C17.84 71.992 17.44 71.464 17.12 70.792C16.8 70.12 16.64 69.24 16.64 68.152V56.44C16.64 56.216 16.624 55.976 16.592 55.72C16.592 55.432 16.528 55.176 16.4 54.952C16.272 54.696 16.064 54.488 15.776 54.328C15.52 54.136 15.152 54.04 14.672 54.04C14.192 54.04 13.808 54.136 13.52 54.328C13.264 54.488 13.072 54.696 12.944 54.952C12.816 55.176 12.736 55.432 12.704 55.72C12.704 55.976 12.704 56.216 12.704 56.44V78.28C12.704 78.504 12.704 78.744 12.704 79C12.736 79.288 12.816 79.544 12.944 79.768C13.072 80.024 13.264 80.232 13.52 80.392C13.808 80.584 14.192 80.68 14.672 80.68H18.608C19.152 80.68 19.712 80.744 20.288 80.872C20.864 81 21.392 81.24 21.872 81.592C22.352 81.976 22.752 82.504 23.072 83.176C23.392 83.848 23.552 84.728 23.552 85.816V86.584H20.576V85.48C20.576 85.256 20.56 85 20.528 84.712C20.528 84.456 20.464 84.2 20.336 83.944C20.208 83.72 20 83.512 19.712 83.32C19.456 83.16 19.088 83.08 18.608 83.08H14.672C14.128 83.08 13.568 83.016 12.992 82.888C12.416 82.76 11.888 82.52 11.408 82.168C10.928 81.848 10.528 81.384 10.208 80.776C9.888 80.168 9.728 79.384 9.728 78.424V56.776C9.728 55.688 9.856 54.808 10.112 54.136C10.368 53.464 10.704 52.952 11.12 52.6C11.568 52.216 12.048 51.96 12.56 51.832C13.104 51.704 13.648 51.64 14.192 51.64C15.088 51.64 15.792 51.768 16.304 52.024C16.848 52.248 17.248 52.504 17.504 52.792C17.824 53.144 18.032 53.512 18.128 53.896C18.224 53.512 18.432 53.144 18.752 52.792C19.008 52.504 19.392 52.248 19.904 52.024C20.416 51.768 21.136 51.64 22.064 51.64ZM23.552 56.44C23.552 56.216 23.536 55.976 23.504 55.72C23.504 55.432 23.44 55.176 23.312 54.952C23.184 54.696 22.976 54.488 22.688 54.328C22.432 54.136 22.064 54.04 21.584 54.04C21.104 54.04 20.72 54.136 20.432 54.328C20.176 54.488 19.984 54.696 19.856 54.952C19.728 55.176 19.648 55.432 19.616 55.72C19.616 55.976 19.616 56.216 19.616 56.44V68.488C19.616 68.712 19.616 68.968 19.616 69.256C19.648 69.512 19.728 69.768 19.856 70.024C19.984 70.248 20.176 70.456 20.432 70.648C20.72 70.808 21.104 70.888 21.584 70.888C22.064 70.888 22.432 70.808 22.688 70.648C22.976 70.456 23.184 70.248 23.312 70.024C23.44 69.768 23.504 69.512 23.504 69.256C23.536 68.968 23.552 68.712 23.552 68.488V56.44Z" fill="black"/>
<path d="M35.354 53.32C38.362 53.32 39.866 54.824 39.866 57.832V68.152C39.866 69.24 39.706 70.12 39.386 70.792C39.066 71.464 38.666 71.992 38.186 72.376C37.706 72.728 37.178 72.968 36.602 73.096C36.026 73.224 35.466 73.288 34.922 73.288C34.378 73.288 33.818 73.224 33.242 73.096C32.666 72.968 32.138 72.728 31.658 72.376C31.178 71.992 30.778 71.464 30.458 70.792C30.138 70.12 29.978 69.24 29.978 68.152V61.672H32.954V68.488C32.954 68.712 32.954 68.968 32.954 69.256C32.986 69.512 33.066 69.768 33.194 70.024C33.322 70.248 33.514 70.456 33.77 70.648C34.058 70.808 34.442 70.888 34.922 70.888C35.402 70.888 35.77 70.808 36.026 70.648C36.314 70.456 36.522 70.248 36.65 70.024C36.778 69.768 36.842 69.512 36.842 69.256C36.874 68.968 36.89 68.712 36.89 68.488V57.304C36.89 56.824 36.762 56.44 36.506 56.152C36.25 55.864 35.866 55.72 35.354 55.72C35.002 55.72 34.586 55.672 34.106 55.576C33.626 55.448 33.178 55.24 32.762 54.952C32.346 54.664 31.994 54.28 31.706 53.8C31.418 53.32 31.274 52.696 31.274 51.928H33.818C33.818 52.28 33.898 52.6 34.058 52.888C34.25 53.176 34.682 53.32 35.354 53.32Z" fill="black"/>
<path d="M49.7694 51.784C50.6654 51.944 51.4654 52.392 52.1694 53.128C52.8734 53.864 53.2254 55.08 53.2254 56.776V68.152C53.2254 69.24 53.0654 70.12 52.7454 70.792C52.4254 71.464 52.0254 71.992 51.5454 72.376C51.0654 72.728 50.5374 72.968 49.9614 73.096C49.3854 73.224 48.8254 73.288 48.2814 73.288C47.7374 73.288 47.1774 73.224 46.6014 73.096C46.0254 72.968 45.4974 72.728 45.0174 72.376C44.5374 71.992 44.1374 71.464 43.8174 70.792C43.4974 70.12 43.3374 69.24 43.3374 68.152V56.776C43.3374 55.08 43.6894 53.864 44.3934 53.128C45.0974 52.392 45.8974 51.944 46.7934 51.784V43.912C46.3454 43.816 45.9294 43.672 45.5454 43.48C45.1614 43.288 44.8094 43 44.4894 42.616C44.1694 42.232 43.9134 41.752 43.7214 41.176C43.5614 40.6 43.4814 39.896 43.4814 39.064V38.344H46.4574V39.4C46.4574 39.624 46.4574 39.88 46.4574 40.168C46.4894 40.424 46.5694 40.68 46.6974 40.936C46.8254 41.16 47.0174 41.368 47.2734 41.56C47.5614 41.72 47.9454 41.8 48.4254 41.8H49.7694V51.784ZM50.2494 56.44C50.2494 56.216 50.2334 55.976 50.2014 55.72C50.2014 55.432 50.1374 55.176 50.0094 54.952C49.8814 54.696 49.6734 54.488 49.3854 54.328C49.1294 54.136 48.7614 54.04 48.2814 54.04C47.8014 54.04 47.4174 54.136 47.1294 54.328C46.8734 54.488 46.6814 54.696 46.5534 54.952C46.4254 55.176 46.3454 55.432 46.3134 55.72C46.3134 55.976 46.3134 56.216 46.3134 56.44V68.488C46.3134 68.712 46.3134 68.968 46.3134 69.256C46.3454 69.512 46.4254 69.768 46.5534 70.024C46.6814 70.248 46.8734 70.456 47.1294 70.648C47.4174 70.808 47.8014 70.888 48.2814 70.888C48.7614 70.888 49.1294 70.808 49.3854 70.648C49.6734 70.456 49.8814 70.248 50.0094 70.024C50.1374 69.768 50.2014 69.512 50.2014 69.256C50.2334 68.968 50.2494 68.712 50.2494 68.488V56.44Z" fill="black"/>
<path d="M69.0807 51.64C69.6247 51.64 70.1527 51.704 70.6647 51.832C71.2087 51.96 71.6888 52.216 72.1048 52.6C72.5527 52.952 72.9048 53.464 73.1608 54.136C73.4167 54.808 73.5448 55.688 73.5448 56.776V73H70.5687V56.44C70.5687 56.216 70.5527 55.976 70.5208 55.72C70.5208 55.432 70.4567 55.176 70.3288 54.952C70.2008 54.696 69.9928 54.488 69.7048 54.328C69.4488 54.136 69.0808 54.04 68.6008 54.04C68.1208 54.04 67.7368 54.136 67.4488 54.328C67.1927 54.488 67.0007 54.696 66.8727 54.952C66.7448 55.176 66.6647 55.432 66.6328 55.72C66.6328 55.976 66.6328 56.216 66.6328 56.44V66.472H63.6087V56.104C63.6087 55.528 63.4167 55.048 63.0327 54.664C62.6488 54.248 62.1847 54.04 61.6408 54.04C61.0968 54.04 60.6327 54.232 60.2487 54.616C59.8967 55 59.7048 55.464 59.6727 56.008V73H56.6968V46.504C56.6968 45.544 56.8568 44.76 57.1768 44.152C57.4967 43.544 57.8968 43.064 58.3768 42.712C58.8888 42.36 59.4328 42.12 60.0088 41.992C60.5848 41.864 61.1287 41.8 61.6408 41.8H65.5768C66.0568 41.8 66.4248 41.72 66.6807 41.56C66.9688 41.368 67.1768 41.16 67.3047 40.936C67.4327 40.68 67.4967 40.424 67.4967 40.168C67.5287 39.88 67.5448 39.624 67.5448 39.4V38.344H70.5208V39.064C70.5208 40.152 70.3607 41.032 70.0407 41.704C69.7207 42.376 69.3208 42.904 68.8408 43.288C68.3607 43.64 67.8327 43.88 67.2568 44.008C66.6808 44.136 66.1208 44.2 65.5768 44.2H61.6408C61.1608 44.2 60.7767 44.296 60.4888 44.488C60.2327 44.648 60.0407 44.856 59.9128 45.112C59.7848 45.336 59.7048 45.592 59.6727 45.88C59.6727 46.136 59.6727 46.376 59.6727 46.6V52.888C60.1208 52.536 60.6007 52.248 61.1128 52.024C61.6248 51.768 62.2008 51.64 62.8408 51.64C64.1528 51.64 65.0328 52.12 65.4808 53.08C65.7367 52.728 66.1367 52.408 66.6807 52.12C67.2247 51.8 68.0247 51.64 69.0807 51.64Z" fill="black"/>
<path d="M83.111 51.64C84.359 51.64 85.383 52.072 86.183 52.936C86.983 53.8 87.383 54.856 87.383 56.104V81.736C87.383 82.824 87.223 83.704 86.903 84.376C86.583 85.048 86.183 85.56 85.703 85.912C85.223 86.296 84.695 86.552 84.119 86.68C83.543 86.808 82.983 86.872 82.439 86.872C81.895 86.872 81.335 86.808 80.759 86.68C80.183 86.552 79.655 86.296 79.175 85.912C78.695 85.56 78.295 85.048 77.975 84.376C77.655 83.704 77.495 82.824 77.495 81.736V73.288H80.471V82.072C80.471 82.296 80.471 82.536 80.471 82.792C80.503 83.08 80.583 83.336 80.711 83.56C80.839 83.816 81.031 84.024 81.287 84.184C81.575 84.376 81.959 84.472 82.439 84.472C82.919 84.472 83.287 84.376 83.543 84.184C83.831 84.024 84.039 83.816 84.167 83.56C84.295 83.336 84.359 83.08 84.359 82.792C84.391 82.536 84.407 82.296 84.407 82.072V55.528C84.407 55.08 84.263 54.728 83.975 54.472C83.687 54.184 83.335 54.04 82.919 54.04C82.503 54.04 82.151 54.184 81.863 54.472C81.575 54.728 81.431 55.08 81.431 55.528V64.072H78.455V55.528C78.455 55.08 78.311 54.728 78.023 54.472C77.735 54.184 77.383 54.04 76.967 54.04H74.375V51.64H76.823C77.399 51.64 77.879 51.736 78.263 51.928C78.647 52.088 78.967 52.264 79.223 52.456C79.511 52.712 79.751 52.984 79.943 53.272C80.135 52.984 80.375 52.712 80.663 52.456C80.919 52.264 81.239 52.088 81.623 51.928C82.007 51.736 82.503 51.64 83.111 51.64Z" fill="black"/>
<path d="M95.672 40.456C95.096 40.456 94.616 40.664 94.232 41.08C93.848 41.464 93.656 41.944 93.656 42.52V52.888C94.104 52.536 94.584 52.248 95.096 52.024C95.608 51.768 96.184 51.64 96.824 51.64C97.944 51.64 98.84 51.976 99.512 52.648C100.216 53.288 100.568 54.344 100.568 55.816V68.056C100.568 69.624 100.184 70.888 99.416 71.848C98.648 72.808 97.384 73.288 95.624 73.288C93.864 73.288 92.6 72.808 91.832 71.848C91.064 70.888 90.68 69.624 90.68 68.056V43.288C90.68 41.72 91.064 40.456 91.832 39.496C92.6 38.536 93.864 38.056 95.624 38.056H100.328V40.456H95.672ZM95.624 54.04C95.08 54.04 94.616 54.248 94.232 54.664C93.848 55.048 93.656 55.528 93.656 56.104V68.824C93.656 69.4 93.848 69.896 94.232 70.312C94.616 70.696 95.08 70.888 95.624 70.888C96.168 70.888 96.632 70.696 97.016 70.312C97.4 69.896 97.592 69.4 97.592 68.824V56.104C97.592 55.528 97.4 55.048 97.016 54.664C96.632 54.248 96.168 54.04 95.624 54.04Z" fill="black"/>
<path d="M108.983 51.64C109.527 51.64 110.087 51.704 110.663 51.832C111.239 51.96 111.767 52.216 112.247 52.6C112.727 52.952 113.127 53.464 113.447 54.136C113.767 54.808 113.927 55.688 113.927 56.776V81.736C113.927 82.824 113.767 83.704 113.447 84.376C113.127 85.048 112.727 85.56 112.247 85.912C111.767 86.296 111.239 86.552 110.663 86.68C110.087 86.808 109.527 86.872 108.983 86.872C108.439 86.872 107.879 86.808 107.303 86.68C106.727 86.552 106.199 86.296 105.719 85.912C105.239 85.56 104.839 85.048 104.519 84.376C104.199 83.704 104.039 82.824 104.039 81.736V73.288H107.015V82.072C107.015 82.296 107.015 82.536 107.015 82.792C107.047 83.08 107.127 83.336 107.255 83.56C107.383 83.816 107.575 84.024 107.831 84.184C108.119 84.376 108.503 84.472 108.983 84.472C109.463 84.472 109.831 84.376 110.087 84.184C110.375 84.024 110.583 83.816 110.711 83.56C110.839 83.336 110.903 83.08 110.903 82.792C110.935 82.536 110.951 82.296 110.951 82.072V56.44C110.951 56.216 110.935 55.976 110.903 55.72C110.903 55.432 110.839 55.176 110.711 54.952C110.583 54.696 110.375 54.488 110.087 54.328C109.831 54.136 109.463 54.04 108.983 54.04C108.503 54.04 108.119 54.136 107.831 54.328C107.575 54.488 107.383 54.696 107.255 54.952C107.127 55.176 107.047 55.432 107.015 55.72C107.015 55.976 107.015 56.216 107.015 56.44V61H104.039V56.776C104.039 55.688 104.199 54.808 104.519 54.136C104.839 53.464 105.239 52.952 105.719 52.6C106.199 52.216 106.727 51.96 107.303 51.832C107.879 51.704 108.439 51.64 108.983 51.64Z" fill="black"/>
<path d="M123.879 51.784C124.775 51.944 125.575 52.392 126.279 53.128C126.983 53.864 127.335 55.08 127.335 56.776V68.152C127.335 69.24 127.175 70.12 126.855 70.792C126.535 71.464 126.135 71.992 125.655 72.376C125.175 72.728 124.647 72.968 124.071 73.096C123.495 73.224 122.935 73.288 122.391 73.288C121.847 73.288 121.287 73.224 120.711 73.096C120.135 72.968 119.607 72.728 119.127 72.376C118.647 71.992 118.247 71.464 117.927 70.792C117.607 70.12 117.447 69.24 117.447 68.152V56.776C117.447 55.08 117.799 53.864 118.503 53.128C119.207 52.392 120.007 51.944 120.903 51.784V43.912C120.455 43.816 120.039 43.672 119.655 43.48C119.271 43.288 118.919 43 118.599 42.616C118.279 42.232 118.023 41.752 117.831 41.176C117.671 40.6 117.591 39.896 117.591 39.064V38.344H120.567V39.4C120.567 39.624 120.567 39.88 120.567 40.168C120.599 40.424 120.679 40.68 120.807 40.936C120.935 41.16 121.127 41.368 121.383 41.56C121.671 41.72 122.055 41.8 122.535 41.8H123.879V51.784ZM124.359 56.44C124.359 56.216 124.343 55.976 124.311 55.72C124.311 55.432 124.247 55.176 124.119 54.952C123.991 54.696 123.783 54.488 123.495 54.328C123.239 54.136 122.871 54.04 122.391 54.04C121.911 54.04 121.527 54.136 121.239 54.328C120.983 54.488 120.791 54.696 120.663 54.952C120.535 55.176 120.455 55.432 120.423 55.72C120.423 55.976 120.423 56.216 120.423 56.44V68.488C120.423 68.712 120.423 68.968 120.423 69.256C120.455 69.512 120.535 69.768 120.663 70.024C120.791 70.248 120.983 70.456 121.239 70.648C121.527 70.808 121.911 70.888 122.391 70.888C122.871 70.888 123.239 70.808 123.495 70.648C123.783 70.456 123.991 70.248 124.119 70.024C124.247 69.768 124.311 69.512 124.311 69.256C124.343 68.968 124.359 68.712 124.359 68.488V56.44Z" fill="black"/>
<path d="M136.182 53.32C139.19 53.32 140.694 54.824 140.694 57.832V68.152C140.694 69.24 140.534 70.12 140.214 70.792C139.894 71.464 139.494 71.992 139.014 72.376C138.534 72.728 138.006 72.968 137.43 73.096C136.854 73.224 136.294 73.288 135.75 73.288C135.206 73.288 134.646 73.224 134.07 73.096C133.494 72.968 132.966 72.728 132.486 72.376C132.006 71.992 131.606 71.464 131.286 70.792C130.966 70.12 130.806 69.24 130.806 68.152V61.672H133.782V68.488C133.782 68.712 133.782 68.968 133.782 69.256C133.814 69.512 133.894 69.768 134.022 70.024C134.15 70.248 134.342 70.456 134.598 70.648C134.886 70.808 135.27 70.888 135.75 70.888C136.23 70.888 136.598 70.808 136.854 70.648C137.142 70.456 137.35 70.248 137.478 70.024C137.606 69.768 137.67 69.512 137.67 69.256C137.702 68.968 137.718 68.712 137.718 68.488V57.304C137.718 56.824 137.59 56.44 137.334 56.152C137.078 55.864 136.694 55.72 136.182 55.72C135.83 55.72 135.414 55.672 134.934 55.576C134.454 55.448 134.006 55.24 133.59 54.952C133.174 54.664 132.822 54.28 132.534 53.8C132.246 53.32 132.102 52.696 132.102 51.928H134.646C134.646 52.28 134.726 52.6 134.886 52.888C135.078 53.176 135.51 53.32 136.182 53.32Z" fill="black"/>
</svg>
