<svg width="335" height="98" viewBox="0 0 335 98" fill="none" xmlns="http://www.w3.org/2000/svg">
<path d="M12.864 27.456C14.656 27.776 16.256 28.672 17.664 30.144C19.072 31.616 19.776 34.048 19.776 37.44V60.192C19.776 62.368 19.456 64.128 18.816 65.472C18.176 66.816 17.376 67.872 16.416 68.64C15.456 69.344 14.4 69.824 13.248 70.08C12.096 70.336 10.976 70.464 9.888 70.464C8.8 70.464 7.68 70.336 6.528 70.08C5.376 69.824 4.32 69.344 3.36 68.64C2.4 67.872 1.6 66.816 0.96 65.472C0.32 64.128 0 62.368 0 60.192V37.44C0 34.048 0.704 31.616 2.112 30.144C3.52 28.672 5.12 27.776 6.912 27.456V11.712C6.016 11.52 5.184 11.232 4.416 10.848C3.648 10.464 2.944 9.888 2.304 9.12C1.664 8.352 1.152 7.392 0.768 6.24C0.448 5.088 0.288 3.68 0.288 2.016V0.575998H6.24V2.688C6.24 3.136 6.24 3.648 6.24 4.224C6.304 4.736 6.464 5.248 6.72 5.76C6.976 6.208 7.36 6.624 7.872 7.008C8.448 7.328 9.216 7.488 10.176 7.488H12.864V27.456ZM13.824 36.768C13.824 36.32 13.792 35.84 13.728 35.328C13.728 34.752 13.6 34.24 13.344 33.792C13.088 33.28 12.672 32.864 12.096 32.544C11.584 32.16 10.848 31.968 9.888 31.968C8.928 31.968 8.16 32.16 7.584 32.544C7.072 32.864 6.688 33.28 6.432 33.792C6.176 34.24 6.016 34.752 5.952 35.328C5.952 35.84 5.952 36.32 5.952 36.768V60.864C5.952 61.312 5.952 61.824 5.952 62.4C6.016 62.912 6.176 63.424 6.432 63.936C6.688 64.384 7.072 64.8 7.584 65.184C8.16 65.504 8.928 65.664 9.888 65.664C10.848 65.664 11.584 65.504 12.096 65.184C12.672 64.8 13.088 64.384 13.344 63.936C13.6 63.424 13.728 62.912 13.728 62.4C13.792 61.824 13.824 61.312 13.824 60.864V36.768Z" fill="black"/>
<path d="M37.4707 30.528C43.4867 30.528 46.4948 33.536 46.4948 39.552V60.192C46.4948 62.368 46.1748 64.128 45.5348 65.472C44.8948 66.816 44.0947 67.872 43.1348 68.64C42.1748 69.344 41.1188 69.824 39.9668 70.08C38.8148 70.336 37.6947 70.464 36.6068 70.464C35.5187 70.464 34.3988 70.336 33.2467 70.08C32.0947 69.824 31.0387 69.344 30.0788 68.64C29.1188 67.872 28.3188 66.816 27.6788 65.472C27.0388 64.128 26.7188 62.368 26.7188 60.192V47.232H32.6707V60.864C32.6707 61.312 32.6707 61.824 32.6707 62.4C32.7347 62.912 32.8947 63.424 33.1507 63.936C33.4067 64.384 33.7907 64.8 34.3027 65.184C34.8787 65.504 35.6468 65.664 36.6068 65.664C37.5667 65.664 38.3027 65.504 38.8148 65.184C39.3908 64.8 39.8068 64.384 40.0628 63.936C40.3188 63.424 40.4468 62.912 40.4468 62.4C40.5107 61.824 40.5428 61.312 40.5428 60.864V38.496C40.5428 37.536 40.2868 36.768 39.7747 36.192C39.2627 35.616 38.4948 35.328 37.4707 35.328C36.7668 35.328 35.9347 35.232 34.9748 35.04C34.0148 34.784 33.1188 34.368 32.2868 33.792C31.4548 33.216 30.7507 32.448 30.1747 31.488C29.5987 30.528 29.3107 29.28 29.3107 27.744H34.3988C34.3988 28.448 34.5588 29.088 34.8787 29.664C35.2627 30.24 36.1267 30.528 37.4707 30.528Z" fill="black"/>
<path d="M59.7735 54.912H63.3255C64.5415 54.912 65.5015 54.496 66.2055 53.664C66.9095 52.768 67.2615 51.744 67.2615 50.592V36.288C67.2615 35.136 66.9095 34.144 66.2055 33.312C65.5015 32.416 64.5415 31.968 63.3255 31.968C62.1095 31.968 61.1495 32.416 60.4455 33.312C59.7415 34.144 59.3895 35.136 59.3895 36.288V45.888H53.4375V37.632C53.4375 34.496 54.2055 31.968 55.7415 30.048C57.2775 28.128 59.8055 27.168 63.3255 27.168C66.8455 27.168 69.3735 28.128 70.9095 30.048C72.4455 31.968 73.2135 34.496 73.2135 37.632V49.728C73.2135 51.008 73.1175 52.064 72.9255 52.896C72.7335 53.728 72.4135 54.432 71.9655 55.008C71.5815 55.52 71.0695 55.968 70.4295 56.352C69.7895 56.672 69.0535 57.024 68.2215 57.408V57.6C69.9495 57.92 71.1975 58.56 71.9655 59.52C72.7975 60.416 73.2135 61.984 73.2135 64.224V87.168C73.2135 90.304 72.4455 92.832 70.9095 94.752C69.3735 96.672 66.8455 97.632 63.3255 97.632C59.8055 97.632 57.2775 96.672 55.7415 94.752C54.2055 92.832 53.4375 90.304 53.4375 87.168V70.464H59.3895V88.512C59.3895 89.664 59.7415 90.656 60.4455 91.488C61.1495 92.384 62.1095 92.832 63.3255 92.832C64.5415 92.832 65.5015 92.384 66.2055 91.488C66.9095 90.656 67.2615 89.664 67.2615 88.512V64.608C67.2615 63.456 66.9095 62.464 66.2055 61.632C65.5015 60.736 64.5415 60.288 63.3255 60.288H59.7735V54.912Z" fill="black"/>
<path d="M74.0595 20.064V6.816C74.0595 4.96 74.7315 3.36 76.0755 2.016C77.4195 0.672001 79.0195 0 80.8755 0C82.9235 0 84.6195 0.736 85.9635 2.208C87.3075 0.736 89.0035 0 91.0515 0C92.9075 0 94.5075 0.672001 95.8515 2.016C97.1955 3.36 97.8675 4.96 97.8675 6.816V60C97.8675 63.136 97.0995 65.664 95.5635 67.584C94.0275 69.504 91.4995 70.464 87.9795 70.464C84.4595 70.464 81.9315 69.504 80.3955 67.584C78.8595 65.664 78.0915 63.136 78.0915 60V35.52C78.0915 32.576 78.7635 30.464 80.1075 29.184C81.5155 27.84 83.3395 27.168 85.5795 27.168C86.8595 27.168 88.0115 27.424 89.0355 27.936C90.0595 28.384 91.0195 28.96 91.9155 29.664V6.24C91.9155 5.856 91.7555 5.536 91.4355 5.28C91.1795 4.96 90.8595 4.8 90.4755 4.8C90.0275 4.8 89.6435 4.96 89.3235 5.28C89.0675 5.536 88.9395 5.856 88.9395 6.24V14.688H82.9875V6.24C82.9875 5.856 82.8275 5.536 82.5075 5.28C82.2515 4.96 81.9315 4.8 81.5475 4.8C81.0995 4.8 80.7155 4.96 80.3955 5.28C80.1395 5.536 80.0115 5.856 80.0115 6.24V20.064H74.0595ZM91.9155 36.096C91.9155 34.944 91.5315 33.984 90.7635 33.216C89.9955 32.384 89.0675 31.968 87.9795 31.968C86.8915 31.968 85.9635 32.384 85.1955 33.216C84.4275 33.984 84.0435 34.944 84.0435 36.096V61.536C84.0435 62.688 84.4275 63.68 85.1955 64.512C85.9635 65.28 86.8915 65.664 87.9795 65.664C89.0675 65.664 89.9955 65.28 90.7635 64.512C91.5315 63.68 91.9155 62.688 91.9155 61.536V36.096Z" fill="black"/>
<path d="M129.674 27.168C130.762 27.168 131.818 27.296 132.842 27.552C133.93 27.808 134.89 28.32 135.722 29.088C136.618 29.792 137.322 30.816 137.834 32.16C138.346 33.504 138.602 35.264 138.602 37.44V69.888H132.65V36.768C132.65 36.32 132.618 35.84 132.554 35.328C132.554 34.752 132.426 34.24 132.17 33.792C131.914 33.28 131.498 32.864 130.922 32.544C130.41 32.16 129.674 31.968 128.714 31.968C127.754 31.968 126.986 32.16 126.41 32.544C125.898 32.864 125.514 33.28 125.258 33.792C125.002 34.24 124.842 34.752 124.778 35.328C124.778 35.84 124.778 36.32 124.778 36.768V60.192C124.778 62.368 124.458 64.128 123.818 65.472C123.178 66.816 122.378 67.872 121.418 68.64C120.458 69.344 119.402 69.824 118.25 70.08C117.098 70.336 115.978 70.464 114.89 70.464C113.802 70.464 112.682 70.336 111.53 70.08C110.378 69.824 109.322 69.344 108.362 68.64C107.402 67.872 106.602 66.816 105.962 65.472C105.322 64.128 105.002 62.368 105.002 60.192V37.44C105.002 35.264 105.258 33.504 105.77 32.16C106.282 30.816 106.954 29.792 107.786 29.088C108.682 28.32 109.642 27.808 110.666 27.552C111.754 27.296 112.842 27.168 113.93 27.168C115.722 27.168 117.13 27.424 118.154 27.936C119.242 28.384 120.042 28.896 120.554 29.472C121.194 30.176 121.61 30.912 121.802 31.68C121.994 30.912 122.41 30.176 123.05 29.472C123.562 28.896 124.33 28.384 125.354 27.936C126.442 27.424 127.882 27.168 129.674 27.168ZM118.826 36.768C118.826 36.32 118.794 35.84 118.73 35.328C118.73 34.752 118.602 34.24 118.346 33.792C118.09 33.28 117.674 32.864 117.098 32.544C116.586 32.16 115.85 31.968 114.89 31.968C113.93 31.968 113.162 32.16 112.586 32.544C112.074 32.864 111.69 33.28 111.434 33.792C111.178 34.24 111.018 34.752 110.954 35.328C110.954 35.84 110.954 36.32 110.954 36.768V60.864C110.954 61.312 110.954 61.824 110.954 62.4C111.018 62.912 111.178 63.424 111.434 63.936C111.69 64.384 112.074 64.8 112.586 65.184C113.162 65.504 113.93 65.664 114.89 65.664C115.85 65.664 116.586 65.504 117.098 65.184C117.674 64.8 118.09 64.384 118.346 63.936C118.602 63.424 118.73 62.912 118.73 62.4C118.794 61.824 118.826 61.312 118.826 60.864V36.768Z" fill="black"/>
<path d="M152.783 30.528C158.799 30.528 161.807 33.536 161.807 39.552V60.192C161.807 62.368 161.487 64.128 160.847 65.472C160.207 66.816 159.407 67.872 158.447 68.64C157.487 69.344 156.431 69.824 155.279 70.08C154.127 70.336 153.007 70.464 151.919 70.464C150.831 70.464 149.711 70.336 148.559 70.08C147.407 69.824 146.351 69.344 145.391 68.64C144.431 67.872 143.631 66.816 142.991 65.472C142.351 64.128 142.031 62.368 142.031 60.192V47.232H147.983V60.864C147.983 61.312 147.983 61.824 147.983 62.4C148.047 62.912 148.207 63.424 148.463 63.936C148.719 64.384 149.103 64.8 149.615 65.184C150.191 65.504 150.959 65.664 151.919 65.664C152.879 65.664 153.615 65.504 154.127 65.184C154.703 64.8 155.119 64.384 155.375 63.936C155.631 63.424 155.759 62.912 155.759 62.4C155.823 61.824 155.855 61.312 155.855 60.864V38.496C155.855 37.536 155.599 36.768 155.087 36.192C154.575 35.616 153.807 35.328 152.783 35.328C152.079 35.328 151.247 35.232 150.287 35.04C149.327 34.784 148.431 34.368 147.599 33.792C146.767 33.216 146.063 32.448 145.487 31.488C144.911 30.528 144.623 29.28 144.623 27.744H149.711C149.711 28.448 149.871 29.088 150.191 29.664C150.575 30.24 151.439 30.528 152.783 30.528Z" fill="black"/>
<path d="M177.841 20.064V6.816C177.841 4.96 178.513 3.36 179.857 2.016C181.201 0.672001 182.801 0 184.657 0C186.705 0 188.401 0.736 189.745 2.208C191.089 0.736 192.785 0 194.833 0C196.689 0 198.289 0.672001 199.633 2.016C200.977 3.36 201.649 4.96 201.649 6.816V60C201.649 63.136 200.881 65.664 199.345 67.584C197.809 69.504 195.281 70.464 191.761 70.464C188.241 70.464 185.713 69.504 184.177 67.584C182.641 65.664 181.873 63.136 181.873 60V35.52C181.873 32.576 182.545 30.464 183.889 29.184C185.297 27.84 187.121 27.168 189.361 27.168C190.641 27.168 191.793 27.424 192.817 27.936C193.841 28.384 194.801 28.96 195.697 29.664V6.24C195.697 5.856 195.537 5.536 195.217 5.28C194.961 4.96 194.641 4.8 194.257 4.8C193.809 4.8 193.425 4.96 193.105 5.28C192.849 5.536 192.721 5.856 192.721 6.24V14.688H186.769V6.24C186.769 5.856 186.609 5.536 186.289 5.28C186.033 4.96 185.713 4.8 185.329 4.8C184.881 4.8 184.497 4.96 184.177 5.28C183.921 5.536 183.793 5.856 183.793 6.24V20.064H177.841ZM195.697 36.096C195.697 34.944 195.313 33.984 194.545 33.216C193.777 32.384 192.849 31.968 191.761 31.968C190.673 31.968 189.745 32.384 188.977 33.216C188.209 33.984 187.825 34.944 187.825 36.096V61.536C187.825 62.688 188.209 63.68 188.977 64.512C189.745 65.28 190.673 65.664 191.761 65.664C192.849 65.664 193.777 65.28 194.545 64.512C195.313 63.68 195.697 62.688 195.697 61.536V36.096Z" fill="black"/>
<path d="M233.456 27.168C234.544 27.168 235.6 27.296 236.624 27.552C237.712 27.808 238.672 28.32 239.504 29.088C240.4 29.792 241.104 30.816 241.615 32.16C242.128 33.504 242.383 35.264 242.383 37.44V69.888H236.432V36.768C236.432 36.32 236.399 35.84 236.335 35.328C236.335 34.752 236.208 34.24 235.952 33.792C235.696 33.28 235.28 32.864 234.704 32.544C234.192 32.16 233.456 31.968 232.495 31.968C231.535 31.968 230.768 32.16 230.191 32.544C229.68 32.864 229.296 33.28 229.04 33.792C228.784 34.24 228.623 34.752 228.559 35.328C228.559 35.84 228.559 36.32 228.559 36.768V56.832H222.512V36.096C222.512 34.944 222.128 33.984 221.359 33.216C220.591 32.384 219.663 31.968 218.576 31.968C217.488 31.968 216.56 32.352 215.792 33.12C215.088 33.888 214.703 34.816 214.639 35.904V69.888H208.688V16.896C208.688 14.976 209.008 13.408 209.648 12.192C210.288 10.976 211.087 10.016 212.048 9.312C213.072 8.608 214.16 8.128 215.311 7.872C216.463 7.616 217.551 7.488 218.576 7.488H226.447C227.408 7.488 228.144 7.328 228.656 7.008C229.232 6.624 229.648 6.208 229.904 5.76C230.16 5.248 230.288 4.736 230.288 4.224C230.352 3.648 230.383 3.136 230.383 2.688V0.575998H236.335V2.016C236.335 4.192 236.016 5.952 235.376 7.296C234.736 8.64 233.936 9.696 232.975 10.464C232.016 11.168 230.96 11.648 229.807 11.904C228.655 12.16 227.535 12.288 226.447 12.288H218.576C217.615 12.288 216.848 12.48 216.271 12.864C215.76 13.184 215.376 13.6 215.12 14.112C214.864 14.56 214.703 15.072 214.639 15.648C214.639 16.16 214.639 16.64 214.639 17.088V29.664C215.535 28.96 216.495 28.384 217.52 27.936C218.544 27.424 219.695 27.168 220.975 27.168C223.599 27.168 225.36 28.128 226.256 30.048C226.768 29.344 227.568 28.704 228.656 28.128C229.743 27.488 231.344 27.168 233.456 27.168Z" fill="black"/>
<path d="M272.268 27.168C273.356 27.168 274.412 27.296 275.436 27.552C276.524 27.808 277.484 28.32 278.316 29.088C279.212 29.792 279.916 30.816 280.428 32.16C280.94 33.504 281.196 35.264 281.196 37.44V69.888H275.244V36.768C275.244 36.32 275.212 35.84 275.148 35.328C275.148 34.752 275.02 34.24 274.764 33.792C274.508 33.28 274.092 32.864 273.516 32.544C273.004 32.16 272.268 31.968 271.308 31.968C270.348 31.968 269.58 32.16 269.004 32.544C268.492 32.864 268.108 33.28 267.852 33.792C267.596 34.24 267.436 34.752 267.372 35.328C267.372 35.84 267.372 36.32 267.372 36.768V56.832H261.324V36.768C261.324 36.32 261.292 35.84 261.228 35.328C261.228 34.752 261.1 34.24 260.844 33.792C260.588 33.28 260.172 32.864 259.596 32.544C259.084 32.16 258.348 31.968 257.388 31.968C256.428 31.968 255.66 32.16 255.084 32.544C254.572 32.864 254.188 33.28 253.932 33.792C253.676 34.24 253.516 34.752 253.452 35.328C253.452 35.84 253.452 36.32 253.452 36.768V69.888H247.5V37.44C247.5 35.264 247.756 33.504 248.268 32.16C248.78 30.816 249.452 29.792 250.284 29.088C251.18 28.32 252.14 27.808 253.164 27.552C254.252 27.296 255.34 27.168 256.428 27.168C258.22 27.168 259.628 27.424 260.652 27.936C261.74 28.384 262.54 28.896 263.052 29.472C263.692 30.176 264.108 30.912 264.3 31.68C264.492 30.912 264.908 30.176 265.548 29.472C266.06 28.896 266.828 28.384 267.852 27.936C268.94 27.424 270.412 27.168 272.268 27.168Z" fill="black"/>
<path d="M293.95 20.064H287.998V10.464C287.998 7.328 288.766 4.8 290.302 2.88C291.838 0.960001 294.366 0 297.886 0C301.406 0 303.934 0.960001 305.47 2.88C307.006 4.8 307.774 7.328 307.774 10.464V60C307.774 63.136 307.006 65.664 305.47 67.584C303.934 69.504 301.406 70.464 297.886 70.464C294.366 70.464 291.838 69.504 290.302 67.584C288.766 65.664 287.998 63.136 287.998 60V35.52C287.998 32.576 288.67 30.464 290.014 29.184C291.422 27.84 293.246 27.168 295.486 27.168C296.766 27.168 297.918 27.424 298.942 27.936C299.966 28.384 300.926 28.96 301.822 29.664V8.928C301.822 7.776 301.438 6.816 300.67 6.048C299.902 5.216 298.942 4.8 297.79 4.8C296.574 4.8 295.614 5.216 294.91 6.048C294.27 6.816 293.95 7.776 293.95 8.928V20.064ZM293.95 61.536C293.95 62.688 294.334 63.68 295.102 64.512C295.87 65.28 296.798 65.664 297.886 65.664C298.974 65.664 299.902 65.28 300.67 64.512C301.438 63.68 301.822 62.688 301.822 61.536V36.096C301.822 34.944 301.438 33.984 300.67 33.216C299.902 32.384 298.974 31.968 297.886 31.968C296.798 31.968 295.87 32.384 295.102 33.216C294.334 33.984 293.95 34.944 293.95 36.096V61.536Z" fill="black"/>
<path d="M325.377 30.528C331.393 30.528 334.401 33.536 334.401 39.552V60.192C334.401 62.368 334.081 64.128 333.441 65.472C332.801 66.816 332.001 67.872 331.041 68.64C330.081 69.344 329.025 69.824 327.873 70.08C326.721 70.336 325.601 70.464 324.513 70.464C323.425 70.464 322.305 70.336 321.153 70.08C320.001 69.824 318.945 69.344 317.985 68.64C317.025 67.872 316.225 66.816 315.585 65.472C314.945 64.128 314.625 62.368 314.625 60.192V47.232H320.577V60.864C320.577 61.312 320.577 61.824 320.577 62.4C320.641 62.912 320.801 63.424 321.057 63.936C321.313 64.384 321.697 64.8 322.209 65.184C322.785 65.504 323.553 65.664 324.513 65.664C325.473 65.664 326.209 65.504 326.721 65.184C327.297 64.8 327.713 64.384 327.969 63.936C328.225 63.424 328.353 62.912 328.353 62.4C328.417 61.824 328.449 61.312 328.449 60.864V38.496C328.449 37.536 328.193 36.768 327.681 36.192C327.169 35.616 326.401 35.328 325.377 35.328C324.673 35.328 323.841 35.232 322.881 35.04C321.921 34.784 321.025 34.368 320.193 33.792C319.361 33.216 318.657 32.448 318.081 31.488C317.505 30.528 317.217 29.28 317.217 27.744H322.305C322.305 28.448 322.465 29.088 322.785 29.664C323.169 30.24 324.033 30.528 325.377 30.528Z" fill="black"/>
</svg>
