<svg width="247" height="98" viewBox="0 0 247 98" fill="none" xmlns="http://www.w3.org/2000/svg">
<path d="M12.864 26.88C14.656 27.2 16.256 28.096 17.664 29.568C19.072 31.04 19.776 33.472 19.776 36.864V59.616C19.776 61.792 19.456 63.552 18.816 64.896C18.176 66.24 17.376 67.296 16.416 68.064C15.456 68.768 14.4 69.248 13.248 69.504C12.096 69.76 10.976 69.888 9.888 69.888C8.8 69.888 7.68 69.76 6.528 69.504C5.376 69.248 4.32 68.768 3.36 68.064C2.4 67.296 1.6 66.24 0.96 64.896C0.32 63.552 0 61.792 0 59.616V36.864C0 33.472 0.704 31.04 2.112 29.568C3.52 28.096 5.12 27.2 6.912 26.88V11.136C6.016 10.944 5.184 10.656 4.416 10.272C3.648 9.888 2.944 9.312 2.304 8.544C1.664 7.776 1.152 6.816 0.768 5.664C0.448 4.512 0.288 3.104 0.288 1.44V0H6.24V2.112C6.24 2.56 6.24 3.072 6.24 3.648C6.304 4.16 6.464 4.672 6.72 5.184C6.976 5.632 7.36 6.048 7.872 6.432C8.448 6.752 9.216 6.912 10.176 6.912H12.864V26.88ZM13.824 36.192C13.824 35.744 13.792 35.264 13.728 34.752C13.728 34.176 13.6 33.664 13.344 33.216C13.088 32.704 12.672 32.288 12.096 31.968C11.584 31.584 10.848 31.392 9.888 31.392C8.928 31.392 8.16 31.584 7.584 31.968C7.072 32.288 6.688 32.704 6.432 33.216C6.176 33.664 6.016 34.176 5.952 34.752C5.952 35.264 5.952 35.744 5.952 36.192V60.288C5.952 60.736 5.952 61.248 5.952 61.824C6.016 62.336 6.176 62.848 6.432 63.36C6.688 63.808 7.072 64.224 7.584 64.608C8.16 64.928 8.928 65.088 9.888 65.088C10.848 65.088 11.584 64.928 12.096 64.608C12.672 64.224 13.088 63.808 13.344 63.36C13.6 62.848 13.728 62.336 13.728 61.824C13.792 61.248 13.824 60.736 13.824 60.288V36.192Z" fill="black"/>
<path d="M33.3428 69.312H27.3908V36.864C27.3908 34.688 27.7107 32.928 28.3507 31.584C28.9907 30.24 29.7907 29.216 30.7507 28.512C31.7107 27.744 32.7668 27.232 33.9188 26.976C35.0708 26.72 36.1908 26.592 37.2788 26.592C38.3668 26.592 39.4868 26.72 40.6388 26.976C41.7908 27.232 42.8468 27.744 43.8068 28.512C44.7668 29.216 45.5667 30.24 46.2067 31.584C46.8467 32.928 47.1668 34.688 47.1668 36.864V69.312H41.2148V36.192C41.2148 35.744 41.1828 35.264 41.1188 34.752C41.1188 34.176 40.9908 33.664 40.7348 33.216C40.4788 32.704 40.0628 32.288 39.4868 31.968C38.9748 31.584 38.2388 31.392 37.2788 31.392C36.3188 31.392 35.5508 31.584 34.9748 31.968C34.4628 32.288 34.0788 32.704 33.8228 33.216C33.5668 33.664 33.4068 34.176 33.3428 34.752C33.3428 35.264 33.3428 35.744 33.3428 36.192V69.312Z" fill="black"/>
<path d="M93.1702 26.592C94.2582 26.592 95.3142 26.72 96.3382 26.976C97.4263 27.232 98.3863 27.744 99.2183 28.512C100.114 29.216 100.818 30.24 101.33 31.584C101.842 32.928 102.098 34.688 102.098 36.864V69.312H96.1462V36.192C96.1462 35.744 96.1143 35.264 96.0503 34.752C96.0503 34.176 95.9223 33.664 95.6663 33.216C95.4103 32.704 94.9942 32.288 94.4183 31.968C93.9062 31.584 93.1702 31.392 92.2103 31.392C91.2502 31.392 90.4823 31.584 89.9062 31.968C89.3943 32.288 89.0103 32.704 88.7542 33.216C88.4982 33.664 88.3383 34.176 88.2743 34.752C88.2743 35.264 88.2743 35.744 88.2743 36.192V56.256H82.2262V36.192C82.2262 35.744 82.1943 35.264 82.1302 34.752C82.1302 34.176 82.0023 33.664 81.7463 33.216C81.4903 32.704 81.0743 32.288 80.4983 31.968C79.9863 31.584 79.2503 31.392 78.2903 31.392C77.3303 31.392 76.5943 31.584 76.0823 31.968C75.5703 32.288 75.1863 32.704 74.9303 33.216C74.6743 33.664 74.5142 34.176 74.4502 34.752C74.4502 35.264 74.4502 35.744 74.4502 36.192V56.256H68.4023V36.192C68.4023 35.744 68.3703 35.264 68.3063 34.752C68.3063 34.176 68.1782 33.664 67.9222 33.216C67.6662 32.704 67.2502 32.288 66.6742 31.968C66.1622 31.584 65.4262 31.392 64.4662 31.392C63.5062 31.392 62.7383 31.584 62.1623 31.968C61.6503 32.288 61.2663 32.704 61.0103 33.216C60.7543 33.664 60.5943 34.176 60.5303 34.752C60.5303 35.264 60.5303 35.744 60.5303 36.192V79.872C60.5303 80.32 60.5303 80.8 60.5303 81.312C60.5943 81.888 60.7543 82.4 61.0103 82.848C61.2663 83.36 61.6503 83.776 62.1623 84.096C62.7383 84.48 63.5062 84.672 64.4662 84.672H86.1623C87.2503 84.672 88.3702 84.8 89.5222 85.056C90.6742 85.312 91.7303 85.792 92.6903 86.496C93.6503 87.264 94.4503 88.32 95.0903 89.664C95.7303 91.008 96.0503 92.768 96.0503 94.944V96.48H90.0983V94.272C90.0983 93.824 90.0662 93.312 90.0023 92.736C90.0023 92.224 89.8743 91.712 89.6183 91.2C89.3623 90.752 88.9463 90.336 88.3703 89.952C87.8583 89.632 87.1223 89.472 86.1623 89.472H64.4662C63.3782 89.472 62.2583 89.344 61.1063 89.088C59.9543 88.832 58.8983 88.352 57.9383 87.648C56.9783 87.008 56.1782 86.08 55.5382 84.864C54.8982 83.648 54.5783 82.08 54.5783 80.16V36.864C54.5783 34.688 54.8342 32.928 55.3462 31.584C55.8582 30.24 56.5303 29.216 57.3623 28.512C58.2583 27.744 59.2182 27.232 60.2422 26.976C61.3302 26.72 62.4183 26.592 63.5063 26.592C65.2983 26.592 66.7062 26.848 67.7302 27.36C68.8182 27.808 69.6182 28.32 70.1302 28.896C70.7702 29.6 71.1862 30.336 71.3783 31.104C71.6343 30.336 72.0503 29.6 72.6263 28.896C73.1383 28.32 73.8422 27.808 74.7383 27.36C75.6343 26.848 76.8183 26.592 78.2903 26.592C79.7623 26.592 80.9463 26.848 81.8423 27.36C82.8023 27.808 83.5383 28.32 84.0503 28.896C84.6263 29.6 85.0422 30.336 85.2982 31.104C85.4902 30.336 85.9062 29.6 86.5462 28.896C87.0582 28.32 87.8263 27.808 88.8503 27.36C89.8743 26.848 91.3142 26.592 93.1702 26.592Z" fill="black"/>
<path d="M118.729 26.592C119.817 26.592 120.938 26.72 122.09 26.976C123.242 27.232 124.297 27.744 125.257 28.512C126.217 29.216 127.018 30.24 127.658 31.584C128.298 32.928 128.618 34.688 128.618 36.864V86.784C128.618 88.96 128.298 90.72 127.658 92.064C127.018 93.408 126.217 94.432 125.257 95.136C124.297 95.904 123.242 96.416 122.09 96.672C120.938 96.928 119.817 97.056 118.729 97.056C117.641 97.056 116.521 96.928 115.369 96.672C114.217 96.416 113.161 95.904 112.201 95.136C111.242 94.432 110.441 93.408 109.801 92.064C109.161 90.72 108.841 88.96 108.841 86.784V69.888H114.794V87.456C114.794 87.904 114.794 88.384 114.794 88.896C114.858 89.472 115.017 89.984 115.273 90.432C115.529 90.944 115.913 91.36 116.425 91.68C117.001 92.064 117.769 92.256 118.729 92.256C119.689 92.256 120.425 92.064 120.938 91.68C121.513 91.36 121.93 90.944 122.186 90.432C122.442 89.984 122.57 89.472 122.57 88.896C122.634 88.384 122.665 87.904 122.665 87.456V36.192C122.665 35.744 122.634 35.264 122.57 34.752C122.57 34.176 122.442 33.664 122.186 33.216C121.93 32.704 121.513 32.288 120.938 31.968C120.425 31.584 119.689 31.392 118.729 31.392C117.769 31.392 117.001 31.584 116.425 31.968C115.913 32.288 115.529 32.704 115.273 33.216C115.017 33.664 114.858 34.176 114.794 34.752C114.794 35.264 114.794 35.744 114.794 36.192V45.312H108.841V36.864C108.841 34.688 109.161 32.928 109.801 31.584C110.441 30.24 111.242 29.216 112.201 28.512C113.161 27.744 114.217 27.232 115.369 26.976C116.521 26.72 117.641 26.592 118.729 26.592Z" fill="black"/>
<path d="M160.424 26.592C161.512 26.592 162.568 26.72 163.592 26.976C164.68 27.232 165.64 27.744 166.472 28.512C167.368 29.216 168.072 30.24 168.584 31.584C169.096 32.928 169.352 34.688 169.352 36.864V69.312H163.4V36.192C163.4 35.744 163.368 35.264 163.304 34.752C163.304 34.176 163.176 33.664 162.92 33.216C162.664 32.704 162.248 32.288 161.672 31.968C161.16 31.584 160.424 31.392 159.464 31.392C158.504 31.392 157.736 31.584 157.16 31.968C156.648 32.288 156.264 32.704 156.008 33.216C155.752 33.664 155.592 34.176 155.528 34.752C155.528 35.264 155.528 35.744 155.528 36.192V59.616C155.528 61.792 155.208 63.552 154.568 64.896C153.928 66.24 153.128 67.296 152.168 68.064C151.208 68.768 150.152 69.248 149 69.504C147.848 69.76 146.728 69.888 145.64 69.888C144.552 69.888 143.432 69.76 142.28 69.504C141.128 69.248 140.072 68.768 139.112 68.064C138.152 67.296 137.352 66.24 136.712 64.896C136.072 63.552 135.752 61.792 135.752 59.616V36.864C135.752 34.688 136.008 32.928 136.52 31.584C137.032 30.24 137.704 29.216 138.536 28.512C139.432 27.744 140.392 27.232 141.416 26.976C142.504 26.72 143.592 26.592 144.68 26.592C146.472 26.592 147.88 26.848 148.904 27.36C149.992 27.808 150.792 28.32 151.304 28.896C151.944 29.6 152.36 30.336 152.552 31.104C152.744 30.336 153.16 29.6 153.8 28.896C154.312 28.32 155.08 27.808 156.104 27.36C157.192 26.848 158.632 26.592 160.424 26.592ZM149.576 36.192C149.576 35.744 149.544 35.264 149.48 34.752C149.48 34.176 149.352 33.664 149.096 33.216C148.84 32.704 148.424 32.288 147.848 31.968C147.336 31.584 146.6 31.392 145.64 31.392C144.68 31.392 143.912 31.584 143.336 31.968C142.824 32.288 142.44 32.704 142.184 33.216C141.928 33.664 141.768 34.176 141.704 34.752C141.704 35.264 141.704 35.744 141.704 36.192V60.288C141.704 60.736 141.704 61.248 141.704 61.824C141.768 62.336 141.928 62.848 142.184 63.36C142.44 63.808 142.824 64.224 143.336 64.608C143.912 64.928 144.68 65.088 145.64 65.088C146.6 65.088 147.336 64.928 147.848 64.608C148.424 64.224 148.84 63.808 149.096 63.36C149.352 62.848 149.48 62.336 149.48 61.824C149.544 61.248 149.576 60.736 149.576 60.288V36.192Z" fill="black"/>
<path d="M182.573 26.592C183.661 26.592 184.781 26.72 185.933 26.976C187.085 27.232 188.141 27.744 189.101 28.512C190.061 29.216 190.861 30.24 191.501 31.584C192.141 32.928 192.461 34.688 192.461 36.864V86.784C192.461 88.96 192.141 90.72 191.501 92.064C190.861 93.408 190.061 94.432 189.101 95.136C188.141 95.904 187.085 96.416 185.933 96.672C184.781 96.928 183.661 97.056 182.573 97.056C181.485 97.056 180.365 96.928 179.213 96.672C178.061 96.416 177.005 95.904 176.045 95.136C175.085 94.432 174.285 93.408 173.645 92.064C173.005 90.72 172.685 88.96 172.685 86.784V69.888H178.637V87.456C178.637 87.904 178.637 88.384 178.637 88.896C178.701 89.472 178.861 89.984 179.117 90.432C179.373 90.944 179.757 91.36 180.269 91.68C180.845 92.064 181.613 92.256 182.573 92.256C183.533 92.256 184.269 92.064 184.781 91.68C185.357 91.36 185.773 90.944 186.029 90.432C186.285 89.984 186.413 89.472 186.413 88.896C186.477 88.384 186.509 87.904 186.509 87.456V36.192C186.509 35.744 186.477 35.264 186.413 34.752C186.413 34.176 186.285 33.664 186.029 33.216C185.773 32.704 185.357 32.288 184.781 31.968C184.269 31.584 183.533 31.392 182.573 31.392C181.613 31.392 180.845 31.584 180.269 31.968C179.757 32.288 179.373 32.704 179.117 33.216C178.861 33.664 178.701 34.176 178.637 34.752C178.637 35.264 178.637 35.744 178.637 36.192V45.312H172.685V36.864C172.685 34.688 173.005 32.928 173.645 31.584C174.285 30.24 175.085 29.216 176.045 28.512C177.005 27.744 178.061 27.232 179.213 26.976C180.365 26.72 181.485 26.592 182.573 26.592Z" fill="black"/>
<path d="M212.364 26.88C214.156 27.2 215.756 28.096 217.164 29.568C218.572 31.04 219.276 33.472 219.276 36.864V59.616C219.276 61.792 218.956 63.552 218.316 64.896C217.676 66.24 216.876 67.296 215.916 68.064C214.956 68.768 213.9 69.248 212.748 69.504C211.596 69.76 210.476 69.888 209.388 69.888C208.3 69.888 207.18 69.76 206.028 69.504C204.876 69.248 203.82 68.768 202.86 68.064C201.9 67.296 201.1 66.24 200.46 64.896C199.82 63.552 199.5 61.792 199.5 59.616V36.864C199.5 33.472 200.204 31.04 201.612 29.568C203.02 28.096 204.62 27.2 206.412 26.88V11.136C205.516 10.944 204.684 10.656 203.916 10.272C203.148 9.888 202.444 9.312 201.804 8.544C201.164 7.776 200.652 6.816 200.268 5.664C199.948 4.512 199.788 3.104 199.788 1.44V0H205.74V2.112C205.74 2.56 205.74 3.072 205.74 3.648C205.804 4.16 205.964 4.672 206.22 5.184C206.476 5.632 206.86 6.048 207.372 6.432C207.948 6.752 208.716 6.912 209.676 6.912H212.364V26.88ZM213.324 36.192C213.324 35.744 213.292 35.264 213.228 34.752C213.228 34.176 213.1 33.664 212.844 33.216C212.588 32.704 212.172 32.288 211.596 31.968C211.084 31.584 210.348 31.392 209.388 31.392C208.428 31.392 207.66 31.584 207.084 31.968C206.572 32.288 206.188 32.704 205.932 33.216C205.676 33.664 205.516 34.176 205.452 34.752C205.452 35.264 205.452 35.744 205.452 36.192V60.288C205.452 60.736 205.452 61.248 205.452 61.824C205.516 62.336 205.676 62.848 205.932 63.36C206.188 63.808 206.572 64.224 207.084 64.608C207.66 64.928 208.428 65.088 209.388 65.088C210.348 65.088 211.084 64.928 211.596 64.608C212.172 64.224 212.588 63.808 212.844 63.36C213.1 62.848 213.228 62.336 213.228 61.824C213.292 61.248 213.324 60.736 213.324 60.288V36.192Z" fill="black"/>
<path d="M232.843 69.312H226.891V36.864C226.891 34.688 227.211 32.928 227.851 31.584C228.491 30.24 229.291 29.216 230.251 28.512C231.211 27.744 232.267 27.232 233.419 26.976C234.571 26.72 235.691 26.592 236.779 26.592C237.867 26.592 238.987 26.72 240.139 26.976C241.291 27.232 242.347 27.744 243.307 28.512C244.267 29.216 245.067 30.24 245.707 31.584C246.347 32.928 246.667 34.688 246.667 36.864V69.312H240.715V36.192C240.715 35.744 240.683 35.264 240.619 34.752C240.619 34.176 240.491 33.664 240.235 33.216C239.979 32.704 239.563 32.288 238.987 31.968C238.475 31.584 237.739 31.392 236.779 31.392C235.819 31.392 235.051 31.584 234.475 31.968C233.963 32.288 233.579 32.704 233.323 33.216C233.067 33.664 232.907 34.176 232.843 34.752C232.843 35.264 232.843 35.744 232.843 36.192V69.312Z" fill="black"/>
</svg>
