<svg width="294" height="127" viewBox="0 0 294 127" fill="none" xmlns="http://www.w3.org/2000/svg">
<path d="M0 0H294V127H0V0Z" fill="black"/>
<path d="M2 2H288V120H2V2Z" fill="white"/>
<path d="M159 63H267L268 64L267 65H159V63Z" fill="black"/>
<path d="M257 53H260L271 64H268L257 53Z" fill="black"/>
<path d="M257 75H260L271 64H268L257 75Z" fill="black"/>
<path d="M29.568 41.92C29.568 42.56 29.52 43.088 29.424 43.504C29.328 43.92 29.168 44.272 28.944 44.56C28.752 44.816 28.496 45.04 28.176 45.232C27.856 45.392 27.488 45.568 27.072 45.76V45.856C27.936 46.016 28.56 46.336 28.944 46.816C29.36 47.264 29.568 48.048 29.568 49.168V60.64C29.568 62.208 29.184 63.472 28.416 64.432C27.648 65.392 26.384 65.872 24.624 65.872C22.864 65.872 21.6 65.392 20.832 64.432C20.064 63.472 19.68 62.208 19.68 60.64V52.288H22.656V61.312C22.656 61.888 22.832 62.384 23.184 62.8C23.536 63.248 24.016 63.472 24.624 63.472C25.232 63.472 25.712 63.248 26.064 62.8C26.416 62.384 26.592 61.888 26.592 61.312V49.36C26.592 48.784 26.416 48.288 26.064 47.872C25.712 47.424 25.232 47.2 24.624 47.2H22.848V44.512H24.624C25.232 44.512 25.712 44.304 26.064 43.888C26.416 43.44 26.592 42.928 26.592 42.352V35.2C26.592 34.624 26.416 34.128 26.064 33.712C25.712 33.264 25.232 33.04 24.624 33.04V30.64C26.384 30.64 27.648 31.12 28.416 32.08C29.184 33.04 29.568 34.304 29.568 35.872V41.92Z" fill="black"/>
<path d="M36.3994 52H33.4234V35.776C33.4234 34.688 33.5834 33.808 33.9034 33.136C34.2234 32.464 34.6234 31.952 35.1034 31.6C35.5834 31.216 36.1114 30.96 36.6874 30.832C37.2634 30.704 37.8234 30.64 38.3674 30.64C38.9114 30.64 39.4714 30.704 40.0474 30.832C40.6234 30.96 41.1514 31.216 41.6314 31.6C42.1114 31.952 42.5114 32.464 42.8314 33.136C43.1514 33.808 43.3114 34.688 43.3114 35.776V52H40.3354V35.44C40.3354 35.216 40.3194 34.976 40.2874 34.72C40.2874 34.432 40.2234 34.176 40.0954 33.952C39.9674 33.696 39.7594 33.488 39.4714 33.328C39.2154 33.136 38.8474 33.04 38.3674 33.04C37.8874 33.04 37.5034 33.136 37.2154 33.328C36.9594 33.488 36.7674 33.696 36.6394 33.952C36.5114 34.176 36.4314 34.432 36.3994 34.72C36.3994 34.976 36.3994 35.216 36.3994 35.44V52Z" fill="black"/>
<path d="M59.0651 30.64C59.6091 30.64 60.1371 30.704 60.6491 30.832C61.1931 30.96 61.6731 31.216 62.0891 31.6C62.5371 31.952 62.8891 32.464 63.1451 33.136C63.4011 33.808 63.5291 34.688 63.5291 35.776V52H60.5531V35.44C60.5531 35.216 60.5371 34.976 60.5051 34.72C60.5051 34.432 60.4411 34.176 60.3131 33.952C60.1851 33.696 59.9771 33.488 59.6891 33.328C59.4331 33.136 59.0651 33.04 58.5851 33.04C58.1051 33.04 57.7211 33.136 57.4331 33.328C57.1771 33.488 56.9851 33.696 56.8571 33.952C56.7291 34.176 56.6491 34.432 56.6171 34.72C56.6171 34.976 56.6171 35.216 56.6171 35.44V47.152C56.6171 48.24 56.4571 49.12 56.1371 49.792C55.8171 50.464 55.4171 50.992 54.9371 51.376C54.4571 51.728 53.9291 51.968 53.3531 52.096C52.7771 52.224 52.2171 52.288 51.6731 52.288C51.1291 52.288 50.5691 52.224 49.9931 52.096C49.4171 51.968 48.8891 51.728 48.4091 51.376C47.9291 50.992 47.5291 50.464 47.2091 49.792C46.8891 49.12 46.7291 48.24 46.7291 47.152V35.776C46.7291 34.688 46.8571 33.808 47.1131 33.136C47.3691 32.464 47.7051 31.952 48.1211 31.6C48.5691 31.216 49.0491 30.96 49.5611 30.832C50.1051 30.704 50.6491 30.64 51.1931 30.64C52.0891 30.64 52.7931 30.768 53.3051 31.024C53.8491 31.248 54.2491 31.504 54.5051 31.792C54.8251 32.144 55.0331 32.512 55.1291 32.896C55.2251 32.512 55.4331 32.144 55.7531 31.792C56.0091 31.504 56.3931 31.248 56.9051 31.024C57.4491 30.768 58.1691 30.64 59.0651 30.64ZM53.6411 35.44C53.6411 35.216 53.6251 34.976 53.5931 34.72C53.5931 34.432 53.5291 34.176 53.4011 33.952C53.2731 33.696 53.0651 33.488 52.7771 33.328C52.5211 33.136 52.1531 33.04 51.6731 33.04C51.1931 33.04 50.8091 33.136 50.5211 33.328C50.2651 33.488 50.0731 33.696 49.9451 33.952C49.8171 34.176 49.7371 34.432 49.7051 34.72C49.7051 34.976 49.7051 35.216 49.7051 35.44V47.488C49.7051 47.712 49.7051 47.968 49.7051 48.256C49.7371 48.512 49.8171 48.768 49.9451 49.024C50.0731 49.248 50.2651 49.456 50.5211 49.648C50.8091 49.808 51.1931 49.888 51.6731 49.888C52.1531 49.888 52.5211 49.808 52.7771 49.648C53.0651 49.456 53.2731 49.248 53.4011 49.024C53.5291 48.768 53.5931 48.512 53.5931 48.256C53.6251 47.968 53.6411 47.712 53.6411 47.488V35.44Z" fill="black"/>
<path d="M69.9529 17.344V31.888C70.4009 31.536 70.8809 31.248 71.3929 31.024C71.9049 30.768 72.4809 30.64 73.1209 30.64C74.2409 30.64 75.1369 30.976 75.8089 31.648C76.5129 32.288 76.8649 33.344 76.8649 34.816V47.056C76.8649 48.624 76.4809 49.888 75.7129 50.848C74.9449 51.808 73.6809 52.288 71.9209 52.288C70.1609 52.288 68.8969 51.808 68.1289 50.848C67.3609 49.888 66.9769 48.624 66.9769 47.056V17.344H69.9529ZM69.9529 47.824C69.9529 48.4 70.1449 48.896 70.5289 49.312C70.9129 49.696 71.3769 49.888 71.9209 49.888C72.4649 49.888 72.9289 49.696 73.3129 49.312C73.6969 48.896 73.8889 48.4 73.8889 47.824V35.104C73.8889 34.528 73.6969 34.048 73.3129 33.664C72.9289 33.248 72.4649 33.04 71.9209 33.04C71.3769 33.04 70.9129 33.248 70.5289 33.664C70.1449 34.048 69.9529 34.528 69.9529 35.104V47.824Z" fill="black"/>
<path d="M83.4585 44.512H85.2345C85.8425 44.512 86.3225 44.304 86.6745 43.888C87.0265 43.44 87.2025 42.928 87.2025 42.352V35.2C87.2025 34.624 87.0265 34.128 86.6745 33.712C86.3225 33.264 85.8425 33.04 85.2345 33.04C84.6265 33.04 84.1465 33.264 83.7945 33.712C83.4425 34.128 83.2665 34.624 83.2665 35.2V40H80.2905V35.872C80.2905 34.304 80.6745 33.04 81.4425 32.08C82.2105 31.12 83.4745 30.64 85.2345 30.64C86.9945 30.64 88.2585 31.12 89.0265 32.08C89.7945 33.04 90.1785 34.304 90.1785 35.872V41.92C90.1785 42.56 90.1305 43.088 90.0345 43.504C89.9385 43.92 89.7785 44.272 89.5545 44.56C89.3625 44.816 89.1065 45.04 88.7865 45.232C88.4665 45.392 88.0985 45.568 87.6825 45.76V45.856C88.5465 46.016 89.1705 46.336 89.5545 46.816C89.9705 47.264 90.1785 48.048 90.1785 49.168V60.64C90.1785 62.208 89.7945 63.472 89.0265 64.432C88.2585 65.392 86.9945 65.872 85.2345 65.872C83.4745 65.872 82.2105 65.392 81.4425 64.432C80.6745 63.472 80.2905 62.208 80.2905 60.64V52.288H83.2665V61.312C83.2665 61.888 83.4425 62.384 83.7945 62.8C84.1465 63.248 84.6265 63.472 85.2345 63.472C85.8425 63.472 86.3225 63.248 86.6745 62.8C87.0265 62.384 87.2025 61.888 87.2025 61.312V49.36C87.2025 48.784 87.0265 48.288 86.6745 47.872C86.3225 47.424 85.8425 47.2 85.2345 47.2H83.4585V44.512Z" fill="black"/>
<path d="M95.9775 52H93.0015V35.776C93.0015 34.688 93.1615 33.808 93.4815 33.136C93.8015 32.464 94.2015 31.952 94.6815 31.6C95.1615 31.216 95.6895 30.96 96.2655 30.832C96.8415 30.704 97.4015 30.64 97.9455 30.64C98.4895 30.64 99.0495 30.704 99.6255 30.832C100.202 30.96 100.729 31.216 101.21 31.6C101.69 31.952 102.09 32.464 102.41 33.136C102.729 33.808 102.89 34.688 102.89 35.776V52H99.9135V35.44C99.9135 35.216 99.8975 34.976 99.8655 34.72C99.8655 34.432 99.8015 34.176 99.6735 33.952C99.5455 33.696 99.3375 33.488 99.0495 33.328C98.7935 33.136 98.4255 33.04 97.9455 33.04C97.4655 33.04 97.0815 33.136 96.7935 33.328C96.5375 33.488 96.3455 33.696 96.2175 33.952C96.0895 34.176 96.0095 34.432 95.9775 34.72C95.9775 34.976 95.9775 35.216 95.9775 35.44V52Z" fill="black"/>
<path d="M116.147 30.928V47.152C116.147 48.24 115.987 49.12 115.667 49.792C115.347 50.464 114.947 50.992 114.467 51.376C113.987 51.728 113.459 51.968 112.883 52.096C112.307 52.224 111.747 52.288 111.203 52.288C110.659 52.288 110.099 52.224 109.523 52.096C108.947 51.968 108.419 51.728 107.939 51.376C107.459 50.992 107.059 50.464 106.739 49.792C106.419 49.12 106.259 48.24 106.259 47.152V17.344H109.235V47.488C109.235 47.712 109.235 47.968 109.235 48.256C109.267 48.512 109.347 48.768 109.475 49.024C109.603 49.248 109.795 49.456 110.051 49.648C110.339 49.808 110.723 49.888 111.203 49.888C111.683 49.888 112.051 49.808 112.307 49.648C112.595 49.456 112.803 49.248 112.931 49.024C113.059 48.768 113.123 48.512 113.123 48.256C113.155 47.968 113.171 47.712 113.171 47.488V30.928H116.147Z" fill="black"/>
<path d="M32.064 75.64C32.608 75.64 33.136 75.704 33.648 75.832C34.192 75.96 34.672 76.216 35.088 76.6C35.536 76.952 35.888 77.464 36.144 78.136C36.4 78.808 36.528 79.688 36.528 80.776V92.152C36.528 93.24 36.368 94.12 36.048 94.792C35.728 95.464 35.328 95.992 34.848 96.376C34.368 96.728 33.84 96.968 33.264 97.096C32.688 97.224 32.128 97.288 31.584 97.288C31.04 97.288 30.48 97.224 29.904 97.096C29.328 96.968 28.8 96.728 28.32 96.376C27.84 95.992 27.44 95.464 27.12 94.792C26.8 94.12 26.64 93.24 26.64 92.152V80.44C26.64 80.216 26.624 79.976 26.592 79.72C26.592 79.432 26.528 79.176 26.4 78.952C26.272 78.696 26.064 78.488 25.776 78.328C25.52 78.136 25.152 78.04 24.672 78.04C24.192 78.04 23.808 78.136 23.52 78.328C23.264 78.488 23.072 78.696 22.944 78.952C22.816 79.176 22.736 79.432 22.704 79.72C22.704 79.976 22.704 80.216 22.704 80.44V102.28C22.704 102.504 22.704 102.744 22.704 103C22.736 103.288 22.816 103.544 22.944 103.768C23.072 104.024 23.264 104.232 23.52 104.392C23.808 104.584 24.192 104.68 24.672 104.68H28.608C29.152 104.68 29.712 104.744 30.288 104.872C30.864 105 31.392 105.24 31.872 105.592C32.352 105.976 32.752 106.504 33.072 107.176C33.392 107.848 33.552 108.728 33.552 109.816V110.584H30.576V109.48C30.576 109.256 30.56 109 30.528 108.712C30.528 108.456 30.464 108.2 30.336 107.944C30.208 107.72 30 107.512 29.712 107.32C29.456 107.16 29.088 107.08 28.608 107.08H24.672C24.128 107.08 23.568 107.016 22.992 106.888C22.416 106.76 21.888 106.52 21.408 106.168C20.928 105.848 20.528 105.384 20.208 104.776C19.888 104.168 19.728 103.384 19.728 102.424V80.776C19.728 79.688 19.856 78.808 20.112 78.136C20.368 77.464 20.704 76.952 21.12 76.6C21.568 76.216 22.048 75.96 22.56 75.832C23.104 75.704 23.648 75.64 24.192 75.64C25.088 75.64 25.792 75.768 26.304 76.024C26.848 76.248 27.248 76.504 27.504 76.792C27.824 77.144 28.032 77.512 28.128 77.896C28.224 77.512 28.432 77.144 28.752 76.792C29.008 76.504 29.392 76.248 29.904 76.024C30.416 75.768 31.136 75.64 32.064 75.64ZM33.552 80.44C33.552 80.216 33.536 79.976 33.504 79.72C33.504 79.432 33.44 79.176 33.312 78.952C33.184 78.696 32.976 78.488 32.688 78.328C32.432 78.136 32.064 78.04 31.584 78.04C31.104 78.04 30.72 78.136 30.432 78.328C30.176 78.488 29.984 78.696 29.856 78.952C29.728 79.176 29.648 79.432 29.616 79.72C29.616 79.976 29.616 80.216 29.616 80.44V92.488C29.616 92.712 29.616 92.968 29.616 93.256C29.648 93.512 29.728 93.768 29.856 94.024C29.984 94.248 30.176 94.456 30.432 94.648C30.72 94.808 31.104 94.888 31.584 94.888C32.064 94.888 32.432 94.808 32.688 94.648C32.976 94.456 33.184 94.248 33.312 94.024C33.44 93.768 33.504 93.512 33.504 93.256C33.536 92.968 33.552 92.712 33.552 92.488V80.44Z" fill="black"/>
<path d="M45.354 77.32C48.362 77.32 49.866 78.824 49.866 81.832V92.152C49.866 93.24 49.706 94.12 49.386 94.792C49.066 95.464 48.666 95.992 48.186 96.376C47.706 96.728 47.178 96.968 46.602 97.096C46.026 97.224 45.466 97.288 44.922 97.288C44.378 97.288 43.818 97.224 43.242 97.096C42.666 96.968 42.138 96.728 41.658 96.376C41.178 95.992 40.778 95.464 40.458 94.792C40.138 94.12 39.978 93.24 39.978 92.152V85.672H42.954V92.488C42.954 92.712 42.954 92.968 42.954 93.256C42.986 93.512 43.066 93.768 43.194 94.024C43.322 94.248 43.514 94.456 43.77 94.648C44.058 94.808 44.442 94.888 44.922 94.888C45.402 94.888 45.77 94.808 46.026 94.648C46.314 94.456 46.522 94.248 46.65 94.024C46.778 93.768 46.842 93.512 46.842 93.256C46.874 92.968 46.89 92.712 46.89 92.488V81.304C46.89 80.824 46.762 80.44 46.506 80.152C46.25 79.864 45.866 79.72 45.354 79.72C45.002 79.72 44.586 79.672 44.106 79.576C43.626 79.448 43.178 79.24 42.762 78.952C42.346 78.664 41.994 78.28 41.706 77.8C41.418 77.32 41.274 76.696 41.274 75.928H43.818C43.818 76.28 43.898 76.6 44.058 76.888C44.25 77.176 44.682 77.32 45.354 77.32Z" fill="black"/>
<path d="M62.2174 72.088V65.176C62.2174 64.984 62.1374 64.824 61.9774 64.696C61.8494 64.536 61.6734 64.456 61.4494 64.456C61.2574 64.456 61.0814 64.536 60.9214 64.696C60.7934 64.824 60.7294 64.984 60.7294 65.176V69.4H57.7534V65.176C57.7534 64.984 57.6734 64.824 57.5134 64.696C57.3854 64.536 57.2094 64.456 56.9854 64.456C56.7934 64.456 56.6174 64.536 56.4574 64.696C56.3294 64.824 56.2654 64.984 56.2654 65.176V76.888C56.7134 76.536 57.1934 76.248 57.7054 76.024C58.2174 75.768 58.7934 75.64 59.4334 75.64C60.5534 75.64 61.4494 75.976 62.1214 76.648C62.8254 77.288 63.1774 78.344 63.1774 79.816V92.056C63.1774 93.624 62.7934 94.888 62.0254 95.848C61.2574 96.808 59.9934 97.288 58.2334 97.288C56.4734 97.288 55.2094 96.808 54.4414 95.848C53.6734 94.888 53.2894 93.624 53.2894 92.056V65.464C53.2894 64.504 53.6254 63.704 54.2974 63.064C54.9694 62.392 55.7694 62.056 56.6974 62.056C57.7214 62.056 58.5694 62.424 59.2414 63.16C59.9134 62.424 60.7614 62.056 61.7854 62.056C62.7134 62.056 63.5134 62.392 64.1854 63.064C64.8574 63.704 65.1934 64.504 65.1934 65.464V72.088H62.2174ZM58.2334 78.04C57.6894 78.04 57.2254 78.248 56.8414 78.664C56.4574 79.048 56.2654 79.528 56.2654 80.104V92.824C56.2654 93.4 56.4574 93.896 56.8414 94.312C57.2254 94.696 57.6894 94.888 58.2334 94.888C58.7774 94.888 59.2414 94.696 59.6254 94.312C60.0094 93.896 60.2014 93.4 60.2014 92.824V80.104C60.2014 79.528 60.0094 79.048 59.6254 78.664C59.2414 78.248 58.7774 78.04 58.2334 78.04Z" fill="black"/>
<path d="M76.491 75.928V105.736C76.491 106.824 76.331 107.704 76.011 108.376C75.691 109.048 75.291 109.56 74.811 109.912C74.331 110.296 73.803 110.552 73.227 110.68C72.651 110.808 72.091 110.872 71.547 110.872C71.003 110.872 70.443 110.808 69.867 110.68C69.291 110.552 68.763 110.296 68.283 109.912C67.803 109.56 67.403 109.048 67.083 108.376C66.763 107.704 66.603 106.824 66.603 105.736V101.128H69.579V106.072C69.579 106.296 69.579 106.536 69.579 106.792C69.611 107.08 69.691 107.336 69.819 107.56C69.947 107.816 70.139 108.024 70.395 108.184C70.683 108.376 71.067 108.472 71.547 108.472C72.027 108.472 72.395 108.376 72.651 108.184C72.939 108.024 73.147 107.816 73.275 107.56C73.403 107.336 73.467 107.08 73.467 106.792C73.499 106.536 73.515 106.296 73.515 106.072V96.04C73.067 96.392 72.587 96.696 72.075 96.952C71.563 97.176 70.987 97.288 70.347 97.288C69.227 97.288 68.315 96.968 67.611 96.328C66.939 95.656 66.603 94.584 66.603 93.112V75.928H69.579V92.824C69.579 93.4 69.771 93.896 70.155 94.312C70.539 94.696 71.003 94.888 71.547 94.888C72.091 94.888 72.555 94.696 72.939 94.312C73.323 93.896 73.515 93.4 73.515 92.824V75.928H76.491Z" fill="black"/>
<path d="M83.9209 75.64C84.4649 75.64 85.0249 75.704 85.6009 75.832C86.1769 75.96 86.7049 76.216 87.1849 76.6C87.6649 76.952 88.0649 77.464 88.3849 78.136C88.7049 78.808 88.8649 79.688 88.8649 80.776V105.736C88.8649 106.824 88.7049 107.704 88.3849 108.376C88.0649 109.048 87.6649 109.56 87.1849 109.912C86.7049 110.296 86.1769 110.552 85.6009 110.68C85.0249 110.808 84.4649 110.872 83.9209 110.872C83.3769 110.872 82.8169 110.808 82.2409 110.68C81.6649 110.552 81.1369 110.296 80.6569 109.912C80.1769 109.56 79.7769 109.048 79.4569 108.376C79.1369 107.704 78.9769 106.824 78.9769 105.736V97.288H81.9529V106.072C81.9529 106.296 81.9529 106.536 81.9529 106.792C81.9849 107.08 82.0649 107.336 82.1929 107.56C82.3209 107.816 82.5129 108.024 82.7689 108.184C83.0569 108.376 83.4409 108.472 83.9209 108.472C84.4009 108.472 84.7689 108.376 85.0249 108.184C85.3129 108.024 85.5209 107.816 85.6489 107.56C85.7769 107.336 85.8409 107.08 85.8409 106.792C85.8729 106.536 85.8889 106.296 85.8889 106.072V80.44C85.8889 80.216 85.8729 79.976 85.8409 79.72C85.8409 79.432 85.7769 79.176 85.6489 78.952C85.5209 78.696 85.3129 78.488 85.0249 78.328C84.7689 78.136 84.4009 78.04 83.9209 78.04C83.4409 78.04 83.0569 78.136 82.7689 78.328C82.5129 78.488 82.3209 78.696 82.1929 78.952C82.0649 79.176 81.9849 79.432 81.9529 79.72C81.9529 79.976 81.9529 80.216 81.9529 80.44V85H78.9769V80.776C78.9769 79.688 79.1369 78.808 79.4569 78.136C79.7769 77.464 80.1769 76.952 80.6569 76.6C81.1369 76.216 81.6649 75.96 82.2409 75.832C82.8169 75.704 83.3769 75.64 83.9209 75.64Z" fill="black"/>
<path d="M98.8163 75.784C99.7123 75.944 100.512 76.392 101.216 77.128C101.92 77.864 102.272 79.08 102.272 80.776V92.152C102.272 93.24 102.112 94.12 101.792 94.792C101.472 95.464 101.072 95.992 100.592 96.376C100.112 96.728 99.5842 96.968 99.0082 97.096C98.4323 97.224 97.8722 97.288 97.3282 97.288C96.7842 97.288 96.2242 97.224 95.6482 97.096C95.0723 96.968 94.5443 96.728 94.0642 96.376C93.5842 95.992 93.1842 95.464 92.8643 94.792C92.5443 94.12 92.3842 93.24 92.3842 92.152V80.776C92.3842 79.08 92.7362 77.864 93.4402 77.128C94.1442 76.392 94.9442 75.944 95.8402 75.784V67.912C95.3923 67.816 94.9762 67.672 94.5922 67.48C94.2082 67.288 93.8562 67 93.5362 66.616C93.2162 66.232 92.9603 65.752 92.7682 65.176C92.6082 64.6 92.5283 63.896 92.5283 63.064V62.344H95.5042V63.4C95.5042 63.624 95.5042 63.88 95.5042 64.168C95.5362 64.424 95.6162 64.68 95.7442 64.936C95.8722 65.16 96.0643 65.368 96.3203 65.56C96.6083 65.72 96.9922 65.8 97.4723 65.8H98.8163V75.784ZM99.2962 80.44C99.2962 80.216 99.2803 79.976 99.2483 79.72C99.2483 79.432 99.1842 79.176 99.0563 78.952C98.9283 78.696 98.7203 78.488 98.4323 78.328C98.1763 78.136 97.8083 78.04 97.3282 78.04C96.8482 78.04 96.4642 78.136 96.1762 78.328C95.9202 78.488 95.7282 78.696 95.6003 78.952C95.4723 79.176 95.3923 79.432 95.3603 79.72C95.3603 79.976 95.3603 80.216 95.3603 80.44V92.488C95.3603 92.712 95.3603 92.968 95.3603 93.256C95.3923 93.512 95.4723 93.768 95.6003 94.024C95.7282 94.248 95.9202 94.456 96.1762 94.648C96.4642 94.808 96.8482 94.888 97.3282 94.888C97.8083 94.888 98.1763 94.808 98.4323 94.648C98.7203 94.456 98.9283 94.248 99.0563 94.024C99.1842 93.768 99.2483 93.512 99.2483 93.256C99.2803 92.968 99.2962 92.712 99.2962 92.488V80.44Z" fill="black"/>
<path d="M111.12 77.32C114.128 77.32 115.632 78.824 115.632 81.832V92.152C115.632 93.24 115.472 94.12 115.152 94.792C114.832 95.464 114.432 95.992 113.952 96.376C113.472 96.728 112.944 96.968 112.368 97.096C111.792 97.224 111.232 97.288 110.688 97.288C110.144 97.288 109.584 97.224 109.008 97.096C108.432 96.968 107.904 96.728 107.424 96.376C106.944 95.992 106.544 95.464 106.224 94.792C105.904 94.12 105.744 93.24 105.744 92.152V85.672H108.72V92.488C108.72 92.712 108.72 92.968 108.72 93.256C108.752 93.512 108.832 93.768 108.96 94.024C109.088 94.248 109.28 94.456 109.536 94.648C109.824 94.808 110.208 94.888 110.688 94.888C111.168 94.888 111.536 94.808 111.792 94.648C112.08 94.456 112.288 94.248 112.416 94.024C112.544 93.768 112.608 93.512 112.608 93.256C112.64 92.968 112.656 92.712 112.656 92.488V81.304C112.656 80.824 112.528 80.44 112.272 80.152C112.016 79.864 111.632 79.72 111.12 79.72C110.768 79.72 110.352 79.672 109.872 79.576C109.392 79.448 108.944 79.24 108.528 78.952C108.112 78.664 107.76 78.28 107.472 77.8C107.184 77.32 107.04 76.696 107.04 75.928H109.584C109.584 76.28 109.664 76.6 109.824 76.888C110.016 77.176 110.448 77.32 111.12 77.32Z" fill="black"/>
<path d="M119.103 93.352H122.271V97H119.103V93.352Z" fill="black"/>
<path d="M125.712 93.352H128.88V97H125.712V93.352Z" fill="black"/>
<path d="M132.322 93.352H135.49V97H132.322V93.352Z" fill="black"/>
</svg>
