<svg width="373" height="216" viewBox="0 0 373 216" fill="none" xmlns="http://www.w3.org/2000/svg">
<path d="M43.9532 110.018C43.9532 112.85 43.7398 115.186 43.3131 117.027C42.8863 118.867 42.1751 120.425 41.1794 121.699C40.326 122.832 39.188 123.823 37.7656 124.673C36.3431 125.381 34.7073 126.159 32.8582 127.009V127.434C36.6987 128.142 39.4725 129.558 41.1794 131.681C43.0286 133.664 43.9532 137.133 43.9532 142.088V192.85C43.9532 199.788 42.2462 205.381 38.8324 209.628C35.4186 213.876 29.8 216 21.9766 216C14.1532 216 8.53459 213.876 5.12076 209.628C1.70692 205.381 0 199.788 0 192.85V144.212C0 139.398 0.711216 135.504 2.13365 132.531C3.55608 129.558 5.33412 127.292 7.46777 125.735C9.60142 124.035 11.9484 122.903 14.5088 122.336C17.0692 121.77 19.5584 121.487 21.9766 121.487C24.6792 121.487 26.8128 120.566 28.3775 118.726C29.9422 116.743 30.7245 114.478 30.7245 111.929V80.2832C30.7245 77.7345 29.9422 75.5398 28.3775 73.6991C26.8128 71.7168 24.6792 70.7257 21.9766 70.7257C19.274 70.7257 17.1403 71.7168 15.5756 73.6991C14.011 75.5398 13.2286 77.7345 13.2286 80.2832V101.522H0V83.2566C0 76.3186 1.70692 70.7257 5.12076 66.4779C8.53459 62.2301 14.1532 60.1062 21.9766 60.1062C29.8 60.1062 35.4186 62.2301 38.8324 66.4779C42.2462 70.7257 43.9532 76.3186 43.9532 83.2566V110.018ZM30.7245 142.938C30.7245 140.389 29.9422 138.195 28.3775 136.354C26.8128 134.372 24.6792 133.381 21.9766 133.381C19.8429 133.381 18.136 133.805 16.8558 134.655C15.7179 135.363 14.8644 136.283 14.2954 137.416C13.7265 138.407 13.3709 139.54 13.2286 140.814C13.2286 141.947 13.2286 143.009 13.2286 144V195.823C13.2286 198.372 14.011 200.566 15.5756 202.407C17.1403 204.389 19.274 205.381 21.9766 205.381C24.6792 205.381 26.8128 204.389 28.3775 202.407C29.9422 200.566 30.7245 198.372 30.7245 195.823V142.938Z" fill="black"/>
<path d="M83.494 67.5398C96.8648 67.5398 103.55 74.1947 103.55 87.5044V133.168C103.55 137.982 102.839 141.876 101.417 144.85C99.9942 147.823 98.2162 150.159 96.0825 151.858C93.9489 153.416 91.6018 154.478 89.0415 155.044C86.4811 155.611 83.9918 155.894 81.5737 155.894C79.1556 155.894 76.6663 155.611 74.1059 155.044C71.5455 154.478 69.1985 153.416 67.0649 151.858C64.9312 150.159 63.1532 147.823 61.7308 144.85C60.3083 141.876 59.5971 137.982 59.5971 133.168V104.496H72.8257V134.655C72.8257 135.646 72.8257 136.779 72.8257 138.053C72.968 139.186 73.3236 140.319 73.8926 141.451C74.4615 142.442 75.315 143.363 76.4529 144.212C77.7331 144.92 79.44 145.274 81.5737 145.274C83.7073 145.274 85.3431 144.92 86.4811 144.212C87.7613 143.363 88.6859 142.442 89.2548 141.451C89.8238 140.319 90.1083 139.186 90.1083 138.053C90.2505 136.779 90.3217 135.646 90.3217 134.655V85.1681C90.3217 83.0442 89.7527 81.3451 88.6147 80.0708C87.4768 78.7965 85.7699 78.1593 83.494 78.1593C81.9293 78.1593 80.0801 77.9469 77.9465 77.5221C75.8128 76.9557 73.8214 76.0354 71.9723 74.7611C70.1231 73.4867 68.5584 71.7876 67.2783 69.6637C65.9981 67.5398 65.358 64.7788 65.358 61.3805H76.6663C76.6663 62.938 77.0219 64.354 77.7331 65.6283C78.5866 66.9026 80.5069 67.5398 83.494 67.5398Z" fill="black"/>
<path d="M170.707 133.168C170.707 137.982 169.996 141.876 168.573 144.85C167.151 147.823 165.373 150.159 163.239 151.858C161.105 153.416 158.758 154.478 156.198 155.044C153.638 155.611 151.148 155.894 148.73 155.894C146.312 155.894 143.823 155.611 141.262 155.044C138.702 154.478 136.355 153.416 134.221 151.858C132.088 150.159 130.31 147.823 128.887 144.85C127.465 141.876 126.754 137.982 126.754 133.168V54.3717C124.762 55.9292 122.629 57.2743 120.353 58.4071C118.077 59.3982 115.516 59.8938 112.672 59.8938C107.693 59.8938 103.639 58.4779 100.51 55.646C97.5227 52.6726 96.0292 47.9292 96.0292 41.4159V22.7257C96.0292 17.9115 96.7404 14.0177 98.1628 11.0442C99.5852 8.0708 101.363 5.80531 103.497 4.2478C105.631 2.54868 107.978 1.41593 110.538 0.849559C113.098 0.283186 115.588 0 118.006 0C120.424 0 122.913 0.283186 125.474 0.849559C128.034 1.41593 130.381 2.54868 132.515 4.2478C134.648 5.80531 136.426 8.0708 137.849 11.0442C139.271 14.0177 139.982 17.9115 139.982 22.7257V65.6283C141.974 64.0708 144.107 62.7965 146.383 61.8053C148.659 60.6726 151.22 60.1062 154.064 60.1062C159.043 60.1062 163.026 61.5929 166.013 64.5664C169.142 67.3982 170.707 72.0708 170.707 78.5841V133.168ZM126.754 21.2389C126.754 20.2478 126.683 19.1858 126.54 18.0531C126.54 16.7788 126.256 15.646 125.687 14.6549C125.118 13.5221 124.193 12.6018 122.913 11.8938C121.775 11.0442 120.139 10.6195 118.006 10.6195C115.872 10.6195 114.165 11.0442 112.885 11.8938C111.747 12.6018 110.894 13.5221 110.325 14.6549C109.756 15.646 109.4 16.7788 109.258 18.0531C109.258 19.1858 109.258 20.2478 109.258 21.2389V40.354V40.1416C109.258 42.6903 110.111 44.885 111.818 46.7257C113.525 48.4248 115.588 49.2743 118.006 49.2743C120.424 49.2743 122.486 48.4248 124.193 46.7257C125.9 44.885 126.754 42.6903 126.754 40.1416V21.2389ZM157.478 79.8584C157.478 77.3097 156.625 75.1858 154.918 73.4867C153.211 71.646 151.148 70.7257 148.73 70.7257C146.312 70.7257 144.25 71.646 142.543 73.4867C140.836 75.1858 139.982 77.3097 139.982 79.8584V134.655C139.982 135.646 139.982 136.779 139.982 138.053C140.125 139.186 140.48 140.319 141.049 141.451C141.618 142.442 142.472 143.363 143.61 144.212C144.89 144.92 146.597 145.274 148.73 145.274C150.864 145.274 152.5 144.92 153.638 144.212C154.918 143.363 155.842 142.442 156.411 141.451C156.98 140.319 157.265 139.186 157.265 138.053C157.407 136.779 157.478 135.646 157.478 134.655V79.8584Z" fill="black"/>
<path d="M207.421 60.1062C209.839 60.1062 212.328 60.3894 214.888 60.9558C217.449 61.5221 219.796 62.6549 221.929 64.354C224.063 65.9115 225.841 68.177 227.264 71.1504C228.686 74.1239 229.397 78.0177 229.397 82.8319V193.274C229.397 198.088 228.686 201.982 227.264 204.956C225.841 207.929 224.063 210.195 221.929 211.752C219.796 213.451 217.449 214.584 214.888 215.15C212.328 215.717 209.839 216 207.421 216C205.002 216 202.513 215.717 199.953 215.15C197.392 214.584 195.045 213.451 192.912 211.752C190.778 210.195 189 207.929 187.578 204.956C186.155 201.982 185.444 198.088 185.444 193.274V155.894H198.673V194.761C198.673 195.752 198.673 196.814 198.673 197.947C198.815 199.221 199.17 200.354 199.739 201.345C200.308 202.478 201.162 203.398 202.3 204.106C203.58 204.956 205.287 205.381 207.421 205.381C209.554 205.381 211.19 204.956 212.328 204.106C213.608 203.398 214.533 202.478 215.102 201.345C215.671 200.354 215.955 199.221 215.955 197.947C216.097 196.814 216.169 195.752 216.169 194.761V81.3451C216.169 80.354 216.097 79.292 215.955 78.1593C215.955 76.885 215.671 75.7522 215.102 74.7611C214.533 73.6283 213.608 72.708 212.328 72C211.19 71.1504 209.554 70.7257 207.421 70.7257C205.287 70.7257 203.58 71.1504 202.3 72C201.162 72.708 200.308 73.6283 199.739 74.7611C199.17 75.7522 198.815 76.885 198.673 78.1593C198.673 79.292 198.673 80.354 198.673 81.3451V101.522H185.444V82.8319C185.444 78.0177 186.155 74.1239 187.578 71.1504C189 68.177 190.778 65.9115 192.912 64.354C195.045 62.6549 197.392 61.5221 199.953 60.9558C202.513 60.3894 205.002 60.1062 207.421 60.1062Z" fill="black"/>
<path d="M300.089 60.1062C302.507 60.1062 304.854 60.3894 307.13 60.9558C309.548 61.5221 311.682 62.6549 313.531 64.354C315.523 65.9115 317.087 68.177 318.225 71.1504C319.363 74.1239 319.932 78.0177 319.932 82.8319V154.619H306.704V81.3451C306.704 80.354 306.632 79.292 306.49 78.1593C306.49 76.885 306.206 75.7522 305.637 74.7611C305.068 73.6283 304.143 72.708 302.863 72C301.725 71.1504 300.089 70.7257 297.956 70.7257C295.822 70.7257 294.115 71.1504 292.835 72C291.697 72.708 290.843 73.6283 290.274 74.7611C289.706 75.7522 289.35 76.885 289.208 78.1593C289.208 79.292 289.208 80.354 289.208 81.3451V133.168C289.208 137.982 288.496 141.876 287.074 144.85C285.652 147.823 283.874 150.159 281.74 151.858C279.606 153.416 277.259 154.478 274.699 155.044C272.138 155.611 269.649 155.894 267.231 155.894C264.813 155.894 262.324 155.611 259.763 155.044C257.203 154.478 254.856 153.416 252.722 151.858C250.589 150.159 248.811 147.823 247.388 144.85C245.966 141.876 245.254 137.982 245.254 133.168V82.8319C245.254 78.0177 245.823 74.1239 246.961 71.1504C248.099 68.177 249.593 65.9115 251.442 64.354C253.433 62.6549 255.567 61.5221 257.843 60.9558C260.261 60.3894 262.679 60.1062 265.097 60.1062C269.08 60.1062 272.21 60.6726 274.485 61.8053C276.904 62.7965 278.682 63.9292 279.82 65.2035C281.242 66.7611 282.167 68.3894 282.593 70.0885C283.02 68.3894 283.945 66.7611 285.367 65.2035C286.505 63.9292 288.212 62.7965 290.488 61.8053C292.906 60.6726 296.106 60.1062 300.089 60.1062ZM275.979 81.3451C275.979 80.354 275.908 79.292 275.766 78.1593C275.766 76.885 275.481 75.7522 274.912 74.7611C274.343 73.6283 273.419 72.708 272.138 72C271.001 71.1504 269.365 70.7257 267.231 70.7257C265.097 70.7257 263.391 71.1504 262.11 72C260.972 72.708 260.119 73.6283 259.55 74.7611C258.981 75.7522 258.625 76.885 258.483 78.1593C258.483 79.292 258.483 80.354 258.483 81.3451V134.655C258.483 135.646 258.483 136.779 258.483 138.053C258.625 139.186 258.981 140.319 259.55 141.451C260.119 142.442 260.972 143.363 262.11 144.212C263.391 144.92 265.097 145.274 267.231 145.274C269.365 145.274 271.001 144.92 272.138 144.212C273.419 143.363 274.343 142.442 274.912 141.451C275.481 140.319 275.766 139.186 275.766 138.053C275.908 136.779 275.979 135.646 275.979 134.655V81.3451Z" fill="black"/>
<path d="M342.275 154.619H329.047V82.8319C329.047 78.0177 329.758 74.1239 331.181 71.1504C332.603 68.177 334.381 65.9115 336.515 64.354C338.648 62.6549 340.995 61.5221 343.556 60.9558C346.116 60.3894 348.605 60.1062 351.023 60.1062C353.442 60.1062 355.931 60.3894 358.491 60.9558C361.052 61.5221 363.399 62.6549 365.532 64.354C367.666 65.9115 369.444 68.177 370.866 71.1504C372.289 74.1239 373 78.0177 373 82.8319V154.619H359.771V81.3451C359.771 80.354 359.7 79.292 359.558 78.1593C359.558 76.885 359.274 75.7522 358.705 74.7611C358.136 73.6283 357.211 72.708 355.931 72C354.793 71.1504 353.157 70.7257 351.023 70.7257C348.89 70.7257 347.183 71.1504 345.903 72C344.765 72.708 343.911 73.6283 343.342 74.7611C342.773 75.7522 342.418 76.885 342.275 78.1593C342.275 79.292 342.275 80.354 342.275 81.3451V154.619Z" fill="black"/>
</svg>
