<svg width="944" height="218" viewBox="0 0 944 218" fill="none" xmlns="http://www.w3.org/2000/svg">
<path d="M44.1353 50.3485C44.1353 53.2052 43.921 55.5619 43.4925 57.4187C43.064 59.2755 42.3499 60.8467 41.35 62.1322C40.493 63.2749 39.3504 64.2747 37.9221 65.1317C36.4937 65.8458 34.8512 66.6314 32.9943 67.4884V67.9169C36.8508 68.6311 39.6361 70.0594 41.35 72.2019C43.2069 74.2016 44.1353 77.701 44.1353 82.7001V133.906C44.1353 140.904 42.4213 146.546 38.9933 150.831C35.5653 155.116 29.9234 157.259 22.0676 157.259C14.2118 157.259 8.56996 155.116 5.14197 150.831C1.71399 146.546 0 140.904 0 133.906V96.6263H13.2834V136.905C13.2834 139.476 14.069 141.761 15.6402 143.761C17.2113 145.618 19.3538 146.546 22.0676 146.546C24.7815 146.546 26.924 145.618 28.4951 143.761C30.0663 141.761 30.8518 139.476 30.8518 136.905V83.5571C30.8518 80.9861 30.0663 78.7722 28.4951 76.9154C26.924 74.9157 24.7815 73.9159 22.0676 73.9159H14.1404V61.9179H22.0676C24.7815 61.9179 26.924 60.9895 28.4951 59.1327C30.0663 57.1331 30.8518 54.8477 30.8518 52.2767V28.4951C30.8518 26.2098 30.2805 24.2816 29.1379 22.7104C28.138 20.9964 26.424 20.1394 23.9959 20.1394C22.4247 20.1394 20.4965 19.7823 18.2112 19.0682C15.9258 18.354 13.7119 17.2827 11.5694 15.8544C9.56979 14.2833 7.85579 12.355 6.42747 10.0697C4.99914 7.64155 4.28498 4.71348 4.28498 1.28549H17.1399C17.1399 2.85665 17.497 4.3564 18.2112 5.78472C19.0682 7.07022 20.9964 7.71296 23.9959 7.71296C30.709 7.71296 35.7082 9.56979 38.9933 13.2834C42.4213 16.9971 44.1353 22.2819 44.1353 29.1379V50.3485Z" fill="black"/>
<path d="M114.906 60.6325C117.334 60.6325 119.691 60.9181 121.976 61.4894C124.404 62.0608 126.547 63.2034 128.404 64.9174C130.403 66.4886 131.975 68.7739 133.117 71.7734C134.26 74.7729 134.831 78.7008 134.831 83.5571V155.973H121.548V82.0573C121.548 81.0575 121.476 79.9863 121.334 78.8436C121.334 77.5581 121.048 76.4155 120.477 75.4156C119.905 74.273 118.977 73.3446 117.691 72.6304C116.549 71.7734 114.906 71.3449 112.764 71.3449C110.621 71.3449 108.907 71.7734 107.622 72.6304C106.479 73.3446 105.622 74.273 105.051 75.4156C104.479 76.4155 104.122 77.5581 103.979 78.8436C103.979 79.9863 103.979 81.0575 103.979 82.0573V126.835H90.4817V80.5576C90.4817 77.9866 89.6247 75.8441 87.9107 74.1301C86.1967 72.2733 84.1256 71.3449 81.6975 71.3449C79.2693 71.3449 77.1982 72.2019 75.4843 73.9159C73.9131 75.6299 73.0561 77.701 72.9133 80.1291V155.973H59.6298V37.7078C59.6298 33.4228 60.344 29.9234 61.7723 27.2096C63.2006 24.4958 64.9861 22.3533 67.1285 20.7821C69.4139 19.211 71.842 18.1397 74.413 17.5684C76.984 16.9971 79.4121 16.7114 81.6975 16.7114H99.2659C101.408 16.7114 103.051 16.3543 104.194 15.6402C105.479 14.7832 106.408 13.8548 106.979 12.8549C107.55 11.7123 107.836 10.5696 107.836 9.42696C107.979 8.14147 108.05 6.9988 108.05 5.99897V1.28549H121.334V4.49923C121.334 9.35554 120.619 13.2834 119.191 16.2829C117.763 19.2824 115.977 21.6391 113.835 23.3531C111.692 24.9243 109.336 25.9955 106.765 26.5669C104.194 27.1382 101.694 27.4239 99.2659 27.4239H81.6975C79.555 27.4239 77.841 27.8524 76.5555 28.7094C75.4128 29.4235 74.5558 30.3519 73.9845 31.4946C73.4132 32.4944 73.0561 33.6371 72.9133 34.9226C72.9133 36.0652 72.9133 37.1365 72.9133 38.1363V66.2029C74.9129 64.6318 77.0554 63.3463 79.3407 62.3464C81.6261 61.2038 84.197 60.6325 87.0537 60.6325C92.9098 60.6325 96.8377 62.7749 98.8374 67.0599C99.98 65.4888 101.765 64.0604 104.194 62.7749C106.622 61.3466 110.193 60.6325 114.906 60.6325Z" fill="black"/>
<path d="M201.526 60.6325C203.954 60.6325 206.311 60.9181 208.596 61.4894C211.025 62.0608 213.167 63.2034 215.024 64.9174C217.024 66.4886 218.595 68.7739 219.737 71.7734C220.88 74.7729 221.451 78.7008 221.451 83.5571V155.973H208.168V82.0573C208.168 81.0575 208.097 79.9863 207.954 78.8436C207.954 77.5581 207.668 76.4155 207.097 75.4156C206.525 74.273 205.597 73.3446 204.311 72.6304C203.169 71.7734 201.526 71.3449 199.384 71.3449C197.241 71.3449 195.527 71.7734 194.242 72.6304C193.099 73.3446 192.242 74.273 191.671 75.4156C191.099 76.4155 190.742 77.5581 190.6 78.8436C190.6 79.9863 190.6 81.0575 190.6 82.0573V126.835H177.102V82.0573C177.102 81.0575 177.03 79.9863 176.888 78.8436C176.888 77.5581 176.602 76.4155 176.031 75.4156C175.459 74.273 174.531 73.3446 173.245 72.6304C172.103 71.7734 170.46 71.3449 168.318 71.3449C166.175 71.3449 164.461 71.7734 163.176 72.6304C162.033 73.3446 161.176 74.273 160.605 75.4156C160.033 76.4155 159.676 77.5581 159.533 78.8436C159.533 79.9863 159.533 81.0575 159.533 82.0573V155.973H146.25V83.5571C146.25 78.7008 146.821 74.7729 147.964 71.7734C149.107 68.7739 150.606 66.4886 152.463 64.9174C154.463 63.2034 156.605 62.0608 158.891 61.4894C161.319 60.9181 163.747 60.6325 166.175 60.6325C170.174 60.6325 173.317 61.2038 175.602 62.3464C178.03 63.3463 179.816 64.4889 180.958 65.7744C182.387 67.3456 183.315 68.9882 183.744 70.7021C184.172 68.9882 185.1 67.3456 186.529 65.7744C187.671 64.4889 189.385 63.3463 191.671 62.3464C194.099 61.2038 197.384 60.6325 201.526 60.6325Z" fill="black"/>
<path d="M258.699 60.6325C261.127 60.6325 263.627 60.9181 266.198 61.4894C268.769 62.0608 271.125 63.2034 273.268 64.9174C275.41 66.4886 277.196 68.7739 278.624 71.7734C280.052 74.7729 280.767 78.7008 280.767 83.5571V194.967C280.767 199.823 280.052 203.751 278.624 206.75C277.196 209.75 275.41 212.035 273.268 213.606C271.125 215.32 268.769 216.463 266.198 217.034C263.627 217.606 261.127 217.891 258.699 217.891C256.271 217.891 253.771 217.606 251.2 217.034C248.629 216.463 246.272 215.32 244.13 213.606C241.987 212.035 240.202 209.75 238.774 206.75C237.345 203.751 236.631 199.823 236.631 194.967V157.259H249.915V196.466C249.915 197.466 249.915 198.537 249.915 199.68C250.058 200.966 250.415 202.108 250.986 203.108C251.557 204.251 252.414 205.179 253.557 205.893C254.842 206.75 256.556 207.179 258.699 207.179C260.841 207.179 262.484 206.75 263.627 205.893C264.912 205.179 265.841 204.251 266.412 203.108C266.983 202.108 267.269 200.966 267.269 199.68C267.412 198.537 267.483 197.466 267.483 196.466V82.0573C267.483 81.0575 267.412 79.9863 267.269 78.8436C267.269 77.5581 266.983 76.4155 266.412 75.4156C265.841 74.273 264.912 73.3446 263.627 72.6304C262.484 71.7734 260.841 71.3449 258.699 71.3449C256.556 71.3449 254.842 71.7734 253.557 72.6304C252.414 73.3446 251.557 74.273 250.986 75.4156C250.415 76.4155 250.058 77.5581 249.915 78.8436C249.915 79.9863 249.915 81.0575 249.915 82.0573V102.411H236.631V83.5571C236.631 78.7008 237.345 74.7729 238.774 71.7734C240.202 68.7739 241.987 66.4886 244.13 64.9174C246.272 63.2034 248.629 62.0608 251.2 61.4894C253.771 60.9181 256.271 60.6325 258.699 60.6325Z" fill="black"/>
<path d="M340.611 1.28549V194.967C340.611 199.823 339.896 203.751 338.468 206.75C337.04 209.75 335.254 212.035 333.112 213.606C330.969 215.32 328.613 216.463 326.042 217.034C323.471 217.606 320.971 217.891 318.543 217.891C316.115 217.891 313.615 217.606 311.044 217.034C308.473 216.463 306.117 215.32 303.974 213.606C301.832 212.035 300.046 209.75 298.618 206.75C297.19 203.751 296.475 199.823 296.475 194.967V157.259H309.759V196.466C309.759 197.466 309.759 198.537 309.759 199.68C309.902 200.966 310.259 202.108 310.83 203.108C311.401 204.251 312.258 205.179 313.401 205.893C314.686 206.75 316.401 207.179 318.543 207.179C320.685 207.179 322.328 206.75 323.471 205.893C324.756 205.179 325.685 204.251 326.256 203.108C326.827 202.108 327.113 200.966 327.113 199.68C327.256 198.537 327.327 197.466 327.327 196.466V80.5576C327.327 77.9866 326.47 75.8441 324.756 74.1301C323.042 72.2733 320.971 71.3449 318.543 71.3449C316.115 71.3449 314.044 72.2733 312.33 74.1301C310.616 75.8441 309.759 77.9866 309.759 80.5576V102.411H296.475V79.2721C296.475 72.7018 297.975 67.9883 300.975 65.1317C304.117 62.1322 308.188 60.6325 313.187 60.6325C316.043 60.6325 318.614 61.2038 320.9 62.3464C323.185 63.3463 325.328 64.6318 327.327 66.2029V1.28549H340.611Z" fill="black"/>
<path d="M391.456 83.7713C399.455 85.0568 405.097 88.342 408.382 93.6268C411.81 98.7688 413.524 104.911 413.524 112.052V189.182C413.524 193.181 412.953 196.895 411.81 200.323C410.81 203.894 409.167 206.964 406.882 209.535C404.597 212.106 401.597 214.106 397.884 215.534C394.313 217.106 389.956 217.891 384.815 217.891C379.673 217.891 375.245 217.106 371.531 215.534C367.96 214.106 365.032 212.106 362.747 209.535C360.462 206.964 358.748 203.894 357.605 200.323C356.605 196.895 356.105 193.181 356.105 189.182V112.052C356.105 104.911 357.748 98.7688 361.033 93.6268C364.461 88.342 370.174 85.0568 378.173 83.7713V61.9179H391.456V83.7713ZM400.24 109.481C400.24 106.196 399.455 103.339 397.884 100.911C396.455 98.3403 394.313 96.4834 391.456 95.3408V126.835H378.173V95.3408C375.316 96.4834 373.102 98.3403 371.531 100.911C370.103 103.339 369.389 106.196 369.389 109.481V191.753C369.389 195.895 370.746 199.466 373.459 202.465C376.173 205.608 379.958 207.179 384.815 207.179C389.671 207.179 393.456 205.608 396.17 202.465C398.884 199.466 400.24 195.895 400.24 191.753V109.481Z" fill="black"/>
<path d="M443.699 155.973H430.416V83.5571C430.416 78.7008 431.13 74.7729 432.559 71.7734C433.987 68.7739 435.772 66.4886 437.915 64.9174C440.057 63.2034 442.414 62.0608 444.985 61.4894C447.556 60.9181 450.056 60.6325 452.484 60.6325C454.912 60.6325 457.411 60.9181 459.982 61.4894C462.553 62.0608 464.91 63.2034 467.053 64.9174C469.195 66.4886 470.981 68.7739 472.409 71.7734C473.837 74.7729 474.551 78.7008 474.551 83.5571V155.973H461.268V82.0573C461.268 81.0575 461.196 79.9863 461.054 78.8436C461.054 77.5581 460.768 76.4155 460.197 75.4156C459.625 74.273 458.697 73.3446 457.411 72.6304C456.269 71.7734 454.626 71.3449 452.484 71.3449C450.341 71.3449 448.627 71.7734 447.342 72.6304C446.199 73.3446 445.342 74.273 444.771 75.4156C444.199 76.4155 443.842 77.5581 443.699 78.8436C443.699 79.9863 443.699 81.0575 443.699 82.0573V155.973Z" fill="black"/>
<path d="M533.728 61.9179V134.334C533.728 139.19 533.013 143.118 531.585 146.118C530.157 149.117 528.371 151.474 526.229 153.188C524.086 154.759 521.73 155.83 519.159 156.402C516.588 156.973 514.088 157.259 511.66 157.259C509.232 157.259 506.732 156.973 504.161 156.402C501.59 155.83 499.233 154.759 497.091 153.188C494.949 151.474 493.163 149.117 491.735 146.118C490.306 143.118 489.592 139.19 489.592 134.334V1.28549H502.876V135.834C502.876 136.834 502.876 137.976 502.876 139.262C503.019 140.404 503.376 141.547 503.947 142.69C504.518 143.69 505.375 144.618 506.518 145.475C507.803 146.189 509.517 146.546 511.66 146.546C513.802 146.546 515.445 146.189 516.588 145.475C517.873 144.618 518.802 143.69 519.373 142.69C519.944 141.547 520.23 140.404 520.23 139.262C520.373 137.976 520.444 136.834 520.444 135.834V61.9179H533.728Z" fill="black"/>
<path d="M591.583 44.778H578.3V23.3531C578.3 16.3543 580.014 10.7124 583.442 6.42747C586.87 2.14249 592.512 0 600.367 0C608.223 0 613.865 2.14249 617.293 6.42747C620.721 10.7124 622.435 16.3543 622.435 23.3531V133.906C622.435 140.904 620.721 146.546 617.293 150.831C613.865 155.116 608.223 157.259 600.367 157.259C592.512 157.259 586.87 155.116 583.442 150.831C580.014 146.546 578.3 140.904 578.3 133.906V79.2721C578.3 72.7018 579.799 67.9883 582.799 65.1317C585.941 62.1322 590.012 60.6325 595.011 60.6325C597.868 60.6325 600.439 61.2038 602.724 62.3464C605.009 63.3463 607.152 64.6318 609.152 66.2029V19.9251C609.152 17.3542 608.295 15.2117 606.581 13.4977C604.867 11.6409 602.724 10.7124 600.153 10.7124C597.439 10.7124 595.297 11.6409 593.726 13.4977C592.297 15.2117 591.583 17.3542 591.583 19.9251V44.778ZM591.583 137.334C591.583 139.905 592.44 142.118 594.154 143.975C595.868 145.689 597.939 146.546 600.367 146.546C602.796 146.546 604.867 145.689 606.581 143.975C608.295 142.118 609.152 139.905 609.152 137.334V80.5576C609.152 77.9866 608.295 75.8441 606.581 74.1301C604.867 72.2733 602.796 71.3449 600.367 71.3449C597.939 71.3449 595.868 72.2733 594.154 74.1301C592.44 75.8441 591.583 77.9866 591.583 80.5576V137.334Z" fill="black"/>
<path d="M652.509 155.973H639.225V83.5571C639.225 78.7008 639.939 74.7729 641.368 71.7734C642.796 68.7739 644.581 66.4886 646.724 64.9174C648.866 63.2034 651.223 62.0608 653.794 61.4894C656.365 60.9181 658.865 60.6325 661.293 60.6325C663.721 60.6325 666.22 60.9181 668.791 61.4894C671.362 62.0608 673.719 63.2034 675.862 64.9174C678.004 66.4886 679.79 68.7739 681.218 71.7734C682.646 74.7729 683.36 78.7008 683.36 83.5571V155.973H670.077V82.0573C670.077 81.0575 670.005 79.9863 669.863 78.8436C669.863 77.5581 669.577 76.4155 669.006 75.4156C668.434 74.273 667.506 73.3446 666.22 72.6304C665.078 71.7734 663.435 71.3449 661.293 71.3449C659.15 71.3449 657.436 71.7734 656.151 72.6304C655.008 73.3446 654.151 74.273 653.58 75.4156C653.008 76.4155 652.651 77.5581 652.509 78.8436C652.509 79.9863 652.509 81.0575 652.509 82.0573V155.973Z" fill="black"/>
<path d="M763.104 134.334C763.104 139.19 762.39 143.118 760.962 146.118C759.534 149.117 757.748 151.474 755.606 153.188C753.463 154.759 751.107 155.83 748.536 156.402C745.965 156.973 743.465 157.259 741.037 157.259C738.609 157.259 736.109 156.973 733.538 156.402C730.967 155.83 728.61 154.759 726.468 153.188C724.325 151.474 722.54 149.117 721.112 146.118C719.683 143.118 718.969 139.19 718.969 134.334V54.8477C716.97 56.4189 714.827 57.7758 712.542 58.9185C710.256 59.9183 707.685 60.4182 704.829 60.4182C699.83 60.4182 695.759 58.9899 692.617 56.1332C689.617 53.1337 688.117 48.3488 688.117 41.7785V22.9246C688.117 18.0683 688.831 14.1404 690.26 11.1409C691.688 8.14146 693.474 5.85614 695.616 4.28499C697.759 2.57099 700.115 1.42833 702.686 0.856997C705.257 0.285666 707.757 0 710.185 0C712.613 0 715.113 0.285666 717.684 0.856997C720.255 1.42833 722.611 2.57099 724.754 4.28499C726.896 5.85614 728.682 8.14146 730.11 11.1409C731.539 14.1404 732.253 18.0683 732.253 22.9246V66.2029C734.252 64.6318 736.395 63.3463 738.68 62.3464C740.965 61.2038 743.536 60.6325 746.393 60.6325C751.392 60.6325 755.391 62.1322 758.391 65.1317C761.533 67.9883 763.104 72.7018 763.104 79.2721V134.334ZM718.969 21.4249C718.969 20.4251 718.898 19.3538 718.755 18.2112C718.755 16.9257 718.469 15.783 717.898 14.7832C717.327 13.6405 716.398 12.7121 715.113 11.9979C713.97 11.1409 712.328 10.7124 710.185 10.7124C708.042 10.7124 706.329 11.1409 705.043 11.9979C703.9 12.7121 703.043 13.6405 702.472 14.7832C701.901 15.783 701.544 16.9257 701.401 18.2112C701.401 19.3538 701.401 20.4251 701.401 21.4249V40.7073V40.493C701.401 43.064 702.258 45.2779 703.972 47.1348C705.686 48.8488 707.757 49.7058 710.185 49.7058C712.613 49.7058 714.684 48.8488 716.398 47.1348C718.112 45.2779 718.969 43.064 718.969 40.493V21.4249ZM749.821 80.5576C749.821 77.9866 748.964 75.8441 747.25 74.1301C745.536 72.2733 743.465 71.3449 741.037 71.3449C738.609 71.3449 736.538 72.2733 734.824 74.1301C733.11 75.8441 732.253 77.9866 732.253 80.5576V135.834C732.253 136.834 732.253 137.976 732.253 139.262C732.395 140.404 732.753 141.547 733.324 142.69C733.895 143.69 734.752 144.618 735.895 145.475C737.18 146.189 738.894 146.546 741.037 146.546C743.179 146.546 744.822 146.189 745.965 145.475C747.25 144.618 748.178 143.69 748.75 142.69C749.321 141.547 749.607 140.404 749.607 139.262C749.75 137.976 749.821 136.834 749.821 135.834V80.5576Z" fill="black"/>
<path d="M802.113 68.1312C815.539 68.1312 822.252 74.8443 822.252 88.2706V134.334C822.252 139.19 821.538 143.118 820.11 146.118C818.681 149.117 816.896 151.474 814.754 153.188C812.611 154.759 810.254 155.83 807.683 156.402C805.112 156.973 802.613 157.259 800.185 157.259C797.756 157.259 795.257 156.973 792.686 156.402C790.115 155.83 787.758 154.759 785.616 153.188C783.473 151.474 781.688 149.117 780.259 146.118C778.831 143.118 778.117 139.19 778.117 134.334V105.41H791.4V135.834C791.4 136.834 791.4 137.976 791.4 139.262C791.543 140.404 791.9 141.547 792.472 142.69C793.043 143.69 793.9 144.618 795.043 145.475C796.328 146.189 798.042 146.546 800.185 146.546C802.327 146.546 803.97 146.189 805.112 145.475C806.398 144.618 807.326 143.69 807.898 142.69C808.469 141.547 808.755 140.404 808.755 139.262C808.897 137.976 808.969 136.834 808.969 135.834V85.9138C808.969 83.7713 808.397 82.0574 807.255 80.7719C806.112 79.4864 804.398 78.8436 802.113 78.8436C800.542 78.8436 798.685 78.6294 796.542 78.2009C794.4 77.6295 792.4 76.7011 790.543 75.4156C788.687 74.1301 787.115 72.4161 785.83 70.2737C784.544 68.1312 783.902 65.3459 783.902 61.9179H795.257C795.257 63.4891 795.614 64.9174 796.328 66.2029C797.185 67.4884 799.113 68.1312 802.113 68.1312Z" fill="black"/>
<path d="M859.814 10.7124C857.243 10.7124 855.101 11.6409 853.387 13.4977C851.673 15.2117 850.816 17.3542 850.816 19.9251V66.2029C852.816 64.6318 854.958 63.3463 857.243 62.3464C859.529 61.2038 862.1 60.6325 864.956 60.6325C869.956 60.6325 873.955 62.1322 876.954 65.1317C880.097 67.9883 881.668 72.7018 881.668 79.2721V133.906C881.668 140.904 879.954 146.546 876.526 150.831C873.098 155.116 867.456 157.259 859.6 157.259C851.744 157.259 846.103 155.116 842.675 150.831C839.247 146.546 837.533 140.904 837.533 133.906V23.3531C837.533 16.3543 839.247 10.7124 842.675 6.42747C846.103 2.14249 851.744 0 859.6 0H880.597V10.7124H859.814ZM859.6 71.3449C857.172 71.3449 855.101 72.2733 853.387 74.1301C851.673 75.8441 850.816 77.9866 850.816 80.5576V137.334C850.816 139.905 851.673 142.118 853.387 143.975C855.101 145.689 857.172 146.546 859.6 146.546C862.028 146.546 864.099 145.689 865.813 143.975C867.527 142.118 868.384 139.905 868.384 137.334V80.5576C868.384 77.9866 867.527 75.8441 865.813 74.1301C864.099 72.2733 862.028 71.3449 859.6 71.3449Z" fill="black"/>
<path d="M912.16 155.973H898.876V83.5571C898.876 78.7008 899.591 74.7729 901.019 71.7734C902.447 68.7739 904.233 66.4886 906.375 64.9174C908.518 63.2034 910.874 62.0608 913.445 61.4894C916.016 60.9181 918.516 60.6325 920.944 60.6325C923.372 60.6325 925.872 60.9181 928.443 61.4894C931.014 62.0608 933.37 63.2034 935.513 64.9174C937.655 66.4886 939.441 68.7739 940.869 71.7734C942.298 74.7729 943.012 78.7008 943.012 83.5571V155.973H929.728V82.0573C929.728 81.0575 929.657 79.9863 929.514 78.8436C929.514 77.5581 929.228 76.4155 928.657 75.4156C928.086 74.273 927.157 73.3446 925.872 72.6304C924.729 71.7734 923.087 71.3449 920.944 71.3449C918.802 71.3449 917.088 71.7734 915.802 72.6304C914.659 73.3446 913.802 74.273 913.231 75.4156C912.66 76.4155 912.303 77.5581 912.16 78.8436C912.16 79.9863 912.16 81.0575 912.16 82.0573V155.973Z" fill="black"/>
</svg>
