<svg width="292" height="98" viewBox="0 0 292 98" fill="none" xmlns="http://www.w3.org/2000/svg">
<path d="M19.776 27.168V59.616C19.776 61.792 19.456 63.552 18.816 64.896C18.176 66.24 17.376 67.296 16.416 68.064C15.456 68.768 14.4 69.248 13.248 69.504C12.096 69.76 10.976 69.888 9.888 69.888C8.8 69.888 7.68 69.76 6.528 69.504C5.376 69.248 4.32 68.768 3.36 68.064C2.4 67.296 1.6 66.24 0.96 64.896C0.32 63.552 0 61.792 0 59.616V0H5.952V60.288C5.952 60.736 5.952 61.248 5.952 61.824C6.016 62.336 6.176 62.848 6.432 63.36C6.688 63.808 7.072 64.224 7.584 64.608C8.16 64.928 8.928 65.088 9.888 65.088C10.848 65.088 11.584 64.928 12.096 64.608C12.672 64.224 13.088 63.808 13.344 63.36C13.6 62.848 13.728 62.336 13.728 61.824C13.792 61.248 13.824 60.736 13.824 60.288V27.168H19.776Z" fill="black"/>
<path d="M42.465 36.96C46.049 37.536 48.577 39.008 50.049 41.376C51.585 43.68 52.353 46.432 52.353 49.632V84.192C52.353 85.984 52.097 87.648 51.585 89.184C51.137 90.784 50.401 92.16 49.377 93.312C48.353 94.464 47.009 95.36 45.345 96C43.745 96.704 41.793 97.056 39.489 97.056C37.185 97.056 35.201 96.704 33.537 96C31.937 95.36 30.625 94.464 29.601 93.312C28.577 92.16 27.809 90.784 27.297 89.184C26.849 87.648 26.625 85.984 26.625 84.192V49.632C26.625 46.432 27.361 43.68 28.833 41.376C30.369 39.008 32.929 37.536 36.513 36.96V27.168H42.465V36.96ZM46.401 48.48C46.401 47.008 46.049 45.728 45.345 44.64C44.705 43.488 43.745 42.656 42.465 42.144V56.256H36.513V42.144C35.233 42.656 34.241 43.488 33.537 44.64C32.897 45.728 32.577 47.008 32.577 48.48V85.344C32.577 87.2 33.185 88.8 34.401 90.144C35.617 91.552 37.313 92.256 39.489 92.256C41.665 92.256 43.361 91.552 44.577 90.144C45.793 88.8 46.401 87.2 46.401 85.344V48.48Z" fill="black"/>
<path d="M84.018 26.592C85.106 26.592 86.162 26.72 87.186 26.976C88.274 27.232 89.234 27.744 90.066 28.512C90.962 29.216 91.666 30.24 92.178 31.584C92.69 32.928 92.946 34.688 92.946 36.864V69.312H86.994V36.192C86.994 35.744 86.962 35.264 86.898 34.752C86.898 34.176 86.77 33.664 86.514 33.216C86.258 32.704 85.842 32.288 85.266 31.968C84.754 31.584 84.018 31.392 83.058 31.392C82.098 31.392 81.33 31.584 80.754 31.968C80.242 32.288 79.858 32.704 79.602 33.216C79.346 33.664 79.186 34.176 79.122 34.752C79.122 35.264 79.122 35.744 79.122 36.192V56.256H73.074V35.52C73.074 34.368 72.69 33.408 71.922 32.64C71.154 31.808 70.226 31.392 69.138 31.392C68.05 31.392 67.122 31.776 66.354 32.544C65.65 33.312 65.266 34.24 65.202 35.328V69.312H59.25V16.32C59.25 14.4 59.57 12.832 60.21 11.616C60.85 10.4 61.65 9.44 62.61 8.736C63.634 8.032 64.722 7.552 65.874 7.296C67.026 7.04 68.114 6.912 69.138 6.912H77.01C77.97 6.912 78.706 6.752 79.218 6.432C79.794 6.048 80.21 5.632 80.466 5.184C80.722 4.672 80.85 4.16 80.85 3.648C80.914 3.072 80.946 2.56 80.946 2.112V0H86.898V1.44C86.898 3.616 86.578 5.376 85.938 6.72001C85.298 8.064 84.498 9.12 83.538 9.888C82.578 10.592 81.522 11.072 80.37 11.328C79.218 11.584 78.098 11.712 77.01 11.712H69.138C68.178 11.712 67.41 11.904 66.834 12.288C66.322 12.608 65.938 13.024 65.682 13.536C65.426 13.984 65.266 14.496 65.202 15.072C65.202 15.584 65.202 16.064 65.202 16.512V29.088C66.098 28.384 67.058 27.808 68.082 27.36C69.106 26.848 70.258 26.592 71.538 26.592C74.162 26.592 75.922 27.552 76.818 29.472C77.33 28.768 78.13 28.128 79.218 27.552C80.306 26.912 81.906 26.592 84.018 26.592Z" fill="black"/>
<path d="M104.687 69.312H98.7345V36.864C98.7345 34.688 99.0545 32.928 99.6945 31.584C100.335 30.24 101.134 29.216 102.094 28.512C103.054 27.744 104.11 27.232 105.262 26.976C106.414 26.72 107.535 26.592 108.622 26.592C109.71 26.592 110.83 26.72 111.982 26.976C113.134 27.232 114.191 27.744 115.151 28.512C116.111 29.216 116.91 30.24 117.55 31.584C118.19 32.928 118.51 34.688 118.51 36.864V69.312H112.559V36.192C112.559 35.744 112.527 35.264 112.463 34.752C112.463 34.176 112.334 33.664 112.078 33.216C111.822 32.704 111.406 32.288 110.83 31.968C110.318 31.584 109.582 31.392 108.622 31.392C107.662 31.392 106.895 31.584 106.319 31.968C105.807 32.288 105.423 32.704 105.167 33.216C104.911 33.664 104.751 34.176 104.687 34.752C104.687 35.264 104.687 35.744 104.687 36.192V69.312Z" fill="black"/>
<path d="M141.09 36.96C144.674 37.536 147.202 39.008 148.674 41.376C150.21 43.68 150.978 46.432 150.978 49.632V84.192C150.978 85.984 150.722 87.648 150.21 89.184C149.762 90.784 149.026 92.16 148.002 93.312C146.978 94.464 145.634 95.36 143.97 96C142.37 96.704 140.418 97.056 138.114 97.056C135.81 97.056 133.826 96.704 132.162 96C130.562 95.36 129.25 94.464 128.226 93.312C127.202 92.16 126.434 90.784 125.922 89.184C125.474 87.648 125.25 85.984 125.25 84.192V49.632C125.25 46.432 125.986 43.68 127.458 41.376C128.994 39.008 131.554 37.536 135.138 36.96V27.168H141.09V36.96ZM145.026 48.48C145.026 47.008 144.674 45.728 143.97 44.64C143.33 43.488 142.37 42.656 141.09 42.144V56.256H135.138V42.144C133.858 42.656 132.866 43.488 132.162 44.64C131.522 45.728 131.202 47.008 131.202 48.48V85.344C131.202 87.2 131.81 88.8 133.026 90.144C134.242 91.552 135.938 92.256 138.114 92.256C140.29 92.256 141.986 91.552 143.202 90.144C144.418 88.8 145.026 87.2 145.026 85.344V48.48Z" fill="black"/>
<path d="M181.846 29.952C187.862 29.952 190.87 32.96 190.87 38.976V59.616C190.87 61.792 190.55 63.552 189.91 64.896C189.27 66.24 188.47 67.296 187.51 68.064C186.55 68.768 185.494 69.248 184.342 69.504C183.19 69.76 182.07 69.888 180.982 69.888C179.894 69.888 178.774 69.76 177.622 69.504C176.47 69.248 175.414 68.768 174.454 68.064C173.494 67.296 172.694 66.24 172.054 64.896C171.414 63.552 171.094 61.792 171.094 59.616V46.656H177.046V60.288C177.046 60.736 177.046 61.248 177.046 61.824C177.11 62.336 177.27 62.848 177.526 63.36C177.782 63.808 178.166 64.224 178.678 64.608C179.254 64.928 180.022 65.088 180.982 65.088C181.942 65.088 182.678 64.928 183.19 64.608C183.766 64.224 184.182 63.808 184.438 63.36C184.694 62.848 184.822 62.336 184.822 61.824C184.886 61.248 184.918 60.736 184.918 60.288V37.92C184.918 36.96 184.662 36.192 184.15 35.616C183.638 35.04 182.87 34.752 181.846 34.752C181.142 34.752 180.31 34.656 179.35 34.464C178.39 34.208 177.494 33.792 176.662 33.216C175.83 32.64 175.126 31.872 174.55 30.912C173.974 29.952 173.686 28.704 173.686 27.168H178.774C178.774 27.872 178.934 28.512 179.254 29.088C179.638 29.664 180.502 29.952 181.846 29.952Z" fill="black"/>
<path d="M222.581 26.592C223.669 26.592 224.725 26.72 225.749 26.976C226.837 27.232 227.797 27.744 228.629 28.512C229.525 29.216 230.229 30.24 230.74 31.584C231.253 32.928 231.508 34.688 231.508 36.864V69.312H225.557V36.192C225.557 35.744 225.524 35.264 225.46 34.752C225.46 34.176 225.333 33.664 225.077 33.216C224.821 32.704 224.405 32.288 223.829 31.968C223.317 31.584 222.581 31.392 221.62 31.392C220.66 31.392 219.893 31.584 219.316 31.968C218.805 32.288 218.421 32.704 218.165 33.216C217.909 33.664 217.748 34.176 217.684 34.752C217.684 35.264 217.684 35.744 217.684 36.192V56.256H211.637V35.52C211.637 34.368 211.253 33.408 210.484 32.64C209.716 31.808 208.788 31.392 207.701 31.392C206.613 31.392 205.685 31.776 204.917 32.544C204.213 33.312 203.828 34.24 203.764 35.328V69.312H197.812V16.32C197.812 14.4 198.133 12.832 198.773 11.616C199.413 10.4 200.212 9.44 201.173 8.736C202.197 8.032 203.285 7.552 204.436 7.296C205.588 7.04 206.676 6.912 207.701 6.912H215.572C216.533 6.912 217.269 6.752 217.781 6.432C218.357 6.048 218.773 5.632 219.029 5.184C219.285 4.672 219.413 4.16 219.413 3.648C219.477 3.072 219.508 2.56 219.508 2.112V0H225.46V1.44C225.46 3.616 225.141 5.376 224.501 6.72001C223.861 8.064 223.061 9.12 222.1 9.888C221.141 10.592 220.085 11.072 218.932 11.328C217.78 11.584 216.66 11.712 215.572 11.712H207.701C206.74 11.712 205.973 11.904 205.396 12.288C204.885 12.608 204.501 13.024 204.245 13.536C203.989 13.984 203.828 14.496 203.764 15.072C203.764 15.584 203.764 16.064 203.764 16.512V29.088C204.66 28.384 205.62 27.808 206.645 27.36C207.669 26.848 208.82 26.592 210.1 26.592C212.724 26.592 214.485 27.552 215.381 29.472C215.893 28.768 216.693 28.128 217.781 27.552C218.868 26.912 220.469 26.592 222.581 26.592Z" fill="black"/>
<path d="M254.152 36.96C257.737 37.536 260.265 39.008 261.737 41.376C263.273 43.68 264.04 46.432 264.04 49.632V84.192C264.04 85.984 263.784 87.648 263.272 89.184C262.824 90.784 262.089 92.16 261.065 93.312C260.041 94.464 258.697 95.36 257.033 96C255.432 96.704 253.48 97.056 251.176 97.056C248.872 97.056 246.889 96.704 245.225 96C243.624 95.36 242.312 94.464 241.288 93.312C240.264 92.16 239.496 90.784 238.984 89.184C238.536 87.648 238.312 85.984 238.312 84.192V49.632C238.312 46.432 239.049 43.68 240.521 41.376C242.057 39.008 244.617 37.536 248.201 36.96V27.168H254.152V36.96ZM258.089 48.48C258.089 47.008 257.737 45.728 257.033 44.64C256.393 43.488 255.432 42.656 254.152 42.144V56.256H248.201V42.144C246.921 42.656 245.928 43.488 245.225 44.64C244.585 45.728 244.264 47.008 244.264 48.48V85.344C244.264 87.2 244.872 88.8 246.089 90.144C247.305 91.552 249.001 92.256 251.176 92.256C253.352 92.256 255.048 91.552 256.264 90.144C257.48 88.8 258.089 87.2 258.089 85.344V48.48Z" fill="black"/>
<path d="M277.561 69.312H271.609V36.864C271.609 34.688 271.929 32.928 272.569 31.584C273.21 30.24 274.01 29.216 274.97 28.512C275.93 27.744 276.986 27.232 278.138 26.976C279.29 26.72 280.409 26.592 281.497 26.592C282.586 26.592 283.706 26.72 284.858 26.976C286.01 27.232 287.066 27.744 288.026 28.512C288.986 29.216 289.786 30.24 290.426 31.584C291.066 32.928 291.385 34.688 291.385 36.864V69.312H285.434V36.192C285.434 35.744 285.401 35.264 285.337 34.752C285.337 34.176 285.21 33.664 284.953 33.216C284.697 32.704 284.281 32.288 283.706 31.968C283.194 31.584 282.457 31.392 281.497 31.392C280.538 31.392 279.77 31.584 279.194 31.968C278.682 32.288 278.298 32.704 278.042 33.216C277.785 33.664 277.625 34.176 277.561 34.752C277.561 35.264 277.561 35.744 277.561 36.192V69.312Z" fill="black"/>
</svg>
