<svg width="764" height="104" viewBox="0 0 764 104" fill="none" xmlns="http://www.w3.org/2000/svg">
<path d="M0 46.4102H764V60.4102H0V46.4102Z" fill="black"/>
<path d="M620.512 83.7542C622.168 83.7542 623.584 84.1142 624.76 84.8342C625.96 85.5542 626.872 86.5742 627.496 87.8942C628.144 89.1902 628.468 90.7142 628.468 92.4662V94.3742H615.256C615.304 96.5582 615.856 98.2262 616.912 99.3782C617.992 100.506 619.492 101.07 621.412 101.07C622.636 101.07 623.716 100.962 624.652 100.746C625.612 100.506 626.596 100.17 627.604 99.7382V102.51C626.62 102.942 625.648 103.254 624.688 103.446C623.728 103.662 622.588 103.77 621.268 103.77C619.444 103.77 617.824 103.398 616.408 102.654C615.016 101.91 613.924 100.806 613.132 99.3422C612.364 97.8542 611.98 96.0422 611.98 93.9062C611.98 91.7942 612.328 89.9822 613.024 88.4702C613.744 86.9582 614.74 85.7942 616.012 84.9782C617.308 84.1622 618.808 83.7542 620.512 83.7542ZM620.476 86.3462C618.964 86.3462 617.764 86.8382 616.876 87.8222C616.012 88.7822 615.496 90.1262 615.328 91.8542H625.156C625.156 90.7502 624.988 89.7902 624.652 88.9742C624.316 88.1581 623.8 87.5222 623.104 87.0662C622.432 86.5862 621.556 86.3462 620.476 86.3462Z" fill="black"/>
<path d="M645.944 98.0822C645.944 99.3302 645.632 100.374 645.008 101.214C644.384 102.054 643.496 102.69 642.344 103.122C641.192 103.554 639.824 103.77 638.24 103.77C636.896 103.77 635.732 103.662 634.748 103.446C633.788 103.23 632.936 102.93 632.192 102.546V99.6662C632.96 100.05 633.884 100.41 634.964 100.746C636.068 101.058 637.184 101.214 638.312 101.214C639.92 101.214 641.084 100.962 641.804 100.458C642.524 99.9302 642.884 99.2342 642.884 98.3702C642.884 97.8902 642.752 97.4582 642.488 97.0742C642.224 96.6902 641.744 96.3062 641.048 95.9222C640.376 95.5382 639.404 95.1062 638.132 94.6262C636.884 94.1461 635.816 93.6662 634.928 93.1862C634.04 92.7062 633.356 92.1301 632.876 91.4582C632.396 90.7862 632.156 89.9222 632.156 88.8662C632.156 87.2342 632.816 85.9742 634.136 85.0862C635.48 84.1982 637.232 83.7542 639.392 83.7542C640.568 83.7542 641.66 83.8742 642.668 84.1142C643.7 84.3302 644.66 84.6422 645.548 85.0502L644.468 87.5702C643.94 87.3302 643.376 87.1262 642.776 86.9582C642.2 86.7662 641.612 86.6222 641.012 86.5262C640.412 86.4062 639.8 86.3462 639.176 86.3462C637.88 86.3462 636.884 86.5622 636.188 86.9942C635.516 87.4022 635.18 87.9662 635.18 88.6862C635.18 89.2142 635.336 89.6702 635.648 90.0542C635.96 90.4142 636.476 90.7742 637.196 91.1342C637.94 91.4702 638.924 91.8782 640.148 92.3582C641.372 92.8142 642.416 93.2822 643.28 93.7622C644.144 94.2422 644.804 94.8302 645.26 95.5262C645.716 96.1982 645.944 97.0502 645.944 98.0822Z" fill="black"/>
<path d="M657.051 101.178C657.531 101.178 658.023 101.142 658.527 101.07C659.031 100.974 659.439 100.878 659.751 100.782V103.194C659.415 103.362 658.935 103.494 658.311 103.59C657.687 103.71 657.087 103.77 656.511 103.77C655.503 103.77 654.567 103.602 653.703 103.266C652.863 102.906 652.179 102.294 651.651 101.43C651.123 100.566 650.859 99.3542 650.859 97.7942V86.5622H648.123V85.0502L650.895 83.7902L652.155 79.6862H654.027V84.1142H659.607V86.5622H654.027V97.7222C654.027 98.8982 654.303 99.7742 654.855 100.35C655.431 100.902 656.163 101.178 657.051 101.178Z" fill="black"/>
<path d="M663.147 101.466C663.147 100.578 663.363 99.9542 663.795 99.5942C664.227 99.2342 664.743 99.0542 665.343 99.0542C665.967 99.0542 666.495 99.2342 666.927 99.5942C667.383 99.9542 667.611 100.578 667.611 101.466C667.611 102.33 667.383 102.954 666.927 103.338C666.495 103.722 665.967 103.914 665.343 103.914C664.743 103.914 664.227 103.722 663.795 103.338C663.363 102.954 663.147 102.33 663.147 101.466Z" fill="black"/>
<path d="M699.982 103.41H682.99V100.782L689.722 93.9782C691.018 92.6822 692.11 91.5302 692.998 90.5222C693.886 89.5142 694.558 88.5302 695.014 87.5702C695.47 86.5862 695.698 85.5182 695.698 84.3662C695.698 82.9502 695.278 81.8822 694.438 81.1622C693.598 80.4182 692.506 80.0462 691.162 80.0462C689.914 80.0462 688.81 80.2622 687.85 80.6942C686.914 81.1262 685.954 81.7262 684.97 82.4942L683.278 80.3702C683.95 79.7942 684.682 79.2782 685.474 78.8222C686.29 78.3662 687.166 78.0062 688.102 77.7422C689.062 77.4782 690.082 77.3462 691.162 77.3462C692.77 77.3462 694.15 77.6222 695.302 78.1742C696.454 78.7262 697.342 79.5182 697.966 80.5502C698.614 81.5582 698.938 82.7702 698.938 84.1862C698.938 85.1942 698.782 86.1542 698.47 87.0662C698.158 87.9542 697.714 88.8302 697.138 89.6942C696.562 90.5582 695.866 91.4342 695.05 92.3222C694.234 93.2102 693.334 94.1342 692.35 95.0942L686.986 100.386V100.53H699.982V103.41Z" fill="black"/>
<path d="M720.691 90.5222C720.691 92.6102 720.535 94.4702 720.223 96.1022C719.911 97.7342 719.407 99.1262 718.711 100.278C718.039 101.406 717.151 102.27 716.047 102.87C714.967 103.47 713.659 103.77 712.123 103.77C710.203 103.77 708.607 103.242 707.335 102.186C706.087 101.13 705.151 99.6182 704.527 97.6502C703.927 95.6582 703.627 93.2822 703.627 90.5222C703.627 87.7382 703.903 85.3622 704.455 83.3942C705.031 81.4262 705.943 79.9262 707.191 78.8942C708.439 77.8382 710.083 77.3102 712.123 77.3102C714.043 77.3102 715.639 77.8382 716.911 78.8942C718.183 79.9262 719.131 81.4262 719.755 83.3942C720.379 85.3622 720.691 87.7382 720.691 90.5222ZM706.795 90.5222C706.795 92.8742 706.963 94.8302 707.299 96.3902C707.659 97.9502 708.223 99.1262 708.991 99.9182C709.783 100.686 710.827 101.07 712.123 101.07C713.419 101.07 714.451 100.686 715.219 99.9182C716.011 99.1502 716.587 97.9862 716.947 96.4262C717.307 94.8422 717.487 92.8742 717.487 90.5222C717.487 88.1702 717.307 86.2262 716.947 84.6902C716.587 83.1302 716.011 81.9662 715.219 81.1982C714.451 80.4062 713.419 80.0102 712.123 80.0102C710.827 80.0102 709.783 80.4062 708.991 81.1982C708.223 81.9662 707.659 83.1302 707.299 84.6902C706.963 86.2262 706.795 88.1702 706.795 90.5222Z" fill="black"/>
<path d="M741.185 103.41H724.193V100.782L730.925 93.9782C732.221 92.6822 733.313 91.5302 734.201 90.5222C735.089 89.5142 735.761 88.5302 736.217 87.5702C736.673 86.5862 736.901 85.5182 736.901 84.3662C736.901 82.9502 736.481 81.8822 735.641 81.1622C734.801 80.4182 733.709 80.0462 732.365 80.0462C731.117 80.0462 730.013 80.2622 729.053 80.6942C728.117 81.1262 727.157 81.7262 726.173 82.4942L724.481 80.3702C725.153 79.7942 725.885 79.2782 726.677 78.8222C727.493 78.3662 728.369 78.0062 729.305 77.7422C730.265 77.4782 731.285 77.3462 732.365 77.3462C733.973 77.3462 735.353 77.6222 736.505 78.1742C737.657 78.7262 738.545 79.5182 739.169 80.5502C739.817 81.5582 740.141 82.7702 740.141 84.1862C740.141 85.1942 739.985 86.1542 739.673 87.0662C739.361 87.9542 738.917 88.8302 738.341 89.6942C737.765 90.5582 737.069 91.4342 736.253 92.3222C735.437 93.2102 734.537 94.1342 733.553 95.0942L728.189 100.386V100.53H741.185V103.41Z" fill="black"/>
<path d="M752.966 87.6422C754.718 87.6422 756.242 87.9422 757.538 88.5422C758.834 89.1422 759.83 90.0062 760.526 91.1342C761.246 92.2382 761.606 93.5942 761.606 95.2022C761.606 96.9782 761.222 98.5142 760.454 99.8102C759.686 101.082 758.582 102.066 757.142 102.762C755.726 103.434 754.01 103.77 751.994 103.77C750.674 103.77 749.426 103.65 748.25 103.41C747.098 103.17 746.126 102.822 745.334 102.366V99.3782C746.198 99.9062 747.242 100.326 748.466 100.638C749.714 100.926 750.902 101.07 752.03 101.07C753.302 101.07 754.406 100.878 755.342 100.494C756.302 100.086 757.046 99.4742 757.574 98.6582C758.102 97.8182 758.366 96.7742 758.366 95.5262C758.366 93.8462 757.85 92.5622 756.818 91.6742C755.786 90.7622 754.154 90.3062 751.922 90.3062C751.25 90.3062 750.482 90.3661 749.618 90.4862C748.754 90.6062 748.058 90.7262 747.53 90.8462L745.946 89.8382L746.918 77.7062H759.806V80.5862H749.618L749.006 88.0382C749.414 87.9662 749.966 87.8822 750.662 87.7862C751.358 87.6902 752.126 87.6422 752.966 87.6422Z" fill="black"/>
<path d="M542.684 11.707C543.918 11.707 545.078 12.8672 546.164 15.1875C547.367 15.1875 548.281 16.8477 548.906 20.168L548.402 20.4141H547.91C547.512 20.3906 546.93 19.3945 546.164 17.4258H545.672C545.672 18.3945 544.012 19.8047 540.691 21.6562H539.449C538.285 20.9219 537.703 20.0938 537.703 19.1719C537.703 17.1016 538.699 14.9453 540.691 12.7031L542.684 11.707ZM539.449 17.9297V19.418C539.496 19.7539 539.66 19.9219 539.941 19.9219H540.691C541.73 19.4531 542.977 18.207 544.43 16.1836C543.812 14.3555 543.23 13.4414 542.684 13.4414C541.855 13.4414 540.777 14.9375 539.449 17.9297Z" fill="black"/>
<path d="M552.035 8.71875L552.293 9.21094C552.121 9.53125 552.035 9.78125 552.035 9.96094C556.184 12.625 558.258 14.8633 558.258 16.6758V16.9336C558.258 18.793 557.18 20.2031 555.023 21.1641C552.938 21.1641 551.609 19.7539 551.039 16.9336C551.039 16.5586 550.957 16.2266 550.793 15.9375C550.957 15.6172 551.039 15.3672 551.039 15.1875H551.297C551.562 15.4219 552.141 16.832 553.031 19.418C553.578 19.7539 554.078 19.9219 554.531 19.9219C555.312 19.9219 556.141 19.2578 557.016 17.9297V16.9336C557.016 15.2695 555.109 13.2773 551.297 10.957C550.797 10.4102 550.547 9.99609 550.547 9.71484C550.711 9.05078 551.207 8.71875 552.035 8.71875Z" fill="black"/>
<path d="M563.133 12.7031H564.375L564.879 14.4375C564.879 16.1641 564.711 17.4922 564.375 18.4219C568.359 18.4219 570.352 19.832 570.352 22.6523V23.6484C570.352 26.3047 568.113 28.5469 563.637 30.375H562.887C561.402 30.375 560.406 29.2109 559.898 26.8828L560.391 26.6367H561.387C561.605 28.293 562.27 29.1211 563.379 29.1211C567.035 27.2148 568.863 25.3906 568.863 23.6484V21.6562C567.91 20.1641 566.914 19.418 565.875 19.418H563.883C563.641 19.418 563.391 19.168 563.133 18.668C563.133 18.1836 563.301 16.8555 563.637 14.6836H562.383C562.383 14.3789 562.633 13.7188 563.133 12.7031Z" fill="black"/>
<path d="M572.742 1.74609C574.773 3.07422 576.184 3.73828 576.973 3.73828H577.219L578.461 2.74219H579.703C580.039 2.79688 580.207 2.96094 580.207 3.23438V3.73828C579.043 4.68359 578.461 5.51172 578.461 6.22266C578.297 7.13672 578.215 7.80078 578.215 8.21484C578.215 9.61328 579.461 12.5195 581.953 16.9336C582.445 17.9492 582.691 18.6133 582.691 18.9258V19.9219C582.371 20.75 581.461 21.1641 579.961 21.1641C577.305 19.5703 575.977 18.1602 575.977 16.9336V16.4297C576.305 14.7734 577.133 13.9453 578.461 13.9453V13.4414C577.305 11.3555 576.727 9.61328 576.727 8.21484C576.891 6.16016 576.973 5.08203 576.973 4.98047C573.652 4.41016 571.992 3.74609 571.992 2.98828V2.49609C571.992 2.25391 572.242 2.00391 572.742 1.74609ZM577.723 16.6758C578.527 18.5039 579.52 19.418 580.699 19.418L580.957 18.9258C580.957 18.418 580.293 16.9219 578.965 14.4375C578.137 15.1016 577.723 15.8477 577.723 16.6758Z" fill="black"/>
<path d="M589.57 12.7031C590.992 12.7031 592.734 16.1016 594.797 22.8984V23.4023C594.797 25.332 593.555 27.2383 591.07 29.1211C589.445 29.6211 588.449 29.8711 588.082 29.8711C586.645 29.8711 585.398 29.207 584.344 27.8789V27.1406H585.094C586.047 27.8047 586.957 28.2188 587.824 28.3828C590.348 28.3828 592.176 26.8867 593.309 23.8945V22.4062C592.645 19.8359 591.48 17.0977 589.816 14.1914H589.57V14.4375L589.816 15.9375V16.1836H588.574C588.574 15.6836 588.324 15.4336 587.824 15.4336V14.9414L588.574 13.1953C588.98 12.8672 589.312 12.7031 589.57 12.7031Z" fill="black"/>
<path d="M602.66 9.21094H603.656C604.086 11.7891 605.082 15.1914 606.645 19.418C607.309 21.1211 607.641 22.4492 607.641 23.4023C606.891 25.9727 605.562 27.7148 603.656 28.6289C601.75 29.293 600.754 29.625 600.668 29.625C598.676 29.1484 597.68 28.6523 597.68 28.1367C597.734 27.8008 597.902 27.6328 598.184 27.6328L601.172 27.8789C604.156 27.0117 605.648 25.4375 605.648 23.1562C605.812 23.1562 605.895 23.0703 605.895 22.8984C605.348 19.5547 604.52 17.0664 603.41 15.4336V13.9453H603.164L601.664 15.1875H599.672C598.492 15.1875 597.414 14.1094 596.438 11.9531V9.71484H597.68V10.7109C597.68 10.875 597.598 10.957 597.434 10.957C597.965 13.1133 599.043 14.1914 600.668 14.1914H601.172C602 12.5664 602.496 10.9062 602.66 9.21094Z" fill="black"/>
<path d="M617.742 0.246094L618.492 1.5V2.49609C618.492 2.82422 618.324 2.98828 617.988 2.98828H617.496V1.74609H617.25C615.07 4.36328 612.828 8.34766 610.523 13.6992L610.031 13.9453L609.527 13.1953C613.402 4.5625 616.141 0.246094 617.742 0.246094ZM616.008 14.9414C617.5 15.4727 618.246 16.8008 618.246 18.9258C617.996 20.7461 617.664 21.6562 617.25 21.6562C617.008 21.6562 616.758 21.4102 616.5 20.918L616.746 17.9297C616.355 16.9297 616.023 16.4297 615.75 16.4297C615.562 16.4297 614.984 17.0117 614.016 18.1758H613.02C612.605 17.9648 611.941 17.3828 611.027 16.4297H610.77V16.6758L611.52 17.9297V19.1719C611.191 19.5781 611.027 19.9102 611.027 20.168H610.031C609.531 20.168 609.281 19.2539 609.281 17.4258C609.445 15.9336 609.777 15.1875 610.277 15.1875H610.77C611.457 15.1875 612.371 15.7695 613.512 16.9336C614.191 15.6055 615.023 14.9414 616.008 14.9414Z" fill="black"/>
<path d="M624.867 10.7109C626.812 10.7109 628.223 12.9492 629.098 17.4258C629.098 17.7148 629.262 18.1289 629.59 18.668C629.426 19.168 629.262 19.418 629.098 19.418C628.309 19.418 627.727 18.1719 627.352 15.6797C627.164 15.6797 626.668 14.6875 625.863 12.7031L624.867 12.1992C623.828 12.1992 622.832 13.8594 621.879 17.1797V19.418C621.879 19.6602 621.629 19.9102 621.129 20.168H620.883C620.383 20.0039 620.133 19.5039 620.133 18.668V17.6719C620.133 17.0781 620.215 16.332 620.379 15.4336V14.1914C621.262 14.1914 621.926 13.5273 622.371 12.1992C623.293 11.207 624.125 10.7109 624.867 10.7109Z" fill="black"/>
<path d="M631.242 1.5H631.734C632.57 3.22656 632.988 6.62891 632.988 11.707L632.73 13.1953C632.73 16.7031 633.562 18.7773 635.227 19.418C636.602 19.418 637.598 18.7539 638.215 17.4258C638.215 17.0977 638.047 16.2695 637.711 14.9414H637.969C638.961 15.6445 639.457 16.3906 639.457 17.1797C638.816 19.3359 637.738 20.4141 636.223 20.4141C635.902 20.5781 635.652 20.6602 635.473 20.6602C633.73 20.6602 632.484 19.332 631.734 16.6758C631.57 15.543 631.488 14.6328 631.488 13.9453C631.488 13.7656 631.57 13.5156 631.734 13.1953C631.734 13.0312 631.652 12.9492 631.488 12.9492L631.734 11.707V11.2031C631.734 10.3281 631.652 9.58203 631.488 8.96484C631.652 8.08984 631.734 7.26172 631.734 6.48047C631.734 4.81641 631.57 3.15625 631.242 1.5Z" fill="black"/>
<path d="M649.957 8.71875L650.215 9.21094C650.043 9.53125 649.957 9.78125 649.957 9.96094C654.105 12.625 656.18 14.8633 656.18 16.6758V16.9336C656.18 18.793 655.102 20.2031 652.945 21.1641C650.859 21.1641 649.531 19.7539 648.961 16.9336C648.961 16.5586 648.879 16.2266 648.715 15.9375C648.879 15.6172 648.961 15.3672 648.961 15.1875H649.219C649.484 15.4219 650.062 16.832 650.953 19.418C651.5 19.7539 652 19.9219 652.453 19.9219C653.234 19.9219 654.062 19.2578 654.938 17.9297V16.9336C654.938 15.2695 653.031 13.2773 649.219 10.957C648.719 10.4102 648.469 9.99609 648.469 9.71484C648.633 9.05078 649.129 8.71875 649.957 8.71875Z" fill="black"/>
<path d="M661.301 13.1953C663.598 13.1953 664.844 14.1094 665.039 15.9375C665.039 18.0547 664.293 19.2969 662.801 19.6641H661.301V20.168C662.355 22.6602 665.094 25.5625 669.516 28.875V29.1211C669.516 29.457 669.352 29.625 669.023 29.625C666.344 28.6094 664.02 26.6992 662.051 23.8945C660.176 22.0352 658.766 19.0508 657.82 14.9414C657.82 13.7773 658.98 13.1953 661.301 13.1953ZM659.812 14.9414V15.4336C659.812 17.3633 660.559 18.4414 662.051 18.668H662.297C662.961 17.6758 663.293 16.7656 663.293 15.9375V15.4336C662.871 14.6055 662.207 14.1914 661.301 14.1914C660.309 14.293 659.812 14.543 659.812 14.9414Z" fill="black"/>
<path d="M674.66 12.9492C675.496 12.9492 675.914 13.4453 675.914 14.4375V14.6836C675.914 15.4023 675.496 16.6484 674.66 18.4219C676.246 18.4219 678.156 20.8281 680.391 25.6406C680.391 26.1953 680.473 26.6094 680.637 26.8828C680.637 28.75 679.477 29.8281 677.156 30.1172C673.172 28.9531 671.18 26.7969 671.18 23.6484C671.18 22.1719 672.094 20.7617 673.922 19.418C674.25 19.4727 674.414 19.6406 674.414 19.9219V20.168C673.25 21.3789 672.668 22.375 672.668 23.1562V24.3984C672.668 26.5703 674.328 28.0625 677.648 28.875C678.648 28.6172 679.148 28.0391 679.148 27.1406V26.6367C679.148 24.7148 677.738 22.3906 674.918 19.6641C674.395 19.6641 673.895 19.25 673.418 18.4219C674.418 16.3906 674.918 14.9805 674.918 14.1914H673.664L673.418 15.1875H672.668V14.1914C673.098 13.3633 673.762 12.9492 674.66 12.9492Z" fill="black"/>
<path d="M687.023 10.7109C688.969 10.7109 690.379 12.9492 691.254 17.4258C691.254 17.7148 691.418 18.1289 691.746 18.668C691.582 19.168 691.418 19.418 691.254 19.418C690.465 19.418 689.883 18.1719 689.508 15.6797C689.32 15.6797 688.824 14.6875 688.02 12.7031L687.023 12.1992C685.984 12.1992 684.988 13.8594 684.035 17.1797V19.418C684.035 19.6602 683.785 19.9102 683.285 20.168H683.039C682.539 20.0039 682.289 19.5039 682.289 18.668V17.6719C682.289 17.0781 682.371 16.332 682.535 15.4336V14.1914C683.418 14.1914 684.082 13.5273 684.527 12.1992C685.449 11.207 686.281 10.7109 687.023 10.7109Z" fill="black"/>
<path d="M712.312 11.707H713.309C714.699 11.707 716.027 12.5352 717.293 14.1914C718.121 14.9258 718.535 15.5898 718.535 16.1836L718.043 16.4297H717.293C715.504 14.4375 714.176 13.4414 713.309 13.4414C711.926 13.4414 710.434 15.0195 708.832 18.1758H707.59C706.863 17.5586 706.199 16.5625 705.598 15.1875C704.559 14.1953 703.727 13.6992 703.102 13.6992C702.609 13.8633 702.363 14.0273 702.363 14.1914C702.691 14.7383 702.855 15.2344 702.855 15.6797V17.4258C702.855 18.2852 702.605 18.7852 702.105 18.9258H701.109C700.852 18.9258 700.438 18.3438 699.867 17.1797V14.9414L700.125 14.4375C699.023 13.9453 698.273 13.6992 697.875 13.6992H697.383C695.891 13.6992 695.145 14.6094 695.145 16.4297V17.4258C696.551 20.918 698.789 23.4062 701.859 24.8906C703.406 25.8906 705.48 26.8867 708.082 27.8789L708.328 28.3828V28.875C708.008 29.7031 707.098 30.1172 705.598 30.1172C701.949 30.1172 700.125 29.457 700.125 28.1367L700.617 27.8789H700.863C701.324 28.3789 702.57 28.7109 704.602 28.875V28.6289C704.078 28.0586 702.254 26.9805 699.129 25.3945C695.309 21.9414 693.398 19.3672 693.398 17.6719C693.398 14.1875 694.145 12.4453 695.637 12.4453C695.637 12.2812 695.719 12.1992 695.883 12.1992H697.629C698.184 12.1992 699.344 12.3672 701.109 12.7031C701.945 12.2031 702.527 11.9531 702.855 11.9531C704.605 12.1016 706.266 13.2617 707.836 15.4336H708.082C709.324 13.6133 710.734 12.3711 712.312 11.707Z" fill="black"/>
<path d="M724.922 10.7109C726.867 10.7109 728.277 12.9492 729.152 17.4258C729.152 17.7148 729.316 18.1289 729.645 18.668C729.48 19.168 729.316 19.418 729.152 19.418C728.363 19.418 727.781 18.1719 727.406 15.6797C727.219 15.6797 726.723 14.6875 725.918 12.7031L724.922 12.1992C723.883 12.1992 722.887 13.8594 721.934 17.1797V19.418C721.934 19.6602 721.684 19.9102 721.184 20.168H720.938C720.438 20.0039 720.188 19.5039 720.188 18.668V17.6719C720.188 17.0781 720.27 16.332 720.434 15.4336V14.1914C721.316 14.1914 721.98 13.5273 722.426 12.1992C723.348 11.207 724.18 10.7109 724.922 10.7109Z" fill="black"/>
<path d="M732.322 20.1142C732.322 19.5222 732.466 19.1062 732.754 18.8662C733.042 18.6262 733.386 18.5062 733.786 18.5062C734.202 18.5062 734.554 18.6262 734.842 18.8662C735.146 19.1062 735.298 19.5222 735.298 20.1142C735.298 20.6902 735.146 21.1062 734.842 21.3622C734.554 21.6182 734.202 21.7462 733.786 21.7462C733.386 21.7462 733.042 21.6182 732.754 21.3622C732.466 21.1062 732.322 20.6902 732.322 20.1142Z" fill="black"/>
<path d="M738.744 20.1142C738.744 19.5222 738.888 19.1062 739.176 18.8662C739.464 18.6262 739.808 18.5062 740.208 18.5062C740.624 18.5062 740.976 18.6262 741.264 18.8662C741.568 19.1062 741.72 19.5222 741.72 20.1142C741.72 20.6902 741.568 21.1062 741.264 21.3622C740.976 21.6182 740.624 21.7462 740.208 21.7462C739.808 21.7462 739.464 21.6182 739.176 21.3622C738.888 21.1062 738.744 20.6902 738.744 20.1142Z" fill="black"/>
<path d="M745.166 20.1142C745.166 19.5222 745.309 19.1062 745.597 18.8662C745.885 18.6262 746.229 18.5062 746.63 18.5062C747.046 18.5062 747.397 18.6262 747.685 18.8662C747.99 19.1062 748.141 19.5222 748.141 20.1142C748.141 20.6902 747.99 21.1062 747.685 21.3622C747.397 21.6182 747.046 21.7462 746.63 21.7462C746.229 21.7462 745.885 21.6182 745.597 21.3622C745.309 21.1062 745.166 20.6902 745.166 20.1142Z" fill="black"/>
<path d="M7.69531 0H8.44531C9.72656 0 11.0547 2.98828 12.4297 8.96484C12.9219 11.1836 13.25 14.0859 13.4141 17.6719C12.9766 19 12.5625 19.6641 12.1719 19.6641C9.10938 19.6641 6.95312 17.8398 5.70312 14.1914V12.7031C6.6875 11.0391 7.68359 10.207 8.69141 10.207C9.01953 10.2617 9.18359 10.4297 9.18359 10.7109C7.85547 11.5859 7.19141 12.7461 7.19141 14.1914C7.50391 15.6289 8.75 17.0391 10.9297 18.4219H11.4336L11.9258 18.1758L11.6797 17.6719C11.6797 17.3047 11.7617 16.9727 11.9258 16.6758C11.7617 16.3555 11.6797 16.1094 11.6797 15.9375L11.9258 14.6836C11.9258 11.0508 10.7656 6.65625 8.44531 1.5H7.94141L6.94531 4.73438H6.19531C6.19531 4.35938 6.11328 4.02734 5.94922 3.73828C5.94922 2.91797 6.53125 1.67188 7.69531 0Z" fill="black"/>
<path d="M15.0781 1.5H15.5703C16.4062 3.22656 16.8242 6.62891 16.8242 11.707L16.5664 13.1953C16.5664 16.7031 17.3984 18.7773 19.0625 19.418C20.4375 19.418 21.4336 18.7539 22.0508 17.4258C22.0508 17.0977 21.8828 16.2695 21.5469 14.9414H21.8047C22.7969 15.6445 23.293 16.3906 23.293 17.1797C22.6523 19.3359 21.5742 20.4141 20.0586 20.4141C19.7383 20.5781 19.4883 20.6602 19.3086 20.6602C17.5664 20.6602 16.3203 19.332 15.5703 16.6758C15.4062 15.543 15.3242 14.6328 15.3242 13.9453C15.3242 13.7656 15.4062 13.5156 15.5703 13.1953C15.5703 13.0312 15.4883 12.9492 15.3242 12.9492L15.5703 11.707V11.2031C15.5703 10.3281 15.4883 9.58203 15.3242 8.96484C15.4883 8.08984 15.5703 7.26172 15.5703 6.48047C15.5703 4.81641 15.4062 3.15625 15.0781 1.5Z" fill="black"/>
<path d="M37.3672 10.207L38.6094 10.957C38.6094 10.793 38.6953 10.7109 38.8672 10.7109C40.3594 11.8594 41.6836 14.0977 42.8398 17.4258L42.3477 17.6719H42.1016C41.7969 17.6719 41.2969 17.0938 40.6016 15.9375C40.7656 15.9375 40.8477 15.8516 40.8477 15.6797C40.6211 15.6719 40.2891 15.2578 39.8516 14.4375C40.0234 14.4375 40.1094 14.3555 40.1094 14.1914C38.7734 12.6992 37.7773 11.9531 37.1211 11.9531H36.6172C35.2891 11.9531 34.1289 12.5352 33.1367 13.6992L33.3828 16.1836C32.5547 16.8477 31.9766 17.1797 31.6484 17.1797C30.9844 17.0156 30.6523 16.6016 30.6523 15.9375C30.8164 15.3125 30.8984 14.3164 30.8984 12.9492C30.6406 12.6133 30.1406 12.4453 29.3984 12.4453V12.1992C28.2734 12.1992 27.2773 13.2773 26.4102 15.4336L26.668 17.1797C27.2227 17.1797 27.6367 16.0195 27.9102 13.6992H28.1562C28.6562 14.793 28.9062 15.5391 28.9062 15.9375C28.1875 17.9297 27.4414 18.9258 26.668 18.9258C26.207 18.9258 25.707 18.1758 25.168 16.6758H24.9219C24.9219 13.8398 26.25 11.9336 28.9062 10.957L30.1484 10.7109C31.3125 11.2969 31.8945 11.875 31.8945 12.4453C33.8398 10.9531 35.6641 10.207 37.3672 10.207Z" fill="black"/>
<path d="M46.7305 9.45703H47.2344C47.7266 9.45703 47.9727 10.3711 47.9727 12.1992L48.4766 11.9531H49.2266C49.5547 12 49.7188 12.1641 49.7188 12.4453V13.9453C49.0547 14.7812 48.7227 15.2773 48.7227 15.4336C51.1055 15.4336 53.1797 17.0938 54.9453 20.4141V23.4023C53.9297 27.5508 52.1055 29.625 49.4727 29.625C48.1445 29.4219 47.4805 29.0898 47.4805 28.6289V28.1367H49.4727C51.6289 28.1367 53.0391 26.1445 53.7031 22.1602C53.7031 19.6914 52.2109 17.8633 49.2266 16.6758C48.2891 16.6758 47.707 16.2617 47.4805 15.4336L48.4766 13.4414H48.2305C47.4258 13.9414 46.5117 14.1914 45.4883 14.1914C44.9883 14.0742 44.6562 13.7422 44.4922 13.1953C44.4922 12 45.2383 10.7539 46.7305 9.45703ZM46.7305 10.7109C46.0664 11.6641 45.7344 12.4102 45.7344 12.9492C45.8984 12.9492 45.9805 13.0312 45.9805 13.1953C46.5195 12.8672 46.9375 12.7031 47.2344 12.7031V11.2031C47.2344 10.875 47.0664 10.7109 46.7305 10.7109Z" fill="black"/>
<path d="M75.5 11.707H76.4961C77.8867 11.707 79.2148 12.5352 80.4805 14.1914C81.3086 14.9258 81.7227 15.5898 81.7227 16.1836L81.2305 16.4297H80.4805C78.6914 14.4375 77.3633 13.4414 76.4961 13.4414C75.1133 13.4414 73.6211 15.0195 72.0195 18.1758H70.7773C70.0508 17.5586 69.3867 16.5625 68.7852 15.1875C67.7461 14.1953 66.9141 13.6992 66.2891 13.6992C65.7969 13.8633 65.5508 14.0273 65.5508 14.1914C65.8789 14.7383 66.043 15.2344 66.043 15.6797V17.4258C66.043 18.2852 65.793 18.7852 65.293 18.9258H64.2969C64.0391 18.9258 63.625 18.3438 63.0547 17.1797V14.9414L63.3125 14.4375C62.2109 13.9453 61.4609 13.6992 61.0625 13.6992H60.5703C59.0781 13.6992 58.332 14.6094 58.332 16.4297V17.4258C59.7383 20.918 61.9766 23.4062 65.0469 24.8906C66.5938 25.8906 68.668 26.8867 71.2695 27.8789L71.5156 28.3828V28.875C71.1953 29.7031 70.2852 30.1172 68.7852 30.1172C65.1367 30.1172 63.3125 29.457 63.3125 28.1367L63.8047 27.8789H64.0508C64.5117 28.3789 65.7578 28.7109 67.7891 28.875V28.6289C67.2656 28.0586 65.4414 26.9805 62.3164 25.3945C58.4961 21.9414 56.5859 19.3672 56.5859 17.6719C56.5859 14.1875 57.332 12.4453 58.8242 12.4453C58.8242 12.2812 58.9062 12.1992 59.0703 12.1992H60.8164C61.3711 12.1992 62.5312 12.3672 64.2969 12.7031C65.1328 12.2031 65.7148 11.9531 66.043 11.9531C67.793 12.1016 69.4531 13.2617 71.0234 15.4336H71.2695C72.5117 13.6133 73.9219 12.3711 75.5 11.707Z" fill="black"/>
<path d="M88.1094 10.7109C90.0547 10.7109 91.4648 12.9492 92.3398 17.4258C92.3398 17.7148 92.5039 18.1289 92.832 18.668C92.668 19.168 92.5039 19.418 92.3398 19.418C91.5508 19.418 90.9688 18.1719 90.5938 15.6797C90.4062 15.6797 89.9102 14.6875 89.1055 12.7031L88.1094 12.1992C87.0703 12.1992 86.0742 13.8594 85.1211 17.1797V19.418C85.1211 19.6602 84.8711 19.9102 84.3711 20.168H84.125C83.625 20.0039 83.375 19.5039 83.375 18.668V17.6719C83.375 17.0781 83.457 16.332 83.6211 15.4336V14.1914C84.5039 14.1914 85.168 13.5273 85.6133 12.1992C86.5352 11.207 87.3672 10.7109 88.1094 10.7109Z" fill="black"/>
<path d="M106.93 10.207L108.172 10.957C108.172 10.793 108.258 10.7109 108.43 10.7109C109.922 11.8594 111.246 14.0977 112.402 17.4258L111.91 17.6719H111.664C111.359 17.6719 110.859 17.0938 110.164 15.9375C110.328 15.9375 110.41 15.8516 110.41 15.6797C110.184 15.6719 109.852 15.2578 109.414 14.4375C109.586 14.4375 109.672 14.3555 109.672 14.1914C108.336 12.6992 107.34 11.9531 106.684 11.9531H106.18C104.852 11.9531 103.691 12.5352 102.699 13.6992L102.945 16.1836C102.117 16.8477 101.539 17.1797 101.211 17.1797C100.547 17.0156 100.215 16.6016 100.215 15.9375C100.379 15.3125 100.461 14.3164 100.461 12.9492C100.203 12.6133 99.7031 12.4453 98.9609 12.4453V12.1992C97.8359 12.1992 96.8398 13.2773 95.9727 15.4336L96.2305 17.1797C96.7852 17.1797 97.1992 16.0195 97.4727 13.6992H97.7188C98.2188 14.793 98.4688 15.5391 98.4688 15.9375C97.75 17.9297 97.0039 18.9258 96.2305 18.9258C95.7695 18.9258 95.2695 18.1758 94.7305 16.6758H94.4844C94.4844 13.8398 95.8125 11.9336 98.4688 10.957L99.7109 10.7109C100.875 11.2969 101.457 11.875 101.457 12.4453C103.402 10.9531 105.227 10.207 106.93 10.207Z" fill="black"/>
<path d="M125.914 0.503906C126.25 0.503906 126.418 0.75 126.418 1.24219L122.926 5.48438L122.68 6.48047C123.133 7.26953 124.793 7.84766 127.66 8.21484C129.332 8.86328 130.246 9.44531 130.402 9.96094V10.957C130.402 11.6211 128.742 12.4492 125.422 13.4414V13.6992C129.234 14.0664 131.141 14.8125 131.141 15.9375V16.4297C131.141 17.8203 129.816 19.1484 127.168 20.4141H124.672C124.438 20.4141 123.941 19.918 123.184 18.9258V17.9297C123.23 17.5938 123.395 17.4258 123.676 17.4258H124.426L124.18 17.9297V18.4219C124.18 18.6797 124.512 19.0117 125.176 19.418H125.914C127.43 19.418 128.758 18.4219 129.898 16.4297C129.898 15.6953 127.574 15.0312 122.926 14.4375L122.188 13.6992V13.1953C122.797 13.1953 125.035 12.4492 128.902 10.957V9.96094C125.934 9.13281 124.027 8.71875 123.184 8.71875C122.23 7.80469 121.648 7.14062 121.438 6.72656V5.48438C121.695 4.67188 123.188 3.01172 125.914 0.503906Z" fill="black"/>
<path d="M141.266 0.246094L142.016 1.5V2.49609C142.016 2.82422 141.848 2.98828 141.512 2.98828H141.02V1.74609H140.773C138.594 4.36328 136.352 8.34766 134.047 13.6992L133.555 13.9453L133.051 13.1953C136.926 4.5625 139.664 0.246094 141.266 0.246094ZM139.531 14.9414C141.023 15.4727 141.77 16.8008 141.77 18.9258C141.52 20.7461 141.188 21.6562 140.773 21.6562C140.531 21.6562 140.281 21.4102 140.023 20.918L140.27 17.9297C139.879 16.9297 139.547 16.4297 139.273 16.4297C139.086 16.4297 138.508 17.0117 137.539 18.1758H136.543C136.129 17.9648 135.465 17.3828 134.551 16.4297H134.293V16.6758L135.043 17.9297V19.1719C134.715 19.5781 134.551 19.9102 134.551 20.168H133.555C133.055 20.168 132.805 19.2539 132.805 17.4258C132.969 15.9336 133.301 15.1875 133.801 15.1875H134.293C134.98 15.1875 135.895 15.7695 137.035 16.9336C137.715 15.6055 138.547 14.9414 139.531 14.9414Z" fill="black"/>
<path d="M156.102 10.207L157.344 10.957C157.344 10.793 157.43 10.7109 157.602 10.7109C159.094 11.8594 160.418 14.0977 161.574 17.4258L161.082 17.6719H160.836C160.531 17.6719 160.031 17.0938 159.336 15.9375C159.5 15.9375 159.582 15.8516 159.582 15.6797C159.355 15.6719 159.023 15.2578 158.586 14.4375C158.758 14.4375 158.844 14.3555 158.844 14.1914C157.508 12.6992 156.512 11.9531 155.855 11.9531H155.352C154.023 11.9531 152.863 12.5352 151.871 13.6992L152.117 16.1836C151.289 16.8477 150.711 17.1797 150.383 17.1797C149.719 17.0156 149.387 16.6016 149.387 15.9375C149.551 15.3125 149.633 14.3164 149.633 12.9492C149.375 12.6133 148.875 12.4453 148.133 12.4453V12.1992C147.008 12.1992 146.012 13.2773 145.145 15.4336L145.402 17.1797C145.957 17.1797 146.371 16.0195 146.645 13.6992H146.891C147.391 14.793 147.641 15.5391 147.641 15.9375C146.922 17.9297 146.176 18.9258 145.402 18.9258C144.941 18.9258 144.441 18.1758 143.902 16.6758H143.656C143.656 13.8398 144.984 11.9336 147.641 10.957L148.883 10.7109C150.047 11.2969 150.629 11.875 150.629 12.4453C152.574 10.9531 154.398 10.207 156.102 10.207Z" fill="black"/>
<path d="M163.719 0.246094C169.695 0.816406 172.684 2.0625 172.684 3.98438V4.23047C172.684 5.17578 171.191 7.08594 168.207 9.96094V10.207C169.309 12.0273 170.883 13.4375 172.93 14.4375C173.18 14.4375 173.844 15.1836 174.922 16.6758V18.9258C174.922 19.2539 174.758 19.418 174.43 19.418C173.555 17.2305 172.723 15.9023 171.934 15.4336C171.77 15.4336 171.273 16.5977 170.445 18.9258C169.156 20.582 167.996 21.4102 166.965 21.4102C165.137 20.7305 164.223 19.4844 164.223 17.6719C164.223 15.5859 165.715 14.0938 168.699 13.1953C167.652 11.8672 166.988 10.8711 166.707 10.207C166.707 9.48047 168.117 7.82031 170.938 5.22656L171.441 4.48828V3.49219C169.918 2.49219 167.262 1.82812 163.473 1.5L163.227 0.996094L163.719 0.246094ZM165.711 17.1797V17.6719C165.711 17.9844 165.961 18.6484 166.461 19.6641H167.961C169.453 17.6641 170.199 16.2539 170.199 15.4336V14.9414H167.961C166.945 15.4648 166.195 16.2109 165.711 17.1797Z" fill="black"/>
<path d="M195.477 11.707H196.473C197.863 11.707 199.191 12.5352 200.457 14.1914C201.285 14.9258 201.699 15.5898 201.699 16.1836L201.207 16.4297H200.457C198.668 14.4375 197.34 13.4414 196.473 13.4414C195.09 13.4414 193.598 15.0195 191.996 18.1758H190.754C190.027 17.5586 189.363 16.5625 188.762 15.1875C187.723 14.1953 186.891 13.6992 186.266 13.6992C185.773 13.8633 185.527 14.0273 185.527 14.1914C185.855 14.7383 186.02 15.2344 186.02 15.6797V17.4258C186.02 18.2852 185.77 18.7852 185.27 18.9258H184.273C184.016 18.9258 183.602 18.3438 183.031 17.1797V14.9414L183.289 14.4375C182.188 13.9453 181.438 13.6992 181.039 13.6992H180.547C179.055 13.6992 178.309 14.6094 178.309 16.4297V17.4258C179.715 20.918 181.953 23.4062 185.023 24.8906C186.57 25.8906 188.645 26.8867 191.246 27.8789L191.492 28.3828V28.875C191.172 29.7031 190.262 30.1172 188.762 30.1172C185.113 30.1172 183.289 29.457 183.289 28.1367L183.781 27.8789H184.027C184.488 28.3789 185.734 28.7109 187.766 28.875V28.6289C187.242 28.0586 185.418 26.9805 182.293 25.3945C178.473 21.9414 176.562 19.3672 176.562 17.6719C176.562 14.1875 177.309 12.4453 178.801 12.4453C178.801 12.2812 178.883 12.1992 179.047 12.1992H180.793C181.348 12.1992 182.508 12.3672 184.273 12.7031C185.109 12.2031 185.691 11.9531 186.02 11.9531C187.77 12.1016 189.43 13.2617 191 15.4336H191.246C192.488 13.6133 193.898 12.3711 195.477 11.707Z" fill="black"/>
<path d="M208.578 12.7031C210 12.7031 211.742 16.1016 213.805 22.8984V23.4023C213.805 25.332 212.562 27.2383 210.078 29.1211C208.453 29.6211 207.457 29.8711 207.09 29.8711C205.652 29.8711 204.406 29.207 203.352 27.8789V27.1406H204.102C205.055 27.8047 205.965 28.2188 206.832 28.3828C209.355 28.3828 211.184 26.8867 212.316 23.8945V22.4062C211.652 19.8359 210.488 17.0977 208.824 14.1914H208.578V14.4375L208.824 15.9375V16.1836H207.582C207.582 15.6836 207.332 15.4336 206.832 15.4336V14.9414L207.582 13.1953C207.988 12.8672 208.32 12.7031 208.578 12.7031Z" fill="black"/>
<path d="M217.438 0H218.188C219.469 0 220.797 2.98828 222.172 8.96484C222.664 11.1836 222.992 14.0859 223.156 17.6719C222.719 19 222.305 19.6641 221.914 19.6641C218.852 19.6641 216.695 17.8398 215.445 14.1914V12.7031C216.43 11.0391 217.426 10.207 218.434 10.207C218.762 10.2617 218.926 10.4297 218.926 10.7109C217.598 11.5859 216.934 12.7461 216.934 14.1914C217.246 15.6289 218.492 17.0391 220.672 18.4219H221.176L221.668 18.1758L221.422 17.6719C221.422 17.3047 221.504 16.9727 221.668 16.6758C221.504 16.3555 221.422 16.1094 221.422 15.9375L221.668 14.6836C221.668 11.0508 220.508 6.65625 218.188 1.5H217.684L216.688 4.73438H215.938C215.938 4.35938 215.855 4.02734 215.691 3.73828C215.691 2.91797 216.273 1.67188 217.438 0Z" fill="black"/>
<path d="M230.047 12.7031C231.469 12.7031 233.211 16.1016 235.273 22.8984V23.4023C235.273 25.332 234.031 27.2383 231.547 29.1211C229.922 29.6211 228.926 29.8711 228.559 29.8711C227.121 29.8711 225.875 29.207 224.82 27.8789V27.1406H225.57C226.523 27.8047 227.434 28.2188 228.301 28.3828C230.824 28.3828 232.652 26.8867 233.785 23.8945V22.4062C233.121 19.8359 231.957 17.0977 230.293 14.1914H230.047V14.4375L230.293 15.9375V16.1836H229.051C229.051 15.6836 228.801 15.4336 228.301 15.4336V14.9414L229.051 13.1953C229.457 12.8672 229.789 12.7031 230.047 12.7031Z" fill="black"/>
<path d="M237.406 0.246094C243.383 0.816406 246.371 2.0625 246.371 3.98438V4.23047C246.371 5.17578 244.879 7.08594 241.895 9.96094V10.207C242.996 12.0273 244.57 13.4375 246.617 14.4375C246.867 14.4375 247.531 15.1836 248.609 16.6758V18.9258C248.609 19.2539 248.445 19.418 248.117 19.418C247.242 17.2305 246.41 15.9023 245.621 15.4336C245.457 15.4336 244.961 16.5977 244.133 18.9258C242.844 20.582 241.684 21.4102 240.652 21.4102C238.824 20.7305 237.91 19.4844 237.91 17.6719C237.91 15.5859 239.402 14.0938 242.387 13.1953C241.34 11.8672 240.676 10.8711 240.395 10.207C240.395 9.48047 241.805 7.82031 244.625 5.22656L245.129 4.48828V3.49219C243.605 2.49219 240.949 1.82812 237.16 1.5L236.914 0.996094L237.406 0.246094ZM239.398 17.1797V17.6719C239.398 17.9844 239.648 18.6484 240.148 19.6641H241.648C243.141 17.6641 243.887 16.2539 243.887 15.4336V14.9414H241.648C240.633 15.4648 239.883 16.2109 239.398 17.1797Z" fill="black"/>
<path d="M254.984 10.7109C256.93 10.7109 258.34 12.9492 259.215 17.4258C259.215 17.7148 259.379 18.1289 259.707 18.668C259.543 19.168 259.379 19.418 259.215 19.418C258.426 19.418 257.844 18.1719 257.469 15.6797C257.281 15.6797 256.785 14.6875 255.98 12.7031L254.984 12.1992C253.945 12.1992 252.949 13.8594 251.996 17.1797V19.418C251.996 19.6602 251.746 19.9102 251.246 20.168H251C250.5 20.0039 250.25 19.5039 250.25 18.668V17.6719C250.25 17.0781 250.332 16.332 250.496 15.4336V14.1914C251.379 14.1914 252.043 13.5273 252.488 12.1992C253.41 11.207 254.242 10.7109 254.984 10.7109Z" fill="black"/>
<path d="M261.359 1.5H261.852C262.688 3.22656 263.105 6.62891 263.105 11.707L262.848 13.1953C262.848 16.7031 263.68 18.7773 265.344 19.418C266.719 19.418 267.715 18.7539 268.332 17.4258C268.332 17.0977 268.164 16.2695 267.828 14.9414H268.086C269.078 15.6445 269.574 16.3906 269.574 17.1797C268.934 19.3359 267.855 20.4141 266.34 20.4141C266.02 20.5781 265.77 20.6602 265.59 20.6602C263.848 20.6602 262.602 19.332 261.852 16.6758C261.688 15.543 261.605 14.6328 261.605 13.9453C261.605 13.7656 261.688 13.5156 261.852 13.1953C261.852 13.0312 261.77 12.9492 261.605 12.9492L261.852 11.707V11.2031C261.852 10.3281 261.77 9.58203 261.605 8.96484C261.77 8.08984 261.852 7.26172 261.852 6.48047C261.852 4.81641 261.688 3.15625 261.359 1.5Z" fill="black"/>
<path d="M282.066 13.1953C284.363 13.1953 285.609 14.1094 285.805 15.9375C285.805 18.0547 285.059 19.2969 283.566 19.6641H282.066V20.168C283.121 22.6602 285.859 25.5625 290.281 28.875V29.1211C290.281 29.457 290.117 29.625 289.789 29.625C287.109 28.6094 284.785 26.6992 282.816 23.8945C280.941 22.0352 279.531 19.0508 278.586 14.9414C278.586 13.7773 279.746 13.1953 282.066 13.1953ZM280.578 14.9414V15.4336C280.578 17.3633 281.324 18.4414 282.816 18.668H283.062C283.727 17.6758 284.059 16.7656 284.059 15.9375V15.4336C283.637 14.6055 282.973 14.1914 282.066 14.1914C281.074 14.293 280.578 14.543 280.578 14.9414Z" fill="black"/>
<path d="M293.434 8.71875L293.691 9.21094C293.52 9.53125 293.434 9.78125 293.434 9.96094C297.582 12.625 299.656 14.8633 299.656 16.6758V16.9336C299.656 18.793 298.578 20.2031 296.422 21.1641C294.336 21.1641 293.008 19.7539 292.438 16.9336C292.438 16.5586 292.355 16.2266 292.191 15.9375C292.355 15.6172 292.438 15.3672 292.438 15.1875H292.695C292.961 15.4219 293.539 16.832 294.43 19.418C294.977 19.7539 295.477 19.9219 295.93 19.9219C296.711 19.9219 297.539 19.2578 298.414 17.9297V16.9336C298.414 15.2695 296.508 13.2773 292.695 10.957C292.195 10.4102 291.945 9.99609 291.945 9.71484C292.109 9.05078 292.605 8.71875 293.434 8.71875Z" fill="black"/>
<path d="M308.68 1.5H309.172C310.008 3.22656 310.426 6.62891 310.426 11.707L310.168 13.1953C310.168 16.7031 311 18.7773 312.664 19.418C314.039 19.418 315.035 18.7539 315.652 17.4258C315.652 17.0977 315.484 16.2695 315.148 14.9414H315.406C316.398 15.6445 316.895 16.3906 316.895 17.1797C316.254 19.3359 315.176 20.4141 313.66 20.4141C313.34 20.5781 313.09 20.6602 312.91 20.6602C311.168 20.6602 309.922 19.332 309.172 16.6758C309.008 15.543 308.926 14.6328 308.926 13.9453C308.926 13.7656 309.008 13.5156 309.172 13.1953C309.172 13.0312 309.09 12.9492 308.926 12.9492L309.172 11.707V11.2031C309.172 10.3281 309.09 9.58203 308.926 8.96484C309.09 8.08984 309.172 7.26172 309.172 6.48047C309.172 4.81641 309.008 3.15625 308.68 1.5Z" fill="black"/>
<path d="M320.012 8.71875L320.27 9.21094C320.098 9.53125 320.012 9.78125 320.012 9.96094C324.16 12.625 326.234 14.8633 326.234 16.6758V16.9336C326.234 18.793 325.156 20.2031 323 21.1641C320.914 21.1641 319.586 19.7539 319.016 16.9336C319.016 16.5586 318.934 16.2266 318.77 15.9375C318.934 15.6172 319.016 15.3672 319.016 15.1875H319.273C319.539 15.4219 320.117 16.832 321.008 19.418C321.555 19.7539 322.055 19.9219 322.508 19.9219C323.289 19.9219 324.117 19.2578 324.992 17.9297V16.9336C324.992 15.2695 323.086 13.2773 319.273 10.957C318.773 10.4102 318.523 9.99609 318.523 9.71484C318.688 9.05078 319.184 8.71875 320.012 8.71875Z" fill="black"/>
<path d="M332.609 10.7109C334.555 10.7109 335.965 12.9492 336.84 17.4258C336.84 17.7148 337.004 18.1289 337.332 18.668C337.168 19.168 337.004 19.418 336.84 19.418C336.051 19.418 335.469 18.1719 335.094 15.6797C334.906 15.6797 334.41 14.6875 333.605 12.7031L332.609 12.1992C331.57 12.1992 330.574 13.8594 329.621 17.1797V19.418C329.621 19.6602 329.371 19.9102 328.871 20.168H328.625C328.125 20.0039 327.875 19.5039 327.875 18.668V17.6719C327.875 17.0781 327.957 16.332 328.121 15.4336V14.1914C329.004 14.1914 329.668 13.5273 330.113 12.1992C331.035 11.207 331.867 10.7109 332.609 10.7109Z" fill="black"/>
<path d="M343.965 0.75C344.285 0.914062 344.535 0.996094 344.715 0.996094V1.99219C341.887 2.25 340.473 3.16406 340.473 4.73438C340.473 5.9375 341.637 9.25391 343.965 14.6836H344.211C344.547 13.5039 345.129 12.6758 345.957 12.1992H347.199C347.863 12.4727 348.195 13.0547 348.195 13.9453V15.4336C348.195 17.1602 347.531 18.4062 346.203 19.1719H345.711C344.297 19.0625 342.137 14.9141 339.23 6.72656C339.23 6.57812 339.148 5.91406 338.984 4.73438C338.984 2.35156 340.477 1.02344 343.461 0.75H343.965ZM345.957 13.6992C345.293 14.9727 344.961 15.8008 344.961 16.1836C345.281 16.9414 345.613 17.3555 345.957 17.4258H346.203C346.531 15.5977 346.781 14.6836 346.953 14.6836C346.781 14.3945 346.695 14.0664 346.695 13.6992H345.957Z" fill="black"/>
<path d="M354.312 13.4414H354.816C355.98 13.8477 356.562 14.8438 356.562 16.4297C356.227 18.0859 355.727 19.25 355.062 19.9219C358.219 24.6094 359.797 27.3477 359.797 28.1367C359.797 29.1523 359.047 29.8125 357.547 30.1172C356.18 30.1172 354.688 29.0391 353.07 26.8828C351.906 25.625 350.828 21.8086 349.836 15.4336V14.6836L350.328 14.4375C350.602 14.4375 351.352 17.4258 352.578 23.4023C354.398 27.0508 356.141 28.875 357.805 28.875L358.297 28.1367V27.3867C355.414 22.7383 353.754 20.4141 353.316 20.4141C352.652 20.4141 352.156 18.8359 351.828 15.6797C352.398 14.1875 353.227 13.4414 354.312 13.4414ZM353.82 14.6836L353.574 15.1875V17.6719C353.902 18.0781 354.066 18.4102 354.066 18.668H354.312C354.555 18.668 354.805 18.4219 355.062 17.9297V14.9414L353.82 14.6836Z" fill="black"/>
<path d="M366.664 12.7031C368.086 12.7031 369.828 16.1016 371.891 22.8984V23.4023C371.891 25.332 370.648 27.2383 368.164 29.1211C366.539 29.6211 365.543 29.8711 365.176 29.8711C363.738 29.8711 362.492 29.207 361.438 27.8789V27.1406H362.188C363.141 27.8047 364.051 28.2188 364.918 28.3828C367.441 28.3828 369.27 26.8867 370.402 23.8945V22.4062C369.738 19.8359 368.574 17.0977 366.91 14.1914H366.664V14.4375L366.91 15.9375V16.1836H365.668C365.668 15.6836 365.418 15.4336 364.918 15.4336V14.9414L365.668 13.1953C366.074 12.8672 366.406 12.7031 366.664 12.7031Z" fill="black"/>
<path d="M381.992 0.246094L382.742 1.5V2.49609C382.742 2.82422 382.574 2.98828 382.238 2.98828H381.746V1.74609H381.5C379.32 4.36328 377.078 8.34766 374.773 13.6992L374.281 13.9453L373.777 13.1953C377.652 4.5625 380.391 0.246094 381.992 0.246094ZM380.258 14.9414C381.75 15.4727 382.496 16.8008 382.496 18.9258C382.246 20.7461 381.914 21.6562 381.5 21.6562C381.258 21.6562 381.008 21.4102 380.75 20.918L380.996 17.9297C380.605 16.9297 380.273 16.4297 380 16.4297C379.812 16.4297 379.234 17.0117 378.266 18.1758H377.27C376.855 17.9648 376.191 17.3828 375.277 16.4297H375.02V16.6758L375.77 17.9297V19.1719C375.441 19.5781 375.277 19.9102 375.277 20.168H374.281C373.781 20.168 373.531 19.2539 373.531 17.4258C373.695 15.9336 374.027 15.1875 374.527 15.1875H375.02C375.707 15.1875 376.621 15.7695 377.762 16.9336C378.441 15.6055 379.273 14.9414 380.258 14.9414Z" fill="black"/>
<path d="M389.609 12.7031C391.031 12.7031 392.773 16.1016 394.836 22.8984V23.4023C394.836 25.332 393.594 27.2383 391.109 29.1211C389.484 29.6211 388.488 29.8711 388.121 29.8711C386.684 29.8711 385.438 29.207 384.383 27.8789V27.1406H385.133C386.086 27.8047 386.996 28.2188 387.863 28.3828C390.387 28.3828 392.215 26.8867 393.348 23.8945V22.4062C392.684 19.8359 391.52 17.0977 389.855 14.1914H389.609V14.4375L389.855 15.9375V16.1836H388.613C388.613 15.6836 388.363 15.4336 387.863 15.4336V14.9414L388.613 13.1953C389.02 12.8672 389.352 12.7031 389.609 12.7031Z" fill="black"/>
<path d="M396.477 1.5H396.969C397.805 3.22656 398.223 6.62891 398.223 11.707L397.965 13.1953C397.965 16.7031 398.797 18.7773 400.461 19.418C401.836 19.418 402.832 18.7539 403.449 17.4258C403.449 17.0977 403.281 16.2695 402.945 14.9414H403.203C404.195 15.6445 404.691 16.3906 404.691 17.1797C404.051 19.3359 402.973 20.4141 401.457 20.4141C401.137 20.5781 400.887 20.6602 400.707 20.6602C398.965 20.6602 397.719 19.332 396.969 16.6758C396.805 15.543 396.723 14.6328 396.723 13.9453C396.723 13.7656 396.805 13.5156 396.969 13.1953C396.969 13.0312 396.887 12.9492 396.723 12.9492L396.969 11.707V11.2031C396.969 10.3281 396.887 9.58203 396.723 8.96484C396.887 8.08984 396.969 7.26172 396.969 6.48047C396.969 4.81641 396.805 3.15625 396.477 1.5Z" fill="black"/>
<path d="M418.766 10.207L420.008 10.957C420.008 10.793 420.094 10.7109 420.266 10.7109C421.758 11.8594 423.082 14.0977 424.238 17.4258L423.746 17.6719H423.5C423.195 17.6719 422.695 17.0938 422 15.9375C422.164 15.9375 422.246 15.8516 422.246 15.6797C422.02 15.6719 421.688 15.2578 421.25 14.4375C421.422 14.4375 421.508 14.3555 421.508 14.1914C420.172 12.6992 419.176 11.9531 418.52 11.9531H418.016C416.688 11.9531 415.527 12.5352 414.535 13.6992L414.781 16.1836C413.953 16.8477 413.375 17.1797 413.047 17.1797C412.383 17.0156 412.051 16.6016 412.051 15.9375C412.215 15.3125 412.297 14.3164 412.297 12.9492C412.039 12.6133 411.539 12.4453 410.797 12.4453V12.1992C409.672 12.1992 408.676 13.2773 407.809 15.4336L408.066 17.1797C408.621 17.1797 409.035 16.0195 409.309 13.6992H409.555C410.055 14.793 410.305 15.5391 410.305 15.9375C409.586 17.9297 408.84 18.9258 408.066 18.9258C407.605 18.9258 407.105 18.1758 406.566 16.6758H406.32C406.32 13.8398 407.648 11.9336 410.305 10.957L411.547 10.7109C412.711 11.2969 413.293 11.875 413.293 12.4453C415.238 10.9531 417.062 10.207 418.766 10.207Z" fill="black"/>
<path d="M435.512 9.45703H436.016C436.508 9.45703 436.754 10.3711 436.754 12.1992L437.258 11.9531H438.008C438.336 12 438.5 12.1641 438.5 12.4453V13.9453C437.836 14.7812 437.504 15.2773 437.504 15.4336C439.887 15.4336 441.961 17.0938 443.727 20.4141V23.4023C442.711 27.5508 440.887 29.625 438.254 29.625C436.926 29.4219 436.262 29.0898 436.262 28.6289V28.1367H438.254C440.41 28.1367 441.82 26.1445 442.484 22.1602C442.484 19.6914 440.992 17.8633 438.008 16.6758C437.07 16.6758 436.488 16.2617 436.262 15.4336L437.258 13.4414H437.012C436.207 13.9414 435.293 14.1914 434.27 14.1914C433.77 14.0742 433.438 13.7422 433.273 13.1953C433.273 12 434.02 10.7539 435.512 9.45703ZM435.512 10.7109C434.848 11.6641 434.516 12.4102 434.516 12.9492C434.68 12.9492 434.762 13.0312 434.762 13.1953C435.301 12.8672 435.719 12.7031 436.016 12.7031V11.2031C436.016 10.875 435.848 10.7109 435.512 10.7109Z" fill="black"/>
<path d="M446.855 8.71875L447.113 9.21094C446.941 9.53125 446.855 9.78125 446.855 9.96094C451.004 12.625 453.078 14.8633 453.078 16.6758V16.9336C453.078 18.793 452 20.2031 449.844 21.1641C447.758 21.1641 446.43 19.7539 445.859 16.9336C445.859 16.5586 445.777 16.2266 445.613 15.9375C445.777 15.6172 445.859 15.3672 445.859 15.1875H446.117C446.383 15.4219 446.961 16.832 447.852 19.418C448.398 19.7539 448.898 19.9219 449.352 19.9219C450.133 19.9219 450.961 19.2578 451.836 17.9297V16.9336C451.836 15.2695 449.93 13.2773 446.117 10.957C445.617 10.4102 445.367 9.99609 445.367 9.71484C445.531 9.05078 446.027 8.71875 446.855 8.71875Z" fill="black"/>
<path d="M456.711 0.75H457.707C457.965 0.75 458.297 1.08203 458.703 1.74609V2.23828H458.457L457.707 1.74609V1.99219C458.277 5.34375 459.605 9.74219 461.691 15.1875C462.848 22.2188 463.426 26.4492 463.426 27.8789C463.137 28.8789 462.391 29.3789 461.188 29.3789C458.977 29.3789 457.07 27.9688 455.469 25.1484V24.6445H455.961C458.156 26.8867 459.898 28.0508 461.188 28.1367C461.523 27.7305 461.691 27.3984 461.691 27.1406C460.949 19.0078 460.285 14.9414 459.699 14.9414C459.574 14.9414 459.074 14.8555 458.199 14.6836C457.34 14.6836 456.676 15.1016 456.207 15.9375L456.957 16.9336V18.1758C456.957 18.5039 456.793 18.668 456.465 18.668H455.961C455.133 18.2461 454.719 17.582 454.719 16.6758V15.6797C455.445 14.1875 456.773 13.4414 458.703 13.4414C459.023 13.6133 459.273 13.6992 459.453 13.6992C457.461 7.03516 456.465 3.05078 456.465 1.74609L456.711 0.75Z" fill="black"/>
<path d="M469.555 13.4414H470.059C471.223 13.8477 471.805 14.8438 471.805 16.4297C471.469 18.0859 470.969 19.25 470.305 19.9219C473.461 24.6094 475.039 27.3477 475.039 28.1367C475.039 29.1523 474.289 29.8125 472.789 30.1172C471.422 30.1172 469.93 29.0391 468.312 26.8828C467.148 25.625 466.07 21.8086 465.078 15.4336V14.6836L465.57 14.4375C465.844 14.4375 466.594 17.4258 467.82 23.4023C469.641 27.0508 471.383 28.875 473.047 28.875L473.539 28.1367V27.3867C470.656 22.7383 468.996 20.4141 468.559 20.4141C467.895 20.4141 467.398 18.8359 467.07 15.6797C467.641 14.1875 468.469 13.4414 469.555 13.4414ZM469.062 14.6836L468.816 15.1875V17.6719C469.145 18.0781 469.309 18.4102 469.309 18.668H469.555C469.797 18.668 470.047 18.4219 470.305 17.9297V14.9414L469.062 14.6836Z" fill="black"/>
<path d="M481.906 12.7031C483.328 12.7031 485.07 16.1016 487.133 22.8984V23.4023C487.133 25.332 485.891 27.2383 483.406 29.1211C481.781 29.6211 480.785 29.8711 480.418 29.8711C478.98 29.8711 477.734 29.207 476.68 27.8789V27.1406H477.43C478.383 27.8047 479.293 28.2188 480.16 28.3828C482.684 28.3828 484.512 26.8867 485.645 23.8945V22.4062C484.98 19.8359 483.816 17.0977 482.152 14.1914H481.906V14.4375L482.152 15.9375V16.1836H480.91C480.91 15.6836 480.66 15.4336 480.16 15.4336V14.9414L480.91 13.1953C481.316 12.8672 481.648 12.7031 481.906 12.7031Z" fill="black"/>
<path d="M489.266 0.246094C495.242 0.816406 498.23 2.0625 498.23 3.98438V4.23047C498.23 5.17578 496.738 7.08594 493.754 9.96094V10.207C494.855 12.0273 496.43 13.4375 498.477 14.4375C498.727 14.4375 499.391 15.1836 500.469 16.6758V18.9258C500.469 19.2539 500.305 19.418 499.977 19.418C499.102 17.2305 498.27 15.9023 497.48 15.4336C497.316 15.4336 496.82 16.5977 495.992 18.9258C494.703 20.582 493.543 21.4102 492.512 21.4102C490.684 20.7305 489.77 19.4844 489.77 17.6719C489.77 15.5859 491.262 14.0938 494.246 13.1953C493.199 11.8672 492.535 10.8711 492.254 10.207C492.254 9.48047 493.664 7.82031 496.484 5.22656L496.988 4.48828V3.49219C495.465 2.49219 492.809 1.82812 489.02 1.5L488.773 0.996094L489.266 0.246094ZM491.258 17.1797V17.6719C491.258 17.9844 491.508 18.6484 492.008 19.6641H493.508C495 17.6641 495.746 16.2539 495.746 15.4336V14.9414H493.508C492.492 15.4648 491.742 16.2109 491.258 17.1797Z" fill="black"/>
<path d="M506.844 10.7109C508.789 10.7109 510.199 12.9492 511.074 17.4258C511.074 17.7148 511.238 18.1289 511.566 18.668C511.402 19.168 511.238 19.418 511.074 19.418C510.285 19.418 509.703 18.1719 509.328 15.6797C509.141 15.6797 508.645 14.6875 507.84 12.7031L506.844 12.1992C505.805 12.1992 504.809 13.8594 503.855 17.1797V19.418C503.855 19.6602 503.605 19.9102 503.105 20.168H502.859C502.359 20.0039 502.109 19.5039 502.109 18.668V17.6719C502.109 17.0781 502.191 16.332 502.355 15.4336V14.1914C503.238 14.1914 503.902 13.5273 504.348 12.1992C505.27 11.207 506.102 10.7109 506.844 10.7109Z" fill="black"/>
<path d="M513.219 1.5H513.711C514.547 3.22656 514.965 6.62891 514.965 11.707L514.707 13.1953C514.707 16.7031 515.539 18.7773 517.203 19.418C518.578 19.418 519.574 18.7539 520.191 17.4258C520.191 17.0977 520.023 16.2695 519.688 14.9414H519.945C520.938 15.6445 521.434 16.3906 521.434 17.1797C520.793 19.3359 519.715 20.4141 518.199 20.4141C517.879 20.5781 517.629 20.6602 517.449 20.6602C515.707 20.6602 514.461 19.332 513.711 16.6758C513.547 15.543 513.465 14.6328 513.465 13.9453C513.465 13.7656 513.547 13.5156 513.711 13.1953C513.711 13.0312 513.629 12.9492 513.465 12.9492L513.711 11.707V11.2031C513.711 10.3281 513.629 9.58203 513.465 8.96484C513.629 8.08984 513.711 7.26172 513.711 6.48047C513.711 4.81641 513.547 3.15625 513.219 1.5Z" fill="black"/>
</svg>
