<svg width="743" height="31" viewBox="0 0 743 31" fill="none" xmlns="http://www.w3.org/2000/svg">
<path d="M536.98 11.707C538.215 11.707 539.375 12.8672 540.461 15.1875C541.664 15.1875 542.578 16.8477 543.203 20.168L542.699 20.4141H542.207C541.809 20.3906 541.227 19.3945 540.461 17.4258H539.969C539.969 18.3945 538.309 19.8047 534.988 21.6562H533.746C532.582 20.9219 532 20.0938 532 19.1719C532 17.1016 532.996 14.9453 534.988 12.7031L536.98 11.707ZM533.746 17.9297V19.418C533.793 19.7539 533.957 19.9219 534.238 19.9219H534.988C536.027 19.4531 537.273 18.207 538.727 16.1836C538.109 14.3555 537.527 13.4414 536.98 13.4414C536.152 13.4414 535.074 14.9375 533.746 17.9297Z" fill="black"/>
<path d="M546.332 8.71875L546.59 9.21094C546.418 9.53125 546.332 9.78125 546.332 9.96094C550.48 12.625 552.555 14.8633 552.555 16.6758V16.9336C552.555 18.793 551.477 20.2031 549.32 21.1641C547.234 21.1641 545.906 19.7539 545.336 16.9336C545.336 16.5586 545.254 16.2266 545.09 15.9375C545.254 15.6172 545.336 15.3672 545.336 15.1875H545.594C545.859 15.4219 546.438 16.832 547.328 19.418C547.875 19.7539 548.375 19.9219 548.828 19.9219C549.609 19.9219 550.438 19.2578 551.312 17.9297V16.9336C551.312 15.2695 549.406 13.2773 545.594 10.957C545.094 10.4102 544.844 9.99609 544.844 9.71484C545.008 9.05078 545.504 8.71875 546.332 8.71875Z" fill="black"/>
<path d="M557.43 12.7031H558.672L559.176 14.4375C559.176 16.1641 559.008 17.4922 558.672 18.4219C562.656 18.4219 564.648 19.832 564.648 22.6523V23.6484C564.648 26.3047 562.41 28.5469 557.934 30.375H557.184C555.699 30.375 554.703 29.2109 554.195 26.8828L554.688 26.6367H555.684C555.902 28.293 556.566 29.1211 557.676 29.1211C561.332 27.2148 563.16 25.3906 563.16 23.6484V21.6562C562.207 20.1641 561.211 19.418 560.172 19.418H558.18C557.938 19.418 557.688 19.168 557.43 18.668C557.43 18.1836 557.598 16.8555 557.934 14.6836H556.68C556.68 14.3789 556.93 13.7188 557.43 12.7031Z" fill="black"/>
<path d="M567.039 1.74609C569.07 3.07422 570.48 3.73828 571.27 3.73828H571.516L572.758 2.74219H574C574.336 2.79688 574.504 2.96094 574.504 3.23438V3.73828C573.34 4.68359 572.758 5.51172 572.758 6.22266C572.594 7.13672 572.512 7.80078 572.512 8.21484C572.512 9.61328 573.758 12.5195 576.25 16.9336C576.742 17.9492 576.988 18.6133 576.988 18.9258V19.9219C576.668 20.75 575.758 21.1641 574.258 21.1641C571.602 19.5703 570.273 18.1602 570.273 16.9336V16.4297C570.602 14.7734 571.43 13.9453 572.758 13.9453V13.4414C571.602 11.3555 571.023 9.61328 571.023 8.21484C571.188 6.16016 571.27 5.08203 571.27 4.98047C567.949 4.41016 566.289 3.74609 566.289 2.98828V2.49609C566.289 2.25391 566.539 2.00391 567.039 1.74609ZM572.02 16.6758C572.824 18.5039 573.816 19.418 574.996 19.418L575.254 18.9258C575.254 18.418 574.59 16.9219 573.262 14.4375C572.434 15.1016 572.02 15.8477 572.02 16.6758Z" fill="black"/>
<path d="M583.867 12.7031C585.289 12.7031 587.031 16.1016 589.094 22.8984V23.4023C589.094 25.332 587.852 27.2383 585.367 29.1211C583.742 29.6211 582.746 29.8711 582.379 29.8711C580.941 29.8711 579.695 29.207 578.641 27.8789V27.1406H579.391C580.344 27.8047 581.254 28.2188 582.121 28.3828C584.645 28.3828 586.473 26.8867 587.605 23.8945V22.4062C586.941 19.8359 585.777 17.0977 584.113 14.1914H583.867V14.4375L584.113 15.9375V16.1836H582.871C582.871 15.6836 582.621 15.4336 582.121 15.4336V14.9414L582.871 13.1953C583.277 12.8672 583.609 12.7031 583.867 12.7031Z" fill="black"/>
<path d="M596.957 9.21094H597.953C598.383 11.7891 599.379 15.1914 600.941 19.418C601.605 21.1211 601.938 22.4492 601.938 23.4023C601.188 25.9727 599.859 27.7148 597.953 28.6289C596.047 29.293 595.051 29.625 594.965 29.625C592.973 29.1484 591.977 28.6523 591.977 28.1367C592.031 27.8008 592.199 27.6328 592.48 27.6328L595.469 27.8789C598.453 27.0117 599.945 25.4375 599.945 23.1562C600.109 23.1562 600.191 23.0703 600.191 22.8984C599.645 19.5547 598.816 17.0664 597.707 15.4336V13.9453H597.461L595.961 15.1875H593.969C592.789 15.1875 591.711 14.1094 590.734 11.9531V9.71484H591.977V10.7109C591.977 10.875 591.895 10.957 591.73 10.957C592.262 13.1133 593.34 14.1914 594.965 14.1914H595.469C596.297 12.5664 596.793 10.9062 596.957 9.21094Z" fill="black"/>
<path d="M612.039 0.246094L612.789 1.5V2.49609C612.789 2.82422 612.621 2.98828 612.285 2.98828H611.793V1.74609H611.547C609.367 4.36328 607.125 8.34766 604.82 13.6992L604.328 13.9453L603.824 13.1953C607.699 4.5625 610.438 0.246094 612.039 0.246094ZM610.305 14.9414C611.797 15.4727 612.543 16.8008 612.543 18.9258C612.293 20.7461 611.961 21.6562 611.547 21.6562C611.305 21.6562 611.055 21.4102 610.797 20.918L611.043 17.9297C610.652 16.9297 610.32 16.4297 610.047 16.4297C609.859 16.4297 609.281 17.0117 608.312 18.1758H607.316C606.902 17.9648 606.238 17.3828 605.324 16.4297H605.066V16.6758L605.816 17.9297V19.1719C605.488 19.5781 605.324 19.9102 605.324 20.168H604.328C603.828 20.168 603.578 19.2539 603.578 17.4258C603.742 15.9336 604.074 15.1875 604.574 15.1875H605.066C605.754 15.1875 606.668 15.7695 607.809 16.9336C608.488 15.6055 609.32 14.9414 610.305 14.9414Z" fill="black"/>
<path d="M619.164 10.7109C621.109 10.7109 622.52 12.9492 623.395 17.4258C623.395 17.7148 623.559 18.1289 623.887 18.668C623.723 19.168 623.559 19.418 623.395 19.418C622.605 19.418 622.023 18.1719 621.648 15.6797C621.461 15.6797 620.965 14.6875 620.16 12.7031L619.164 12.1992C618.125 12.1992 617.129 13.8594 616.176 17.1797V19.418C616.176 19.6602 615.926 19.9102 615.426 20.168H615.18C614.68 20.0039 614.43 19.5039 614.43 18.668V17.6719C614.43 17.0781 614.512 16.332 614.676 15.4336V14.1914C615.559 14.1914 616.223 13.5273 616.668 12.1992C617.59 11.207 618.422 10.7109 619.164 10.7109Z" fill="black"/>
<path d="M625.539 1.5H626.031C626.867 3.22656 627.285 6.62891 627.285 11.707L627.027 13.1953C627.027 16.7031 627.859 18.7773 629.523 19.418C630.898 19.418 631.895 18.7539 632.512 17.4258C632.512 17.0977 632.344 16.2695 632.008 14.9414H632.266C633.258 15.6445 633.754 16.3906 633.754 17.1797C633.113 19.3359 632.035 20.4141 630.52 20.4141C630.199 20.5781 629.949 20.6602 629.77 20.6602C628.027 20.6602 626.781 19.332 626.031 16.6758C625.867 15.543 625.785 14.6328 625.785 13.9453C625.785 13.7656 625.867 13.5156 626.031 13.1953C626.031 13.0312 625.949 12.9492 625.785 12.9492L626.031 11.707V11.2031C626.031 10.3281 625.949 9.58203 625.785 8.96484C625.949 8.08984 626.031 7.26172 626.031 6.48047C626.031 4.81641 625.867 3.15625 625.539 1.5Z" fill="black"/>
<path d="M644.254 8.71875L644.512 9.21094C644.34 9.53125 644.254 9.78125 644.254 9.96094C648.402 12.625 650.477 14.8633 650.477 16.6758V16.9336C650.477 18.793 649.398 20.2031 647.242 21.1641C645.156 21.1641 643.828 19.7539 643.258 16.9336C643.258 16.5586 643.176 16.2266 643.012 15.9375C643.176 15.6172 643.258 15.3672 643.258 15.1875H643.516C643.781 15.4219 644.359 16.832 645.25 19.418C645.797 19.7539 646.297 19.9219 646.75 19.9219C647.531 19.9219 648.359 19.2578 649.234 17.9297V16.9336C649.234 15.2695 647.328 13.2773 643.516 10.957C643.016 10.4102 642.766 9.99609 642.766 9.71484C642.93 9.05078 643.426 8.71875 644.254 8.71875Z" fill="black"/>
<path d="M655.598 13.1953C657.895 13.1953 659.141 14.1094 659.336 15.9375C659.336 18.0547 658.59 19.2969 657.098 19.6641H655.598V20.168C656.652 22.6602 659.391 25.5625 663.812 28.875V29.1211C663.812 29.457 663.648 29.625 663.32 29.625C660.641 28.6094 658.316 26.6992 656.348 23.8945C654.473 22.0352 653.062 19.0508 652.117 14.9414C652.117 13.7773 653.277 13.1953 655.598 13.1953ZM654.109 14.9414V15.4336C654.109 17.3633 654.855 18.4414 656.348 18.668H656.594C657.258 17.6758 657.59 16.7656 657.59 15.9375V15.4336C657.168 14.6055 656.504 14.1914 655.598 14.1914C654.605 14.293 654.109 14.543 654.109 14.9414Z" fill="black"/>
<path d="M668.957 12.9492C669.793 12.9492 670.211 13.4453 670.211 14.4375V14.6836C670.211 15.4023 669.793 16.6484 668.957 18.4219C670.543 18.4219 672.453 20.8281 674.688 25.6406C674.688 26.1953 674.77 26.6094 674.934 26.8828C674.934 28.75 673.773 29.8281 671.453 30.1172C667.469 28.9531 665.477 26.7969 665.477 23.6484C665.477 22.1719 666.391 20.7617 668.219 19.418C668.547 19.4727 668.711 19.6406 668.711 19.9219V20.168C667.547 21.3789 666.965 22.375 666.965 23.1562V24.3984C666.965 26.5703 668.625 28.0625 671.945 28.875C672.945 28.6172 673.445 28.0391 673.445 27.1406V26.6367C673.445 24.7148 672.035 22.3906 669.215 19.6641C668.691 19.6641 668.191 19.25 667.715 18.4219C668.715 16.3906 669.215 14.9805 669.215 14.1914H667.961L667.715 15.1875H666.965V14.1914C667.395 13.3633 668.059 12.9492 668.957 12.9492Z" fill="black"/>
<path d="M681.32 10.7109C683.266 10.7109 684.676 12.9492 685.551 17.4258C685.551 17.7148 685.715 18.1289 686.043 18.668C685.879 19.168 685.715 19.418 685.551 19.418C684.762 19.418 684.18 18.1719 683.805 15.6797C683.617 15.6797 683.121 14.6875 682.316 12.7031L681.32 12.1992C680.281 12.1992 679.285 13.8594 678.332 17.1797V19.418C678.332 19.6602 678.082 19.9102 677.582 20.168H677.336C676.836 20.0039 676.586 19.5039 676.586 18.668V17.6719C676.586 17.0781 676.668 16.332 676.832 15.4336V14.1914C677.715 14.1914 678.379 13.5273 678.824 12.1992C679.746 11.207 680.578 10.7109 681.32 10.7109Z" fill="black"/>
<path d="M706.609 11.707H707.605C708.996 11.707 710.324 12.5352 711.59 14.1914C712.418 14.9258 712.832 15.5898 712.832 16.1836L712.34 16.4297H711.59C709.801 14.4375 708.473 13.4414 707.605 13.4414C706.223 13.4414 704.73 15.0195 703.129 18.1758H701.887C701.16 17.5586 700.496 16.5625 699.895 15.1875C698.855 14.1953 698.023 13.6992 697.398 13.6992C696.906 13.8633 696.66 14.0273 696.66 14.1914C696.988 14.7383 697.152 15.2344 697.152 15.6797V17.4258C697.152 18.2852 696.902 18.7852 696.402 18.9258H695.406C695.148 18.9258 694.734 18.3438 694.164 17.1797V14.9414L694.422 14.4375C693.32 13.9453 692.57 13.6992 692.172 13.6992H691.68C690.188 13.6992 689.441 14.6094 689.441 16.4297V17.4258C690.848 20.918 693.086 23.4062 696.156 24.8906C697.703 25.8906 699.777 26.8867 702.379 27.8789L702.625 28.3828V28.875C702.305 29.7031 701.395 30.1172 699.895 30.1172C696.246 30.1172 694.422 29.457 694.422 28.1367L694.914 27.8789H695.16C695.621 28.3789 696.867 28.7109 698.898 28.875V28.6289C698.375 28.0586 696.551 26.9805 693.426 25.3945C689.605 21.9414 687.695 19.3672 687.695 17.6719C687.695 14.1875 688.441 12.4453 689.934 12.4453C689.934 12.2812 690.016 12.1992 690.18 12.1992H691.926C692.48 12.1992 693.641 12.3672 695.406 12.7031C696.242 12.2031 696.824 11.9531 697.152 11.9531C698.902 12.1016 700.562 13.2617 702.133 15.4336H702.379C703.621 13.6133 705.031 12.3711 706.609 11.707Z" fill="black"/>
<path d="M719.219 10.7109C721.164 10.7109 722.574 12.9492 723.449 17.4258C723.449 17.7148 723.613 18.1289 723.941 18.668C723.777 19.168 723.613 19.418 723.449 19.418C722.66 19.418 722.078 18.1719 721.703 15.6797C721.516 15.6797 721.02 14.6875 720.215 12.7031L719.219 12.1992C718.18 12.1992 717.184 13.8594 716.23 17.1797V19.418C716.23 19.6602 715.98 19.9102 715.48 20.168H715.234C714.734 20.0039 714.484 19.5039 714.484 18.668V17.6719C714.484 17.0781 714.566 16.332 714.73 15.4336V14.1914C715.613 14.1914 716.277 13.5273 716.723 12.1992C717.645 11.207 718.477 10.7109 719.219 10.7109Z" fill="black"/>
<path d="M726.619 20.1142C726.619 19.5222 726.763 19.1062 727.051 18.8662C727.339 18.6262 727.683 18.5062 728.083 18.5062C728.499 18.5062 728.851 18.6262 729.139 18.8662C729.443 19.1062 729.595 19.5222 729.595 20.1142C729.595 20.6902 729.443 21.1062 729.139 21.3622C728.851 21.6182 728.499 21.7462 728.083 21.7462C727.683 21.7462 727.339 21.6182 727.051 21.3622C726.763 21.1062 726.619 20.6902 726.619 20.1142Z" fill="black"/>
<path d="M733.041 20.1142C733.041 19.5222 733.184 19.1062 733.472 18.8662C733.76 18.6262 734.104 18.5062 734.505 18.5062C734.921 18.5062 735.272 18.6262 735.56 18.8662C735.865 19.1062 736.016 19.5222 736.016 20.1142C736.016 20.6902 735.865 21.1062 735.56 21.3622C735.272 21.6182 734.921 21.7462 734.505 21.7462C734.104 21.7462 733.76 21.6182 733.472 21.3622C733.184 21.1062 733.041 20.6902 733.041 20.1142Z" fill="black"/>
<path d="M739.462 20.1142C739.462 19.5222 739.606 19.1062 739.894 18.8662C740.182 18.6262 740.526 18.5062 740.926 18.5062C741.342 18.5062 741.694 18.6262 741.982 18.8662C742.286 19.1062 742.438 19.5222 742.438 20.1142C742.438 20.6902 742.286 21.1062 741.982 21.3622C741.694 21.6182 741.342 21.7462 740.926 21.7462C740.526 21.7462 740.182 21.6182 739.894 21.3622C739.606 21.1062 739.462 20.6902 739.462 20.1142Z" fill="black"/>
<path d="M1.99219 0H2.74219C4.02344 0 5.35156 2.98828 6.72656 8.96484C7.21875 11.1836 7.54688 14.0859 7.71094 17.6719C7.27344 19 6.85938 19.6641 6.46875 19.6641C3.40625 19.6641 1.25 17.8398 0 14.1914V12.7031C0.984375 11.0391 1.98047 10.207 2.98828 10.207C3.31641 10.2617 3.48047 10.4297 3.48047 10.7109C2.15234 11.5859 1.48828 12.7461 1.48828 14.1914C1.80078 15.6289 3.04688 17.0391 5.22656 18.4219H5.73047L6.22266 18.1758L5.97656 17.6719C5.97656 17.3047 6.05859 16.9727 6.22266 16.6758C6.05859 16.3555 5.97656 16.1094 5.97656 15.9375L6.22266 14.6836C6.22266 11.0508 5.0625 6.65625 2.74219 1.5H2.23828L1.24219 4.73438H0.492188C0.492188 4.35938 0.410156 4.02734 0.246094 3.73828C0.246094 2.91797 0.828125 1.67188 1.99219 0Z" fill="black"/>
<path d="M9.375 1.5H9.86719C10.7031 3.22656 11.1211 6.62891 11.1211 11.707L10.8633 13.1953C10.8633 16.7031 11.6953 18.7773 13.3594 19.418C14.7344 19.418 15.7305 18.7539 16.3477 17.4258C16.3477 17.0977 16.1797 16.2695 15.8438 14.9414H16.1016C17.0938 15.6445 17.5898 16.3906 17.5898 17.1797C16.9492 19.3359 15.8711 20.4141 14.3555 20.4141C14.0352 20.5781 13.7852 20.6602 13.6055 20.6602C11.8633 20.6602 10.6172 19.332 9.86719 16.6758C9.70312 15.543 9.62109 14.6328 9.62109 13.9453C9.62109 13.7656 9.70312 13.5156 9.86719 13.1953C9.86719 13.0312 9.78516 12.9492 9.62109 12.9492L9.86719 11.707V11.2031C9.86719 10.3281 9.78516 9.58203 9.62109 8.96484C9.78516 8.08984 9.86719 7.26172 9.86719 6.48047C9.86719 4.81641 9.70312 3.15625 9.375 1.5Z" fill="black"/>
<path d="M31.6641 10.207L32.9062 10.957C32.9062 10.793 32.9922 10.7109 33.1641 10.7109C34.6562 11.8594 35.9805 14.0977 37.1367 17.4258L36.6445 17.6719H36.3984C36.0938 17.6719 35.5938 17.0938 34.8984 15.9375C35.0625 15.9375 35.1445 15.8516 35.1445 15.6797C34.918 15.6719 34.5859 15.2578 34.1484 14.4375C34.3203 14.4375 34.4062 14.3555 34.4062 14.1914C33.0703 12.6992 32.0742 11.9531 31.418 11.9531H30.9141C29.5859 11.9531 28.4258 12.5352 27.4336 13.6992L27.6797 16.1836C26.8516 16.8477 26.2734 17.1797 25.9453 17.1797C25.2812 17.0156 24.9492 16.6016 24.9492 15.9375C25.1133 15.3125 25.1953 14.3164 25.1953 12.9492C24.9375 12.6133 24.4375 12.4453 23.6953 12.4453V12.1992C22.5703 12.1992 21.5742 13.2773 20.707 15.4336L20.9648 17.1797C21.5195 17.1797 21.9336 16.0195 22.207 13.6992H22.4531C22.9531 14.793 23.2031 15.5391 23.2031 15.9375C22.4844 17.9297 21.7383 18.9258 20.9648 18.9258C20.5039 18.9258 20.0039 18.1758 19.4648 16.6758H19.2188C19.2188 13.8398 20.5469 11.9336 23.2031 10.957L24.4453 10.7109C25.6094 11.2969 26.1914 11.875 26.1914 12.4453C28.1367 10.9531 29.9609 10.207 31.6641 10.207Z" fill="black"/>
<path d="M41.0273 9.45703H41.5312C42.0234 9.45703 42.2695 10.3711 42.2695 12.1992L42.7734 11.9531H43.5234C43.8516 12 44.0156 12.1641 44.0156 12.4453V13.9453C43.3516 14.7812 43.0195 15.2773 43.0195 15.4336C45.4023 15.4336 47.4766 17.0938 49.2422 20.4141V23.4023C48.2266 27.5508 46.4023 29.625 43.7695 29.625C42.4414 29.4219 41.7773 29.0898 41.7773 28.6289V28.1367H43.7695C45.9258 28.1367 47.3359 26.1445 48 22.1602C48 19.6914 46.5078 17.8633 43.5234 16.6758C42.5859 16.6758 42.0039 16.2617 41.7773 15.4336L42.7734 13.4414H42.5273C41.7227 13.9414 40.8086 14.1914 39.7852 14.1914C39.2852 14.0742 38.9531 13.7422 38.7891 13.1953C38.7891 12 39.5352 10.7539 41.0273 9.45703ZM41.0273 10.7109C40.3633 11.6641 40.0312 12.4102 40.0312 12.9492C40.1953 12.9492 40.2773 13.0312 40.2773 13.1953C40.8164 12.8672 41.2344 12.7031 41.5312 12.7031V11.2031C41.5312 10.875 41.3633 10.7109 41.0273 10.7109Z" fill="black"/>
<path d="M69.7969 11.707H70.793C72.1836 11.707 73.5117 12.5352 74.7773 14.1914C75.6055 14.9258 76.0195 15.5898 76.0195 16.1836L75.5273 16.4297H74.7773C72.9883 14.4375 71.6602 13.4414 70.793 13.4414C69.4102 13.4414 67.918 15.0195 66.3164 18.1758H65.0742C64.3477 17.5586 63.6836 16.5625 63.082 15.1875C62.043 14.1953 61.2109 13.6992 60.5859 13.6992C60.0938 13.8633 59.8477 14.0273 59.8477 14.1914C60.1758 14.7383 60.3398 15.2344 60.3398 15.6797V17.4258C60.3398 18.2852 60.0898 18.7852 59.5898 18.9258H58.5938C58.3359 18.9258 57.9219 18.3438 57.3516 17.1797V14.9414L57.6094 14.4375C56.5078 13.9453 55.7578 13.6992 55.3594 13.6992H54.8672C53.375 13.6992 52.6289 14.6094 52.6289 16.4297V17.4258C54.0352 20.918 56.2734 23.4062 59.3438 24.8906C60.8906 25.8906 62.9648 26.8867 65.5664 27.8789L65.8125 28.3828V28.875C65.4922 29.7031 64.582 30.1172 63.082 30.1172C59.4336 30.1172 57.6094 29.457 57.6094 28.1367L58.1016 27.8789H58.3477C58.8086 28.3789 60.0547 28.7109 62.0859 28.875V28.6289C61.5625 28.0586 59.7383 26.9805 56.6133 25.3945C52.793 21.9414 50.8828 19.3672 50.8828 17.6719C50.8828 14.1875 51.6289 12.4453 53.1211 12.4453C53.1211 12.2812 53.2031 12.1992 53.3672 12.1992H55.1133C55.668 12.1992 56.8281 12.3672 58.5938 12.7031C59.4297 12.2031 60.0117 11.9531 60.3398 11.9531C62.0898 12.1016 63.75 13.2617 65.3203 15.4336H65.5664C66.8086 13.6133 68.2188 12.3711 69.7969 11.707Z" fill="black"/>
<path d="M82.4062 10.7109C84.3516 10.7109 85.7617 12.9492 86.6367 17.4258C86.6367 17.7148 86.8008 18.1289 87.1289 18.668C86.9648 19.168 86.8008 19.418 86.6367 19.418C85.8477 19.418 85.2656 18.1719 84.8906 15.6797C84.7031 15.6797 84.207 14.6875 83.4023 12.7031L82.4062 12.1992C81.3672 12.1992 80.3711 13.8594 79.418 17.1797V19.418C79.418 19.6602 79.168 19.9102 78.668 20.168H78.4219C77.9219 20.0039 77.6719 19.5039 77.6719 18.668V17.6719C77.6719 17.0781 77.7539 16.332 77.918 15.4336V14.1914C78.8008 14.1914 79.4648 13.5273 79.9102 12.1992C80.832 11.207 81.6641 10.7109 82.4062 10.7109Z" fill="black"/>
<path d="M101.227 10.207L102.469 10.957C102.469 10.793 102.555 10.7109 102.727 10.7109C104.219 11.8594 105.543 14.0977 106.699 17.4258L106.207 17.6719H105.961C105.656 17.6719 105.156 17.0938 104.461 15.9375C104.625 15.9375 104.707 15.8516 104.707 15.6797C104.48 15.6719 104.148 15.2578 103.711 14.4375C103.883 14.4375 103.969 14.3555 103.969 14.1914C102.633 12.6992 101.637 11.9531 100.98 11.9531H100.477C99.1484 11.9531 97.9883 12.5352 96.9961 13.6992L97.2422 16.1836C96.4141 16.8477 95.8359 17.1797 95.5078 17.1797C94.8438 17.0156 94.5117 16.6016 94.5117 15.9375C94.6758 15.3125 94.7578 14.3164 94.7578 12.9492C94.5 12.6133 94 12.4453 93.2578 12.4453V12.1992C92.1328 12.1992 91.1367 13.2773 90.2695 15.4336L90.5273 17.1797C91.082 17.1797 91.4961 16.0195 91.7695 13.6992H92.0156C92.5156 14.793 92.7656 15.5391 92.7656 15.9375C92.0469 17.9297 91.3008 18.9258 90.5273 18.9258C90.0664 18.9258 89.5664 18.1758 89.0273 16.6758H88.7812C88.7812 13.8398 90.1094 11.9336 92.7656 10.957L94.0078 10.7109C95.1719 11.2969 95.7539 11.875 95.7539 12.4453C97.6992 10.9531 99.5234 10.207 101.227 10.207Z" fill="black"/>
<path d="M120.211 0.503906C120.547 0.503906 120.715 0.75 120.715 1.24219L117.223 5.48438L116.977 6.48047C117.43 7.26953 119.09 7.84766 121.957 8.21484C123.629 8.86328 124.543 9.44531 124.699 9.96094V10.957C124.699 11.6211 123.039 12.4492 119.719 13.4414V13.6992C123.531 14.0664 125.438 14.8125 125.438 15.9375V16.4297C125.438 17.8203 124.113 19.1484 121.465 20.4141H118.969C118.734 20.4141 118.238 19.918 117.48 18.9258V17.9297C117.527 17.5938 117.691 17.4258 117.973 17.4258H118.723L118.477 17.9297V18.4219C118.477 18.6797 118.809 19.0117 119.473 19.418H120.211C121.727 19.418 123.055 18.4219 124.195 16.4297C124.195 15.6953 121.871 15.0312 117.223 14.4375L116.484 13.6992V13.1953C117.094 13.1953 119.332 12.4492 123.199 10.957V9.96094C120.23 9.13281 118.324 8.71875 117.48 8.71875C116.527 7.80469 115.945 7.14062 115.734 6.72656V5.48438C115.992 4.67188 117.484 3.01172 120.211 0.503906Z" fill="black"/>
<path d="M135.562 0.246094L136.312 1.5V2.49609C136.312 2.82422 136.145 2.98828 135.809 2.98828H135.316V1.74609H135.07C132.891 4.36328 130.648 8.34766 128.344 13.6992L127.852 13.9453L127.348 13.1953C131.223 4.5625 133.961 0.246094 135.562 0.246094ZM133.828 14.9414C135.32 15.4727 136.066 16.8008 136.066 18.9258C135.816 20.7461 135.484 21.6562 135.07 21.6562C134.828 21.6562 134.578 21.4102 134.32 20.918L134.566 17.9297C134.176 16.9297 133.844 16.4297 133.57 16.4297C133.383 16.4297 132.805 17.0117 131.836 18.1758H130.84C130.426 17.9648 129.762 17.3828 128.848 16.4297H128.59V16.6758L129.34 17.9297V19.1719C129.012 19.5781 128.848 19.9102 128.848 20.168H127.852C127.352 20.168 127.102 19.2539 127.102 17.4258C127.266 15.9336 127.598 15.1875 128.098 15.1875H128.59C129.277 15.1875 130.191 15.7695 131.332 16.9336C132.012 15.6055 132.844 14.9414 133.828 14.9414Z" fill="black"/>
<path d="M150.398 10.207L151.641 10.957C151.641 10.793 151.727 10.7109 151.898 10.7109C153.391 11.8594 154.715 14.0977 155.871 17.4258L155.379 17.6719H155.133C154.828 17.6719 154.328 17.0938 153.633 15.9375C153.797 15.9375 153.879 15.8516 153.879 15.6797C153.652 15.6719 153.32 15.2578 152.883 14.4375C153.055 14.4375 153.141 14.3555 153.141 14.1914C151.805 12.6992 150.809 11.9531 150.152 11.9531H149.648C148.32 11.9531 147.16 12.5352 146.168 13.6992L146.414 16.1836C145.586 16.8477 145.008 17.1797 144.68 17.1797C144.016 17.0156 143.684 16.6016 143.684 15.9375C143.848 15.3125 143.93 14.3164 143.93 12.9492C143.672 12.6133 143.172 12.4453 142.43 12.4453V12.1992C141.305 12.1992 140.309 13.2773 139.441 15.4336L139.699 17.1797C140.254 17.1797 140.668 16.0195 140.941 13.6992H141.188C141.688 14.793 141.938 15.5391 141.938 15.9375C141.219 17.9297 140.473 18.9258 139.699 18.9258C139.238 18.9258 138.738 18.1758 138.199 16.6758H137.953C137.953 13.8398 139.281 11.9336 141.938 10.957L143.18 10.7109C144.344 11.2969 144.926 11.875 144.926 12.4453C146.871 10.9531 148.695 10.207 150.398 10.207Z" fill="black"/>
<path d="M158.016 0.246094C163.992 0.816406 166.98 2.0625 166.98 3.98438V4.23047C166.98 5.17578 165.488 7.08594 162.504 9.96094V10.207C163.605 12.0273 165.18 13.4375 167.227 14.4375C167.477 14.4375 168.141 15.1836 169.219 16.6758V18.9258C169.219 19.2539 169.055 19.418 168.727 19.418C167.852 17.2305 167.02 15.9023 166.23 15.4336C166.066 15.4336 165.57 16.5977 164.742 18.9258C163.453 20.582 162.293 21.4102 161.262 21.4102C159.434 20.7305 158.52 19.4844 158.52 17.6719C158.52 15.5859 160.012 14.0938 162.996 13.1953C161.949 11.8672 161.285 10.8711 161.004 10.207C161.004 9.48047 162.414 7.82031 165.234 5.22656L165.738 4.48828V3.49219C164.215 2.49219 161.559 1.82812 157.77 1.5L157.523 0.996094L158.016 0.246094ZM160.008 17.1797V17.6719C160.008 17.9844 160.258 18.6484 160.758 19.6641H162.258C163.75 17.6641 164.496 16.2539 164.496 15.4336V14.9414H162.258C161.242 15.4648 160.492 16.2109 160.008 17.1797Z" fill="black"/>
<path d="M189.773 11.707H190.77C192.16 11.707 193.488 12.5352 194.754 14.1914C195.582 14.9258 195.996 15.5898 195.996 16.1836L195.504 16.4297H194.754C192.965 14.4375 191.637 13.4414 190.77 13.4414C189.387 13.4414 187.895 15.0195 186.293 18.1758H185.051C184.324 17.5586 183.66 16.5625 183.059 15.1875C182.02 14.1953 181.188 13.6992 180.562 13.6992C180.07 13.8633 179.824 14.0273 179.824 14.1914C180.152 14.7383 180.316 15.2344 180.316 15.6797V17.4258C180.316 18.2852 180.066 18.7852 179.566 18.9258H178.57C178.312 18.9258 177.898 18.3438 177.328 17.1797V14.9414L177.586 14.4375C176.484 13.9453 175.734 13.6992 175.336 13.6992H174.844C173.352 13.6992 172.605 14.6094 172.605 16.4297V17.4258C174.012 20.918 176.25 23.4062 179.32 24.8906C180.867 25.8906 182.941 26.8867 185.543 27.8789L185.789 28.3828V28.875C185.469 29.7031 184.559 30.1172 183.059 30.1172C179.41 30.1172 177.586 29.457 177.586 28.1367L178.078 27.8789H178.324C178.785 28.3789 180.031 28.7109 182.062 28.875V28.6289C181.539 28.0586 179.715 26.9805 176.59 25.3945C172.77 21.9414 170.859 19.3672 170.859 17.6719C170.859 14.1875 171.605 12.4453 173.098 12.4453C173.098 12.2812 173.18 12.1992 173.344 12.1992H175.09C175.645 12.1992 176.805 12.3672 178.57 12.7031C179.406 12.2031 179.988 11.9531 180.316 11.9531C182.066 12.1016 183.727 13.2617 185.297 15.4336H185.543C186.785 13.6133 188.195 12.3711 189.773 11.707Z" fill="black"/>
<path d="M202.875 12.7031C204.297 12.7031 206.039 16.1016 208.102 22.8984V23.4023C208.102 25.332 206.859 27.2383 204.375 29.1211C202.75 29.6211 201.754 29.8711 201.387 29.8711C199.949 29.8711 198.703 29.207 197.648 27.8789V27.1406H198.398C199.352 27.8047 200.262 28.2188 201.129 28.3828C203.652 28.3828 205.48 26.8867 206.613 23.8945V22.4062C205.949 19.8359 204.785 17.0977 203.121 14.1914H202.875V14.4375L203.121 15.9375V16.1836H201.879C201.879 15.6836 201.629 15.4336 201.129 15.4336V14.9414L201.879 13.1953C202.285 12.8672 202.617 12.7031 202.875 12.7031Z" fill="black"/>
<path d="M211.734 0H212.484C213.766 0 215.094 2.98828 216.469 8.96484C216.961 11.1836 217.289 14.0859 217.453 17.6719C217.016 19 216.602 19.6641 216.211 19.6641C213.148 19.6641 210.992 17.8398 209.742 14.1914V12.7031C210.727 11.0391 211.723 10.207 212.73 10.207C213.059 10.2617 213.223 10.4297 213.223 10.7109C211.895 11.5859 211.23 12.7461 211.23 14.1914C211.543 15.6289 212.789 17.0391 214.969 18.4219H215.473L215.965 18.1758L215.719 17.6719C215.719 17.3047 215.801 16.9727 215.965 16.6758C215.801 16.3555 215.719 16.1094 215.719 15.9375L215.965 14.6836C215.965 11.0508 214.805 6.65625 212.484 1.5H211.98L210.984 4.73438H210.234C210.234 4.35938 210.152 4.02734 209.988 3.73828C209.988 2.91797 210.57 1.67188 211.734 0Z" fill="black"/>
<path d="M224.344 12.7031C225.766 12.7031 227.508 16.1016 229.57 22.8984V23.4023C229.57 25.332 228.328 27.2383 225.844 29.1211C224.219 29.6211 223.223 29.8711 222.855 29.8711C221.418 29.8711 220.172 29.207 219.117 27.8789V27.1406H219.867C220.82 27.8047 221.73 28.2188 222.598 28.3828C225.121 28.3828 226.949 26.8867 228.082 23.8945V22.4062C227.418 19.8359 226.254 17.0977 224.59 14.1914H224.344V14.4375L224.59 15.9375V16.1836H223.348C223.348 15.6836 223.098 15.4336 222.598 15.4336V14.9414L223.348 13.1953C223.754 12.8672 224.086 12.7031 224.344 12.7031Z" fill="black"/>
<path d="M231.703 0.246094C237.68 0.816406 240.668 2.0625 240.668 3.98438V4.23047C240.668 5.17578 239.176 7.08594 236.191 9.96094V10.207C237.293 12.0273 238.867 13.4375 240.914 14.4375C241.164 14.4375 241.828 15.1836 242.906 16.6758V18.9258C242.906 19.2539 242.742 19.418 242.414 19.418C241.539 17.2305 240.707 15.9023 239.918 15.4336C239.754 15.4336 239.258 16.5977 238.43 18.9258C237.141 20.582 235.98 21.4102 234.949 21.4102C233.121 20.7305 232.207 19.4844 232.207 17.6719C232.207 15.5859 233.699 14.0938 236.684 13.1953C235.637 11.8672 234.973 10.8711 234.691 10.207C234.691 9.48047 236.102 7.82031 238.922 5.22656L239.426 4.48828V3.49219C237.902 2.49219 235.246 1.82812 231.457 1.5L231.211 0.996094L231.703 0.246094ZM233.695 17.1797V17.6719C233.695 17.9844 233.945 18.6484 234.445 19.6641H235.945C237.438 17.6641 238.184 16.2539 238.184 15.4336V14.9414H235.945C234.93 15.4648 234.18 16.2109 233.695 17.1797Z" fill="black"/>
<path d="M249.281 10.7109C251.227 10.7109 252.637 12.9492 253.512 17.4258C253.512 17.7148 253.676 18.1289 254.004 18.668C253.84 19.168 253.676 19.418 253.512 19.418C252.723 19.418 252.141 18.1719 251.766 15.6797C251.578 15.6797 251.082 14.6875 250.277 12.7031L249.281 12.1992C248.242 12.1992 247.246 13.8594 246.293 17.1797V19.418C246.293 19.6602 246.043 19.9102 245.543 20.168H245.297C244.797 20.0039 244.547 19.5039 244.547 18.668V17.6719C244.547 17.0781 244.629 16.332 244.793 15.4336V14.1914C245.676 14.1914 246.34 13.5273 246.785 12.1992C247.707 11.207 248.539 10.7109 249.281 10.7109Z" fill="black"/>
<path d="M255.656 1.5H256.148C256.984 3.22656 257.402 6.62891 257.402 11.707L257.145 13.1953C257.145 16.7031 257.977 18.7773 259.641 19.418C261.016 19.418 262.012 18.7539 262.629 17.4258C262.629 17.0977 262.461 16.2695 262.125 14.9414H262.383C263.375 15.6445 263.871 16.3906 263.871 17.1797C263.23 19.3359 262.152 20.4141 260.637 20.4141C260.316 20.5781 260.066 20.6602 259.887 20.6602C258.145 20.6602 256.898 19.332 256.148 16.6758C255.984 15.543 255.902 14.6328 255.902 13.9453C255.902 13.7656 255.984 13.5156 256.148 13.1953C256.148 13.0312 256.066 12.9492 255.902 12.9492L256.148 11.707V11.2031C256.148 10.3281 256.066 9.58203 255.902 8.96484C256.066 8.08984 256.148 7.26172 256.148 6.48047C256.148 4.81641 255.984 3.15625 255.656 1.5Z" fill="black"/>
<path d="M276.363 13.1953C278.66 13.1953 279.906 14.1094 280.102 15.9375C280.102 18.0547 279.355 19.2969 277.863 19.6641H276.363V20.168C277.418 22.6602 280.156 25.5625 284.578 28.875V29.1211C284.578 29.457 284.414 29.625 284.086 29.625C281.406 28.6094 279.082 26.6992 277.113 23.8945C275.238 22.0352 273.828 19.0508 272.883 14.9414C272.883 13.7773 274.043 13.1953 276.363 13.1953ZM274.875 14.9414V15.4336C274.875 17.3633 275.621 18.4414 277.113 18.668H277.359C278.023 17.6758 278.355 16.7656 278.355 15.9375V15.4336C277.934 14.6055 277.27 14.1914 276.363 14.1914C275.371 14.293 274.875 14.543 274.875 14.9414Z" fill="black"/>
<path d="M287.73 8.71875L287.988 9.21094C287.816 9.53125 287.73 9.78125 287.73 9.96094C291.879 12.625 293.953 14.8633 293.953 16.6758V16.9336C293.953 18.793 292.875 20.2031 290.719 21.1641C288.633 21.1641 287.305 19.7539 286.734 16.9336C286.734 16.5586 286.652 16.2266 286.488 15.9375C286.652 15.6172 286.734 15.3672 286.734 15.1875H286.992C287.258 15.4219 287.836 16.832 288.727 19.418C289.273 19.7539 289.773 19.9219 290.227 19.9219C291.008 19.9219 291.836 19.2578 292.711 17.9297V16.9336C292.711 15.2695 290.805 13.2773 286.992 10.957C286.492 10.4102 286.242 9.99609 286.242 9.71484C286.406 9.05078 286.902 8.71875 287.73 8.71875Z" fill="black"/>
<path d="M302.977 1.5H303.469C304.305 3.22656 304.723 6.62891 304.723 11.707L304.465 13.1953C304.465 16.7031 305.297 18.7773 306.961 19.418C308.336 19.418 309.332 18.7539 309.949 17.4258C309.949 17.0977 309.781 16.2695 309.445 14.9414H309.703C310.695 15.6445 311.191 16.3906 311.191 17.1797C310.551 19.3359 309.473 20.4141 307.957 20.4141C307.637 20.5781 307.387 20.6602 307.207 20.6602C305.465 20.6602 304.219 19.332 303.469 16.6758C303.305 15.543 303.223 14.6328 303.223 13.9453C303.223 13.7656 303.305 13.5156 303.469 13.1953C303.469 13.0312 303.387 12.9492 303.223 12.9492L303.469 11.707V11.2031C303.469 10.3281 303.387 9.58203 303.223 8.96484C303.387 8.08984 303.469 7.26172 303.469 6.48047C303.469 4.81641 303.305 3.15625 302.977 1.5Z" fill="black"/>
<path d="M314.309 8.71875L314.566 9.21094C314.395 9.53125 314.309 9.78125 314.309 9.96094C318.457 12.625 320.531 14.8633 320.531 16.6758V16.9336C320.531 18.793 319.453 20.2031 317.297 21.1641C315.211 21.1641 313.883 19.7539 313.312 16.9336C313.312 16.5586 313.23 16.2266 313.066 15.9375C313.23 15.6172 313.312 15.3672 313.312 15.1875H313.57C313.836 15.4219 314.414 16.832 315.305 19.418C315.852 19.7539 316.352 19.9219 316.805 19.9219C317.586 19.9219 318.414 19.2578 319.289 17.9297V16.9336C319.289 15.2695 317.383 13.2773 313.57 10.957C313.07 10.4102 312.82 9.99609 312.82 9.71484C312.984 9.05078 313.48 8.71875 314.309 8.71875Z" fill="black"/>
<path d="M326.906 10.7109C328.852 10.7109 330.262 12.9492 331.137 17.4258C331.137 17.7148 331.301 18.1289 331.629 18.668C331.465 19.168 331.301 19.418 331.137 19.418C330.348 19.418 329.766 18.1719 329.391 15.6797C329.203 15.6797 328.707 14.6875 327.902 12.7031L326.906 12.1992C325.867 12.1992 324.871 13.8594 323.918 17.1797V19.418C323.918 19.6602 323.668 19.9102 323.168 20.168H322.922C322.422 20.0039 322.172 19.5039 322.172 18.668V17.6719C322.172 17.0781 322.254 16.332 322.418 15.4336V14.1914C323.301 14.1914 323.965 13.5273 324.41 12.1992C325.332 11.207 326.164 10.7109 326.906 10.7109Z" fill="black"/>
<path d="M338.262 0.75C338.582 0.914062 338.832 0.996094 339.012 0.996094V1.99219C336.184 2.25 334.77 3.16406 334.77 4.73438C334.77 5.9375 335.934 9.25391 338.262 14.6836H338.508C338.844 13.5039 339.426 12.6758 340.254 12.1992H341.496C342.16 12.4727 342.492 13.0547 342.492 13.9453V15.4336C342.492 17.1602 341.828 18.4062 340.5 19.1719H340.008C338.594 19.0625 336.434 14.9141 333.527 6.72656C333.527 6.57812 333.445 5.91406 333.281 4.73438C333.281 2.35156 334.773 1.02344 337.758 0.75H338.262ZM340.254 13.6992C339.59 14.9727 339.258 15.8008 339.258 16.1836C339.578 16.9414 339.91 17.3555 340.254 17.4258H340.5C340.828 15.5977 341.078 14.6836 341.25 14.6836C341.078 14.3945 340.992 14.0664 340.992 13.6992H340.254Z" fill="black"/>
<path d="M348.609 13.4414H349.113C350.277 13.8477 350.859 14.8438 350.859 16.4297C350.523 18.0859 350.023 19.25 349.359 19.9219C352.516 24.6094 354.094 27.3477 354.094 28.1367C354.094 29.1523 353.344 29.8125 351.844 30.1172C350.477 30.1172 348.984 29.0391 347.367 26.8828C346.203 25.625 345.125 21.8086 344.133 15.4336V14.6836L344.625 14.4375C344.898 14.4375 345.648 17.4258 346.875 23.4023C348.695 27.0508 350.438 28.875 352.102 28.875L352.594 28.1367V27.3867C349.711 22.7383 348.051 20.4141 347.613 20.4141C346.949 20.4141 346.453 18.8359 346.125 15.6797C346.695 14.1875 347.523 13.4414 348.609 13.4414ZM348.117 14.6836L347.871 15.1875V17.6719C348.199 18.0781 348.363 18.4102 348.363 18.668H348.609C348.852 18.668 349.102 18.4219 349.359 17.9297V14.9414L348.117 14.6836Z" fill="black"/>
<path d="M360.961 12.7031C362.383 12.7031 364.125 16.1016 366.188 22.8984V23.4023C366.188 25.332 364.945 27.2383 362.461 29.1211C360.836 29.6211 359.84 29.8711 359.473 29.8711C358.035 29.8711 356.789 29.207 355.734 27.8789V27.1406H356.484C357.438 27.8047 358.348 28.2188 359.215 28.3828C361.738 28.3828 363.566 26.8867 364.699 23.8945V22.4062C364.035 19.8359 362.871 17.0977 361.207 14.1914H360.961V14.4375L361.207 15.9375V16.1836H359.965C359.965 15.6836 359.715 15.4336 359.215 15.4336V14.9414L359.965 13.1953C360.371 12.8672 360.703 12.7031 360.961 12.7031Z" fill="black"/>
<path d="M376.289 0.246094L377.039 1.5V2.49609C377.039 2.82422 376.871 2.98828 376.535 2.98828H376.043V1.74609H375.797C373.617 4.36328 371.375 8.34766 369.07 13.6992L368.578 13.9453L368.074 13.1953C371.949 4.5625 374.688 0.246094 376.289 0.246094ZM374.555 14.9414C376.047 15.4727 376.793 16.8008 376.793 18.9258C376.543 20.7461 376.211 21.6562 375.797 21.6562C375.555 21.6562 375.305 21.4102 375.047 20.918L375.293 17.9297C374.902 16.9297 374.57 16.4297 374.297 16.4297C374.109 16.4297 373.531 17.0117 372.562 18.1758H371.566C371.152 17.9648 370.488 17.3828 369.574 16.4297H369.316V16.6758L370.066 17.9297V19.1719C369.738 19.5781 369.574 19.9102 369.574 20.168H368.578C368.078 20.168 367.828 19.2539 367.828 17.4258C367.992 15.9336 368.324 15.1875 368.824 15.1875H369.316C370.004 15.1875 370.918 15.7695 372.059 16.9336C372.738 15.6055 373.57 14.9414 374.555 14.9414Z" fill="black"/>
<path d="M383.906 12.7031C385.328 12.7031 387.07 16.1016 389.133 22.8984V23.4023C389.133 25.332 387.891 27.2383 385.406 29.1211C383.781 29.6211 382.785 29.8711 382.418 29.8711C380.98 29.8711 379.734 29.207 378.68 27.8789V27.1406H379.43C380.383 27.8047 381.293 28.2188 382.16 28.3828C384.684 28.3828 386.512 26.8867 387.645 23.8945V22.4062C386.98 19.8359 385.816 17.0977 384.152 14.1914H383.906V14.4375L384.152 15.9375V16.1836H382.91C382.91 15.6836 382.66 15.4336 382.16 15.4336V14.9414L382.91 13.1953C383.316 12.8672 383.648 12.7031 383.906 12.7031Z" fill="black"/>
<path d="M390.773 1.5H391.266C392.102 3.22656 392.52 6.62891 392.52 11.707L392.262 13.1953C392.262 16.7031 393.094 18.7773 394.758 19.418C396.133 19.418 397.129 18.7539 397.746 17.4258C397.746 17.0977 397.578 16.2695 397.242 14.9414H397.5C398.492 15.6445 398.988 16.3906 398.988 17.1797C398.348 19.3359 397.27 20.4141 395.754 20.4141C395.434 20.5781 395.184 20.6602 395.004 20.6602C393.262 20.6602 392.016 19.332 391.266 16.6758C391.102 15.543 391.02 14.6328 391.02 13.9453C391.02 13.7656 391.102 13.5156 391.266 13.1953C391.266 13.0312 391.184 12.9492 391.02 12.9492L391.266 11.707V11.2031C391.266 10.3281 391.184 9.58203 391.02 8.96484C391.184 8.08984 391.266 7.26172 391.266 6.48047C391.266 4.81641 391.102 3.15625 390.773 1.5Z" fill="black"/>
<path d="M413.062 10.207L414.305 10.957C414.305 10.793 414.391 10.7109 414.562 10.7109C416.055 11.8594 417.379 14.0977 418.535 17.4258L418.043 17.6719H417.797C417.492 17.6719 416.992 17.0938 416.297 15.9375C416.461 15.9375 416.543 15.8516 416.543 15.6797C416.316 15.6719 415.984 15.2578 415.547 14.4375C415.719 14.4375 415.805 14.3555 415.805 14.1914C414.469 12.6992 413.473 11.9531 412.816 11.9531H412.312C410.984 11.9531 409.824 12.5352 408.832 13.6992L409.078 16.1836C408.25 16.8477 407.672 17.1797 407.344 17.1797C406.68 17.0156 406.348 16.6016 406.348 15.9375C406.512 15.3125 406.594 14.3164 406.594 12.9492C406.336 12.6133 405.836 12.4453 405.094 12.4453V12.1992C403.969 12.1992 402.973 13.2773 402.105 15.4336L402.363 17.1797C402.918 17.1797 403.332 16.0195 403.605 13.6992H403.852C404.352 14.793 404.602 15.5391 404.602 15.9375C403.883 17.9297 403.137 18.9258 402.363 18.9258C401.902 18.9258 401.402 18.1758 400.863 16.6758H400.617C400.617 13.8398 401.945 11.9336 404.602 10.957L405.844 10.7109C407.008 11.2969 407.59 11.875 407.59 12.4453C409.535 10.9531 411.359 10.207 413.062 10.207Z" fill="black"/>
<path d="M429.809 9.45703H430.312C430.805 9.45703 431.051 10.3711 431.051 12.1992L431.555 11.9531H432.305C432.633 12 432.797 12.1641 432.797 12.4453V13.9453C432.133 14.7812 431.801 15.2773 431.801 15.4336C434.184 15.4336 436.258 17.0938 438.023 20.4141V23.4023C437.008 27.5508 435.184 29.625 432.551 29.625C431.223 29.4219 430.559 29.0898 430.559 28.6289V28.1367H432.551C434.707 28.1367 436.117 26.1445 436.781 22.1602C436.781 19.6914 435.289 17.8633 432.305 16.6758C431.367 16.6758 430.785 16.2617 430.559 15.4336L431.555 13.4414H431.309C430.504 13.9414 429.59 14.1914 428.566 14.1914C428.066 14.0742 427.734 13.7422 427.57 13.1953C427.57 12 428.316 10.7539 429.809 9.45703ZM429.809 10.7109C429.145 11.6641 428.812 12.4102 428.812 12.9492C428.977 12.9492 429.059 13.0312 429.059 13.1953C429.598 12.8672 430.016 12.7031 430.312 12.7031V11.2031C430.312 10.875 430.145 10.7109 429.809 10.7109Z" fill="black"/>
<path d="M441.152 8.71875L441.41 9.21094C441.238 9.53125 441.152 9.78125 441.152 9.96094C445.301 12.625 447.375 14.8633 447.375 16.6758V16.9336C447.375 18.793 446.297 20.2031 444.141 21.1641C442.055 21.1641 440.727 19.7539 440.156 16.9336C440.156 16.5586 440.074 16.2266 439.91 15.9375C440.074 15.6172 440.156 15.3672 440.156 15.1875H440.414C440.68 15.4219 441.258 16.832 442.148 19.418C442.695 19.7539 443.195 19.9219 443.648 19.9219C444.43 19.9219 445.258 19.2578 446.133 17.9297V16.9336C446.133 15.2695 444.227 13.2773 440.414 10.957C439.914 10.4102 439.664 9.99609 439.664 9.71484C439.828 9.05078 440.324 8.71875 441.152 8.71875Z" fill="black"/>
<path d="M451.008 0.75H452.004C452.262 0.75 452.594 1.08203 453 1.74609V2.23828H452.754L452.004 1.74609V1.99219C452.574 5.34375 453.902 9.74219 455.988 15.1875C457.145 22.2188 457.723 26.4492 457.723 27.8789C457.434 28.8789 456.688 29.3789 455.484 29.3789C453.273 29.3789 451.367 27.9688 449.766 25.1484V24.6445H450.258C452.453 26.8867 454.195 28.0508 455.484 28.1367C455.82 27.7305 455.988 27.3984 455.988 27.1406C455.246 19.0078 454.582 14.9414 453.996 14.9414C453.871 14.9414 453.371 14.8555 452.496 14.6836C451.637 14.6836 450.973 15.1016 450.504 15.9375L451.254 16.9336V18.1758C451.254 18.5039 451.09 18.668 450.762 18.668H450.258C449.43 18.2461 449.016 17.582 449.016 16.6758V15.6797C449.742 14.1875 451.07 13.4414 453 13.4414C453.32 13.6133 453.57 13.6992 453.75 13.6992C451.758 7.03516 450.762 3.05078 450.762 1.74609L451.008 0.75Z" fill="black"/>
<path d="M463.852 13.4414H464.355C465.52 13.8477 466.102 14.8438 466.102 16.4297C465.766 18.0859 465.266 19.25 464.602 19.9219C467.758 24.6094 469.336 27.3477 469.336 28.1367C469.336 29.1523 468.586 29.8125 467.086 30.1172C465.719 30.1172 464.227 29.0391 462.609 26.8828C461.445 25.625 460.367 21.8086 459.375 15.4336V14.6836L459.867 14.4375C460.141 14.4375 460.891 17.4258 462.117 23.4023C463.938 27.0508 465.68 28.875 467.344 28.875L467.836 28.1367V27.3867C464.953 22.7383 463.293 20.4141 462.855 20.4141C462.191 20.4141 461.695 18.8359 461.367 15.6797C461.938 14.1875 462.766 13.4414 463.852 13.4414ZM463.359 14.6836L463.113 15.1875V17.6719C463.441 18.0781 463.605 18.4102 463.605 18.668H463.852C464.094 18.668 464.344 18.4219 464.602 17.9297V14.9414L463.359 14.6836Z" fill="black"/>
<path d="M476.203 12.7031C477.625 12.7031 479.367 16.1016 481.43 22.8984V23.4023C481.43 25.332 480.188 27.2383 477.703 29.1211C476.078 29.6211 475.082 29.8711 474.715 29.8711C473.277 29.8711 472.031 29.207 470.977 27.8789V27.1406H471.727C472.68 27.8047 473.59 28.2188 474.457 28.3828C476.98 28.3828 478.809 26.8867 479.941 23.8945V22.4062C479.277 19.8359 478.113 17.0977 476.449 14.1914H476.203V14.4375L476.449 15.9375V16.1836H475.207C475.207 15.6836 474.957 15.4336 474.457 15.4336V14.9414L475.207 13.1953C475.613 12.8672 475.945 12.7031 476.203 12.7031Z" fill="black"/>
<path d="M483.562 0.246094C489.539 0.816406 492.527 2.0625 492.527 3.98438V4.23047C492.527 5.17578 491.035 7.08594 488.051 9.96094V10.207C489.152 12.0273 490.727 13.4375 492.773 14.4375C493.023 14.4375 493.688 15.1836 494.766 16.6758V18.9258C494.766 19.2539 494.602 19.418 494.273 19.418C493.398 17.2305 492.566 15.9023 491.777 15.4336C491.613 15.4336 491.117 16.5977 490.289 18.9258C489 20.582 487.84 21.4102 486.809 21.4102C484.98 20.7305 484.066 19.4844 484.066 17.6719C484.066 15.5859 485.559 14.0938 488.543 13.1953C487.496 11.8672 486.832 10.8711 486.551 10.207C486.551 9.48047 487.961 7.82031 490.781 5.22656L491.285 4.48828V3.49219C489.762 2.49219 487.105 1.82812 483.316 1.5L483.07 0.996094L483.562 0.246094ZM485.555 17.1797V17.6719C485.555 17.9844 485.805 18.6484 486.305 19.6641H487.805C489.297 17.6641 490.043 16.2539 490.043 15.4336V14.9414H487.805C486.789 15.4648 486.039 16.2109 485.555 17.1797Z" fill="black"/>
<path d="M501.141 10.7109C503.086 10.7109 504.496 12.9492 505.371 17.4258C505.371 17.7148 505.535 18.1289 505.863 18.668C505.699 19.168 505.535 19.418 505.371 19.418C504.582 19.418 504 18.1719 503.625 15.6797C503.438 15.6797 502.941 14.6875 502.137 12.7031L501.141 12.1992C500.102 12.1992 499.105 13.8594 498.152 17.1797V19.418C498.152 19.6602 497.902 19.9102 497.402 20.168H497.156C496.656 20.0039 496.406 19.5039 496.406 18.668V17.6719C496.406 17.0781 496.488 16.332 496.652 15.4336V14.1914C497.535 14.1914 498.199 13.5273 498.645 12.1992C499.566 11.207 500.398 10.7109 501.141 10.7109Z" fill="black"/>
<path d="M507.516 1.5H508.008C508.844 3.22656 509.262 6.62891 509.262 11.707L509.004 13.1953C509.004 16.7031 509.836 18.7773 511.5 19.418C512.875 19.418 513.871 18.7539 514.488 17.4258C514.488 17.0977 514.32 16.2695 513.984 14.9414H514.242C515.234 15.6445 515.73 16.3906 515.73 17.1797C515.09 19.3359 514.012 20.4141 512.496 20.4141C512.176 20.5781 511.926 20.6602 511.746 20.6602C510.004 20.6602 508.758 19.332 508.008 16.6758C507.844 15.543 507.762 14.6328 507.762 13.9453C507.762 13.7656 507.844 13.5156 508.008 13.1953C508.008 13.0312 507.926 12.9492 507.762 12.9492L508.008 11.707V11.2031C508.008 10.3281 507.926 9.58203 507.762 8.96484C507.926 8.08984 508.008 7.26172 508.008 6.48047C508.008 4.81641 507.844 3.15625 507.516 1.5Z" fill="black"/>
</svg>
